rounded.ufo
<glyph name="percent" format="1">
  <advance width="865"/>
  <unicode hex="0025"/>
  <outline>
    <contour>
      <point x="196" y="280" type="curve" smooth="yes"/>
      <point x="304" y="280"/>
      <point x="361" y="361"/>
      <point x="361" y="515" type="curve" smooth="yes"/>
      <point x="361" y="668"/>
      <point x="304" y="750"/>
      <point x="196" y="750" type="curve" smooth="yes"/>
      <point x="88" y="750"/>
      <point x="30" y="668"/>
      <point x="30" y="515" type="curve" smooth="yes"/>
      <point x="30" y="361"/>
      <point x="87" y="280"/>
    </contour>
    <contour>
      <point x="196" y="357" type="curve" smooth="yes"/>
      <point x="141" y="357"/>
      <point x="116" y="406"/>
      <point x="116" y="515" type="curve" smooth="yes"/>
      <point x="116" y="622"/>
      <point x="142" y="673"/>
      <point x="196" y="673" type="curve" smooth="yes"/>
      <point x="249" y="673"/>
      <point x="274" y="623"/>
      <point x="274" y="515" type="curve" smooth="yes"/>
      <point x="274" y="406"/>
      <point x="250" y="357"/>
    </contour>
    <contour>
      <point x="670" y="-12" type="curve" smooth="yes"/>
      <point x="779" y="-12"/>
      <point x="836" y="69"/>
      <point x="836" y="223" type="curve" smooth="yes"/>
      <point x="836" y="376"/>
      <point x="779" y="458"/>
      <point x="670" y="458" type="curve" smooth="yes"/>
      <point x="562" y="458"/>
      <point x="504" y="376"/>
      <point x="504" y="223" type="curve" smooth="yes"/>
      <point x="504" y="69"/>
      <point x="562" y="-12"/>
    </contour>
    <contour>
      <point x="670" y="65" type="curve" smooth="yes"/>
      <point x="616" y="65"/>
      <point x="591" y="114"/>
      <point x="591" y="223" type="curve" smooth="yes"/>
      <point x="591" y="330"/>
      <point x="617" y="381"/>
      <point x="670" y="381" type="curve" smooth="yes"/>
      <point x="724" y="381"/>
      <point x="749" y="331"/>
      <point x="749" y="223" type="curve" smooth="yes"/>
      <point x="749" y="114"/>
      <point x="725" y="65"/>
    </contour>
    <contour>
      <point x="254" y="0" type="line"/>
      <point x="347" y="0" type="line"/>
      <point x="607" y="740" type="line"/>
      <point x="514" y="740" type="line"/>
    </contour>
  </outline>
</glyph>
<glyph name="parenleft" format="1">
  <advance width="292"/>
  <unicode hex="0028"/>
  <outline>
    <contour>
      <point x="185" y="-160" type="curve"/>
      <point x="283" y="-160" type="line"/>
      <point x="283" y="-156" type="line"/>
      <point x="184" y="-10"/>
      <point x="125" y="169"/>
      <point x="125" y="354" type="curve" smooth="yes"/>
      <point x="125" y="539"/>
      <point x="184" y="718"/>
      <point x="283" y="864" type="curve"/>
      <point x="283" y="868" type="line"/>
      <point x="185" y="868" type="line"/>
      <point x="84" y="720"/>
      <point x="32" y="539"/>
      <point x="32" y="354" type="curve" smooth="yes"/>
      <point x="32" y="170"/>
      <point x="84" y="-12"/>
    </contour>
  </outline>
</glyph>
<glyph name="parenright" format="1">
  <advance width="292"/>
  <unicode hex="0029"/>
  <outline>
    <contour>
      <point x="107" y="-160" type="line"/>
      <point x="208" y="-12"/>
      <point x="260" y="170"/>
      <point x="260" y="354" type="curve" smooth="yes"/>
      <point x="260" y="539"/>
      <point x="208" y="720"/>
      <point x="107" y="868" type="curve"/>
      <point x="9" y="868" type="line"/>
      <point x="9" y="864" type="line"/>
      <point x="108" y="718"/>
      <point x="166" y="539"/>
      <point x="166" y="354" type="curve" smooth="yes"/>
      <point x="166" y="169"/>
      <point x="108" y="-10"/>
      <point x="9" y="-156" type="curve"/>
      <point x="9" y="-160" type="line"/>
    </contour>
  </outline>
</glyph>
<glyph name="plus" format="1">
  <advance width="490"/>
  <unicode hex="002B"/>
  <outline>
    <contour>
      <point x="36" y="328" type="line"/>
      <point x="455" y="328" type="line"/>
      <point x="455" y="412" type="line"/>
      <point x="36" y="412" type="line"/>
    </contour>
    <contour>
      <point x="203" y="163" type="line"/>
      <point x="287" y="163" type="line"/>
      <point x="287" y="577" type="line"/>
      <point x="203" y="577" type="line"/>
    </contour>
  </outline>
</glyph>
<glyph name="slash" format="1">
  <advance width="310"/>
  <unicode hex="002F"/>
  <outline>
    <contour>
      <point x="26" y="-121" type="line"/>
      <point x="124" y="-121" type="line"/>
      <point x="284" y="740" type="line"/>
      <point x="186" y="740" type="line"/>
    </contour>
  </outline>
</glyph>
<glyph name="two" format="1">
  <advance width="466"/>
  <unicode hex="0032"/>
  <outline>
    <contour>
      <point x="35" y="0" type="line"/>
      <point x="423" y="0" type="line"/>
      <point x="423" y="98" type="line"/>
      <point x="149" y="98" type="line"/>
      <point x="149" y="136" type="line" smooth="yes"/>
      <point x="149" y="205"/>
      <point x="173" y="244"/>
      <point x="278" y="322" type="curve" smooth="yes"/>
      <point x="384" y="398"/>
      <point x="426" y="465"/>
      <point x="426" y="561" type="curve" smooth="yes"/>
      <point x="426" y="686"/>
      <point x="357" y="750"/>
      <point x="223" y="750" type="curve" smooth="yes"/>
      <point x="174" y="750"/>
      <point x="115" y="741"/>
      <point x="51" y="723" type="curve"/>
      <point x="63" y="631" type="line"/>
      <point x="112" y="646"/>
      <point x="155" y="653"/>
      <point x="191" y="653" type="curve" smooth="yes"/>
      <point x="273" y="653"/>
      <point x="312" y="619"/>
      <point x="312" y="548" type="curve" smooth="yes"/>
      <point x="312" y="485"/>
      <point x="283" y="442"/>
      <point x="199" y="384" type="curve" smooth="yes"/>
      <point x="78" y="304"/>
      <point x="35" y="230"/>
      <point x="35" y="112" type="curve" smooth="yes"/>
    </contour>
  </outline>
</glyph>
<glyph name="three" format="1">
  <advance width="441"/>
  <unicode hex="0033"/>
  <outline>
    <contour>
      <point x="163" y="-9" type="curve" smooth="yes"/>
      <point x="315" y="-7"/>
      <point x="403" y="68"/>
      <point x="403" y="195" type="curve" smooth="yes"/>
      <point x="403" y="296"/>
      <point x="354" y="362"/>
      <point x="261" y="382" type="curve"/>
      <point x="261" y="385" type="line"/>
      <point x="340" y="406"/>
      <point x="383" y="470"/>
      <point x="383" y="566" type="curve" smooth="yes"/>
      <point x="383" y="688"/>
      <point x="310" y="751"/>
      <point x="163" y="751" type="curve" smooth="yes"/>
      <point x="120" y="751"/>
      <point x="80" y="746"/>
      <point x="39" y="735" type="curve"/>
      <point x="43" y="648" type="line"/>
      <point x="50" y="648" type="line"/>
      <point x="93" y="657"/>
      <point x="126" y="661"/>
      <point x="154" y="661" type="curve" smooth="yes"/>
      <point x="232" y="661"/>
      <point x="269" y="624"/>
      <point x="269" y="544" type="curve" smooth="yes"/>
      <point x="269" y="460"/>
      <point x="226" y="422"/>
      <point x="128" y="422" type="curve" smooth="yes"/>
      <point x="104" y="422" type="line"/>
      <point x="104" y="339" type="line"/>
      <point x="128" y="339" type="line" smooth="yes"/>
      <point x="242" y="339"/>
      <point x="289" y="295"/>
      <point x="289" y="203" type="curve" smooth="yes"/>
      <point x="289" y="120"/>
      <point x="242" y="79"/>
      <point x="146" y="79" type="curve" smooth="yes"/>
      <point x="109" y="79"/>
      <point x="73" y="84"/>
      <point x="48" y="93" type="curve"/>
      <point x="42" y="93" type="line"/>
      <point x="42" y="5" type="line"/>
      <point x="84" y="-5"/>
      <point x="124" y="-9"/>
    </contour>
  </outline>
</glyph>
<glyph name="six" format="1">
  <advance width="531"/>
  <unicode hex="0036"/>
  <outline>
    <contour>
      <point x="276" y="-11" type="curve" smooth="yes"/>
      <point x="414" y="-11"/>
      <point x="502" y="88"/>
      <point x="502" y="243" type="curve" smooth="yes"/>
      <point x="502" y="377"/>
      <point x="423" y="462"/>
      <point x="299" y="462" type="curve" smooth="yes"/>
      <point x="227" y="462"/>
      <point x="158" y="423"/>
      <point x="119" y="360" type="curve"/>
      <point x="141" y="305" type="line"/>
      <point x="171" y="346"/>
      <point x="227" y="376"/>
      <point x="275" y="376" type="curve" smooth="yes"/>
      <point x="350" y="376"/>
      <point x="390" y="329"/>
      <point x="390" y="240" type="curve" smooth="yes"/>
      <point x="390" y="143"/>
      <point x="348" y="86"/>
      <point x="276" y="86" type="curve" smooth="yes"/>
      <point x="189" y="86"/>
      <point x="149" y="162"/>
      <point x="149" y="330" type="curve" smooth="yes"/>
      <point x="149" y="550"/>
      <point x="212" y="657"/>
      <point x="346" y="657" type="curve" smooth="yes"/>
      <point x="378" y="657"/>
      <point x="409" y="652"/>
      <point x="452" y="641" type="curve"/>
      <point x="463" y="733" type="line"/>
      <point x="419" y="745"/>
      <point x="380" y="751"/>
      <point x="343" y="751" type="curve" smooth="yes"/>
      <point x="146" y="751"/>
      <point x="40" y="602"/>
      <point x="40" y="330" type="curve" smooth="yes"/>
      <point x="40" y="108"/>
      <point x="123" y="-11"/>
    </contour>
  </outline>
</glyph>
<glyph name="seven" format="1">
  <advance width="405"/>
  <unicode hex="0037"/>
  <outline>
    <contour>
      <point x="164" y="-15" type="line"/>
      <point x="71" y="0" type="line"/>
      <point x="71" y="16" type="line"/>
      <point x="289" y="669" type="line"/>
      <point x="324" y="643" type="line"/>
      <point x="22" y="643" type="line"/>
      <point x="19" y="727" type="line"/>
      <point x="33" y="740" type="line"/>
      <point x="376" y="740" type="line"/>
      <point x="392" y="676" type="line"/>
      <point x="392" y="648" type="line"/>
      <point x="185" y="1" type="line"/>
    </contour>
  </outline>
</glyph>
<glyph name="equal" format="1">
  <advance width="510"/>
  <unicode hex="003D"/>
  <outline>
    <contour>
      <point x="53" y="202" type="line"/>
      <point x="457" y="202" type="line"/>
      <point x="457" y="288" type="line"/>
      <point x="53" y="288" type="line"/>
    </contour>
    <contour>
      <point x="53" y="419" type="line"/>
      <point x="457" y="419" type="line"/>
      <point x="457" y="505" type="line"/>
      <point x="53" y="505" type="line"/>
    </contour>
  </outline>
</glyph>
<glyph name="at" format="1">
  <advance width="793"/>
  <unicode hex="0040"/>
  <outline>
    <contour>
      <point x="387" y="-137" type="curve" smooth="yes"/>
      <point x="454" y="-137"/>
      <point x="528" y="-119"/>
      <point x="595" y="-96" type="curve"/>
      <point x="571" y="-34" type="line"/>
      <point x="509" y="-55"/>
      <point x="443" y="-71"/>
      <point x="387" y="-71" type="curve" smooth="yes"/>
      <point x="252" y="-71"/>
      <point x="112" y="10"/>
      <point x="112" y="262" type="curve" smooth="yes"/>
      <point x="112" y="489"/>
      <point x="235" y="607"/>
      <point x="411" y="607" type="curve" smooth="yes"/>
      <point x="603" y="607"/>
      <point x="675" y="489"/>
      <point x="675" y="307" type="curve" smooth="yes"/>
      <point x="675" y="190"/>
      <point x="644" y="113"/>
      <point x="585" y="113" type="curve" smooth="yes"/>
      <point x="545" y="113"/>
      <point x="535" y="141"/>
      <point x="535" y="175" type="curve" smooth="yes"/>
      <point x="535" y="199"/>
      <point x="540" y="226"/>
      <point x="544" y="249" type="curve" smooth="yes"/>
      <point x="579" y="457" type="line"/>
      <point x="519" y="482"/>
      <point x="470" y="494"/>
      <point x="431" y="494" type="curve" smooth="yes"/>
      <point x="290" y="494"/>
      <point x="203" y="383"/>
      <point x="203" y="231" type="curve" smooth="yes"/>
      <point x="203" y="141"/>
      <point x="239" y="56"/>
      <point x="336" y="56" type="curve" smooth="yes"/>
      <point x="382" y="56"/>
      <point x="440" y="77"/>
      <point x="478" y="137" type="curve"/>
      <point x="482" y="137" type="line"/>
      <point x="491" y="64"/>
      <point x="534" y="50"/>
      <point x="582" y="50" type="curve" smooth="yes"/>
      <point x="695" y="50"/>
      <point x="750" y="152"/>
      <point x="750" y="307" type="curve" smooth="yes"/>
      <point x="750" y="531"/>
      <point x="656" y="677"/>
      <point x="411" y="677" type="curve" smooth="yes"/>
      <point x="192" y="677"/>
      <point x="36" y="535"/>
      <point x="36" y="262" type="curve" smooth="yes"/>
      <point x="36" y="-40"/>
      <point x="214" y="-137"/>
    </contour>
    <contour>
      <point x="348" y="122" type="curve" smooth="yes"/>
      <point x="293" y="122"/>
      <point x="277" y="177"/>
      <point x="277" y="231" type="curve" smooth="yes"/>
      <point x="277" y="345"/>
      <point x="335" y="428"/>
      <point x="431" y="428" type="curve" smooth="yes"/>
      <point x="451" y="428"/>
      <point x="474" y="425"/>
      <point x="498" y="416" type="curve"/>
      <point x="473" y="261" type="line" smooth="yes"/>
      <point x="455" y="150"/>
      <point x="388" y="122"/>
    </contour>
  </outline>
</glyph>
<glyph name="C" format="1">
  <advance width="495"/>
  <unicode hex="0043"/>
  <outline>
    <contour>
      <point x="293" y="783" type="move" name="topUC"/>
    </contour>
    <contour>
      <point x="297" y="0" type="move" name="bottom"/>
    </contour>
    <contour>
      <point x="342" y="-10" type="curve" smooth="yes"/>
      <point x="393" y="-10"/>
      <point x="437" y="-3"/>
      <point x="466" y="7" type="curve"/>
      <point x="466" y="98" type="line"/>
      <point x="430" y="91"/>
      <point x="386" y="87"/>
      <point x="355" y="87" type="curve" smooth="yes"/>
      <point x="213" y="87"/>
      <point x="156" y="157"/>
      <point x="156" y="369" type="curve" smooth="yes"/>
      <point x="156" y="587"/>
      <point x="210" y="652"/>
      <point x="358" y="652" type="curve" smooth="yes"/>
      <point x="393" y="652"/>
      <point x="434" y="649"/>
      <point x="466" y="643" type="curve"/>
      <point x="466" y="736" type="line"/>
      <point x="421" y="745"/>
      <point x="379" y="749"/>
      <point x="341" y="749" type="curve" smooth="yes"/>
      <point x="134" y="749"/>
      <point x="38" y="636"/>
      <point x="38" y="370" type="curve" smooth="yes"/>
      <point x="38" y="108"/>
      <point x="135" y="-8"/>
    </contour>
  </outline>
</glyph>
<glyph name="G" format="1">
  <advance width="569"/>
  <unicode hex="0047"/>
  <outline>
    <contour>
      <point x="330" y="783" type="move" name="topUC"/>
    </contour>
    <contour>
      <point x="333" y="0" type="move" name="bottom"/>
    </contour>
    <contour>
      <point x="342" y="-10" type="curve" smooth="yes"/>
      <point x="393" y="-10"/>
      <point x="443" y="-6"/>
      <point x="521" y="6" type="curve"/>
      <point x="482" y="101" type="line"/>
      <point x="438" y="92"/>
      <point x="390" y="87"/>
      <point x="355" y="87" type="curve" smooth="yes"/>
      <point x="210" y="87"/>
      <point x="155" y="162"/>
      <point x="155" y="369" type="curve" smooth="yes"/>
      <point x="155" y="579"/>
      <point x="213" y="653"/>
      <point x="377" y="653" type="curve" smooth="yes"/>
      <point x="414" y="653"/>
      <point x="461" y="647"/>
      <point x="516" y="637" type="curve"/>
      <point x="516" y="730" type="line"/>
      <point x="463" y="742"/>
      <point x="406" y="749"/>
      <point x="365" y="749" type="curve" smooth="yes"/>
      <point x="139" y="749"/>
      <point x="37" y="632"/>
      <point x="37" y="370" type="curve" smooth="yes"/>
      <point x="37" y="111"/>
      <point x="132" y="-8"/>
    </contour>
    <contour>
      <point x="417" y="13" type="line"/>
      <point x="521" y="6" type="line"/>
      <point x="521" y="376" type="line"/>
      <point x="417" y="376" type="line"/>
    </contour>
  </outline>
</glyph>
<glyph name="H" format="1">
  <advance width="646"/>
  <unicode hex="0048"/>
  <outline>
    <contour>
      <point x="317" y="783" type="move" name="topUC"/>
    </contour>
    <contour>
      <point x="327" y="0" type="move" name="bottom"/>
    </contour>
    <contour>
      <point x="66" y="0" type="line"/>
      <point x="180" y="0" type="line"/>
      <point x="180" y="329" type="line"/>
      <point x="466" y="329" type="line"/>
      <point x="466" y="0" type="line"/>
      <point x="580" y="0" type="line"/>
      <point x="580" y="740" type="line"/>
      <point x="466" y="740" type="line"/>
      <point x="466" y="427" type="line"/>
      <point x="180" y="427" type="line"/>
      <point x="180" y="740" type="line"/>
      <point x="66" y="740" type="line"/>
    </contour>
  </outline>
</glyph>
<glyph name="J" format="1">
  <advance width="246"/>
  <unicode hex="004A"/>
  <outline>
    <contour>
      <point x="125" y="783" type="move" name="topUC"/>
    </contour>
    <contour>
      <point x="61" y="-195" type="line"/>
      <point x="149" y="-58"/>
      <point x="183" y="49"/>
      <point x="183" y="180" type="curve" smooth="yes"/>
      <point x="183" y="740" type="line"/>
      <point x="68" y="740" type="line"/>
      <point x="68" y="189" type="line" smooth="yes"/>
      <point x="68" y="53"/>
      <point x="51" y="-20"/>
      <point x="-12" y="-160" type="curve"/>
    </contour>
  </outline>
</glyph>
<glyph name="L" format="1">
  <advance width="433"/>
  <unicode hex="004C"/>
  <outline>
    <contour>
      <point x="133" y="783" type="move" name="topUC"/>
    </contour>
    <contour>
      <point x="342" y="370" type="move" name="periodcentered"/>
    </contour>
    <contour>
      <point x="366" y="707" type="move" name="caronalt"/>
    </contour>
    <contour>
      <point x="244" y="0" type="move" name="bottom"/>
    </contour>
    <contour>
      <point x="66" y="0" type="line"/>
      <point x="421" y="0" type="line"/>
      <point x="421" y="98" type="line"/>
      <point x="180" y="98" type="line"/>
      <point x="180" y="740" type="line"/>
      <point x="66" y="740" type="line"/>
    </contour>
  </outline>
</glyph>
<glyph name="M" format="1">
  <advance width="830"/>
  <unicode hex="004D"/>
  <outline>
    <contour>
      <point x="66" y="0" type="line"/>
      <point x="173" y="0" type="line"/>
      <point x="173" y="586" type="line"/>
      <point x="180" y="586" type="line"/>
      <point x="212" y="470" type="line"/>
      <point x="364" y="36" type="line"/>
      <point x="466" y="36" type="line"/>
      <point x="618" y="470" type="line"/>
      <point x="650" y="586" type="line"/>
      <point x="657" y="586" type="line"/>
      <point x="657" y="0" type="line"/>
      <point x="764" y="0" type="line"/>
      <point x="764" y="740" type="line"/>
      <point x="604" y="740" type="line"/>
      <point x="443" y="289" type="line"/>
      <point x="418" y="175" type="line"/>
      <point x="411" y="175" type="line"/>
      <point x="386" y="289" type="line"/>
      <point x="226" y="740" type="line"/>
      <point x="66" y="740" type="line"/>
    </contour>
  </outline>
</glyph>
<glyph name="N" format="1">
  <advance width="665"/>
  <unicode hex="004E"/>
  <outline>
    <contour>
      <point x="330" y="783" type="move" name="topUC"/>
    </contour>
    <contour>
      <point x="345" y="0" type="move" name="bottom"/>
    </contour>
    <contour>
      <point x="66" y="0" type="line"/>
      <point x="169" y="0" type="line"/>
      <point x="169" y="542" type="line"/>
      <point x="177" y="543" type="line"/>
      <point x="218" y="459" type="line"/>
      <point x="500" y="0" type="line"/>
      <point x="599" y="0" type="line"/>
      <point x="599" y="740" type="line"/>
      <point x="496" y="740" type="line"/>
      <point x="496" y="199" type="line"/>
      <point x="488" y="199" type="line"/>
      <point x="447" y="281" type="line"/>
      <point x="165" y="740" type="line"/>
      <point x="66" y="740" type="line"/>
    </contour>
  </outline>
</glyph>
<glyph name="O" format="1">
  <advance width="637"/>
  <unicode hex="004F"/>
  <outline>
    <contour>
      <point x="369" y="-1" type="move" name="ogonek"/>
    </contour>
    <contour>
      <point x="319" y="783" type="move" name="topUC"/>
    </contour>
    <contour>
      <point x="321" y="0" type="move" name="bottom"/>
    </contour>
    <contour>
      <point x="318" y="-10" type="curve" smooth="yes"/>
      <point x="508" y="-10"/>
      <point x="600" y="114"/>
      <point x="600" y="369" type="curve" smooth="yes"/>
      <point x="600" y="626"/>
      <point x="508" y="750"/>
      <point x="318" y="750" type="curve" smooth="yes"/>
      <point x="130" y="750"/>
      <point x="38" y="625"/>
      <point x="38" y="369" type="curve" smooth="yes"/>
      <point x="38" y="115"/>
      <point x="130" y="-10"/>
    </contour>
    <contour>
      <point x="318" y="87" type="curve" smooth="yes"/>
      <point x="201" y="87"/>
      <point x="155" y="167"/>
      <point x="155" y="369" type="curve" smooth="yes"/>
      <point x="155" y="573"/>
      <point x="202" y="654"/>
      <point x="318" y="654" type="curve" smooth="yes"/>
      <point x="435" y="654"/>
      <point x="483" y="572"/>
      <point x="483" y="369" type="curve" smooth="yes"/>
      <point x="483" y="167"/>
      <point x="436" y="87"/>
    </contour>
  </outline>
</glyph>
<glyph name="R" format="1">
  <advance width="567"/>
  <unicode hex="0052"/>
  <outline>
    <contour>
      <point x="290" y="783" type="move" name="topUC"/>
    </contour>
    <contour>
      <point x="297" y="0" type="move" name="bottom"/>
    </contour>
    <contour>
      <point x="66" y="0" type="line"/>
      <point x="180" y="0" type="line"/>
      <point x="180" y="266" type="line"/>
      <point x="196" y="265"/>
      <point x="230" y="264"/>
      <point x="245" y="264" type="curve" smooth="yes"/>
      <point x="442" y="264"/>
      <point x="530" y="339"/>
      <point x="530" y="505" type="curve" smooth="yes"/>
      <point x="530" y="677"/>
      <point x="441" y="751"/>
      <point x="236" y="751" type="curve" smooth="yes"/>
      <point x="178" y="751"/>
      <point x="120" y="746"/>
      <point x="66" y="735" type="curve"/>
    </contour>
    <contour>
      <point x="251" y="355" type="curve" smooth="yes"/>
      <point x="231" y="355"/>
      <point x="204" y="357"/>
      <point x="180" y="360" type="curve"/>
      <point x="180" y="648" type="line"/>
      <point x="207" y="652"/>
      <point x="236" y="655"/>
      <point x="254" y="655" type="curve" smooth="yes"/>
      <point x="369" y="655"/>
      <point x="413" y="613"/>
      <point x="413" y="505" type="curve" smooth="yes"/>
      <point x="413" y="398"/>
      <point x="368" y="355"/>
    </contour>
    <contour>
      <point x="426" y="0" type="line"/>
      <point x="545" y="0" type="line"/>
      <point x="383" y="329" type="line"/>
      <point x="290" y="292" type="line"/>
    </contour>
  </outline>
</glyph>
<glyph name="S" format="1">
  <advance width="489"/>
  <unicode hex="0053"/>
  <outline>
    <contour>
      <point x="251" y="783" type="move" name="topUC"/>
    </contour>
    <contour>
      <point x="247" y="0" type="move" name="bottom"/>
    </contour>
    <contour>
      <point x="236" y="-13" type="curve" smooth="yes"/>
      <point x="376" y="-13"/>
      <point x="463" y="69"/>
      <point x="463" y="201" type="curve" smooth="yes"/>
      <point x="463" y="322"/>
      <point x="402" y="373"/>
      <point x="297" y="416" type="curve" smooth="yes"/>
      <point x="207" y="452"/>
      <point x="155" y="478"/>
      <point x="155" y="544" type="curve" smooth="yes"/>
      <point x="155" y="614"/>
      <point x="201" y="656"/>
      <point x="278" y="656" type="curve" smooth="yes"/>
      <point x="315" y="656"/>
      <point x="375" y="647"/>
      <point x="430" y="633" type="curve"/>
      <point x="434" y="727" type="line"/>
      <point x="375" y="743"/>
      <point x="321" y="751"/>
      <point x="269" y="751" type="curve" smooth="yes"/>
      <point x="128" y="751"/>
      <point x="40" y="671"/>
      <point x="40" y="544" type="curve" smooth="yes"/>
      <point x="40" y="411"/>
      <point x="107" y="365"/>
      <point x="209" y="327" type="curve" smooth="yes"/>
      <point x="298" y="294"/>
      <point x="348" y="264"/>
      <point x="348" y="198" type="curve" smooth="yes"/>
      <point x="348" y="125"/>
      <point x="302" y="85"/>
      <point x="217" y="85" type="curve" smooth="yes"/>
      <point x="161" y="85"/>
      <point x="78" y="102"/>
      <point x="36" y="121" type="curve"/>
      <point x="32" y="24" type="line"/>
      <point x="95" y="1"/>
      <point x="173" y="-13"/>
    </contour>
  </outline>
</glyph>
<glyph name="T" format="1">
  <advance width="502"/>
  <unicode hex="0054"/>
  <outline>
    <contour>
      <point x="249" y="783" type="move" name="topUC"/>
    </contour>
    <contour>
      <point x="252" y="0" type="move" name="bottom"/>
    </contour>
    <contour>
      <point x="193" y="0" type="line"/>
      <point x="308" y="0" type="line"/>
      <point x="308" y="640" type="line"/>
      <point x="487" y="640" type="line"/>
      <point x="487" y="740" type="line"/>
      <point x="15" y="740" type="line"/>
      <point x="15" y="640" type="line"/>
      <point x="193" y="640" type="line"/>
    </contour>
  </outline>
</glyph>
<glyph name="V" format="1">
  <advance width="587"/>
  <unicode hex="0056"/>
  <outline>
    <contour>
      <point x="216" y="0" type="line"/>
      <point x="372" y="0" type="line"/>
      <point x="585" y="740" type="line"/>
      <point x="474" y="740" type="line"/>
      <point x="331" y="247" type="line"/>
      <point x="300" y="106" type="line"/>
      <point x="288" y="106" type="line"/>
      <point x="259" y="247" type="line"/>
      <point x="114" y="740" type="line"/>
      <point x="2" y="740" type="line"/>
    </contour>
  </outline>
</glyph>
<glyph name="W" format="1">
  <advance width="898"/>
  <unicode hex="0057"/>
  <outline>
    <contour>
      <point x="449" y="783" type="move" name="topUC"/>
    </contour>
    <contour>
      <point x="180" y="0" type="line"/>
      <point x="317" y="0" type="line"/>
      <point x="430" y="456" type="line"/>
      <point x="447" y="576" type="line"/>
      <point x="455" y="576" type="line"/>
      <point x="471" y="456" type="line"/>
      <point x="578" y="0" type="line"/>
      <point x="714" y="0" type="line"/>
      <point x="893" y="740" type="line"/>
      <point x="767" y="740" type="line"/>
      <point x="666" y="252" type="line"/>
      <point x="646" y="139" type="line"/>
      <point x="636" y="139" type="line"/>
      <point x="616" y="252" type="line"/>
      <point x="509" y="740" type="line"/>
      <point x="395" y="740" type="line"/>
      <point x="281" y="252" type="line"/>
      <point x="260" y="139" type="line"/>
      <point x="250" y="139" type="line"/>
      <point x="232" y="252" type="line"/>
      <point x="137" y="740" type="line"/>
      <point x="10" y="740" type="line"/>
    </contour>
  </outline>
</glyph>
<glyph name="X" format="1">
  <advance width="589"/>
  <unicode hex="0058"/>
  <outline>
    <contour>
      <point x="-2" y="0" type="line"/>
      <point x="123" y="0" type="line"/>
      <point x="282" y="281" type="line"/>
      <point x="290" y="296" type="line"/>
      <point x="290" y="296" type="line"/>
      <point x="297" y="281" type="line"/>
      <point x="463" y="0" type="line"/>
      <point x="591" y="0" type="line"/>
      <point x="367" y="383" type="line"/>
      <point x="577" y="740" type="line"/>
      <point x="454" y="740" type="line"/>
      <point x="306" y="477" type="line"/>
      <point x="299" y="462" type="line"/>
      <point x="298" y="462" type="line"/>
      <point x="292" y="477" type="line"/>
      <point x="141" y="740" type="line"/>
      <point x="12" y="740" type="line"/>
      <point x="221" y="378" type="line"/>
    </contour>
  </outline>
</glyph>
<glyph name="Y" format="1">
  <advance width="587"/>
  <unicode hex="0059"/>
  <outline>
    <contour>
      <point x="296" y="783" type="move" name="topUC"/>
    </contour>
    <contour>
      <point x="236" y="0" type="line"/>
      <point x="351" y="0" type="line"/>
      <point x="351" y="252" type="line"/>
      <point x="590" y="740" type="line"/>
      <point x="464" y="740" type="line"/>
      <point x="315" y="422" type="line"/>
      <point x="298" y="367" type="line"/>
      <point x="289" y="367" type="line"/>
      <point x="273" y="422" type="line"/>
      <point x="124" y="740" type="line"/>
      <point x="-5" y="740" type="line"/>
      <point x="236" y="250" type="line"/>
    </contour>
  </outline>
</glyph>
<glyph name="Z" format="1">
  <advance width="504"/>
  <unicode hex="005A"/>
  <outline>
    <contour>
      <point x="258" y="783" type="move" name="topUC"/>
    </contour>
    <contour>
      <point x="253" y="0" type="move" name="bottom"/>
    </contour>
    <contour>
      <point x="27" y="0" type="line"/>
      <point x="478" y="0" type="line"/>
      <point x="478" y="98" type="line"/>
      <point x="156" y="98" type="line"/>
      <point x="156" y="105" type="line"/>
      <point x="467" y="639" type="line"/>
      <point x="467" y="740" type="line"/>
      <point x="37" y="740" type="line"/>
      <point x="37" y="642" type="line"/>
      <point x="338" y="642" type="line"/>
      <point x="338" y="634" type="line"/>
      <point x="27" y="101" type="line"/>
    </contour>
  </outline>
</glyph>
<glyph name="bracketright" format="1">
  <advance width="312"/>
  <unicode hex="005D"/>
  <outline>
    <contour>
      <point x="244" y="-160" type="line"/>
      <point x="244" y="868" type="line"/>
      <point x="23" y="868" type="line"/>
      <point x="23" y="791" type="line"/>
      <point x="154" y="791" type="line"/>
      <point x="154" y="-83" type="line"/>
      <point x="23" y="-83" type="line"/>
      <point x="23" y="-160" type="line"/>
    </contour>
  </outline>
</glyph>
<glyph name="asciicircum" format="1">
  <advance width="386"/>
  <unicode hex="005E"/>
  <outline>
    <contour>
      <point x="33" y="481" type="line"/>
      <point x="113" y="481" type="line"/>
      <point x="191" y="713" type="line"/>
      <point x="195" y="713" type="line"/>
      <point x="273" y="481" type="line"/>
      <point x="353" y="481" type="line"/>
      <point x="240" y="789" type="line"/>
      <point x="146" y="789" type="line"/>
    </contour>
  </outline>
</glyph>
<glyph name="a" format="1">
  <advance width="472"/>
  <unicode hex="0061"/>
  <outline>
    <contour>
      <point x="241" y="600" type="move" name="top"/>
    </contour>
    <contour>
      <point x="420" y="0" type="move" name="ogonek"/>
    </contour>
    <contour>
      <point x="162" y="-5" type="curve" smooth="yes"/>
      <point x="220" y="-5"/>
      <point x="273" y="28"/>
      <point x="311" y="65" type="curve"/>
      <point x="318" y="65" type="line"/>
      <point x="327" y="0" type="line"/>
      <point x="420" y="0" type="line"/>
      <point x="420" y="378" type="line" smooth="yes"/>
      <point x="420" y="495"/>
      <point x="361" y="548"/>
      <point x="227" y="548" type="curve" smooth="yes"/>
      <point x="179" y="548"/>
      <point x="119" y="541"/>
      <point x="65" y="531" type="curve"/>
      <point x="73" y="446" type="line"/>
      <point x="110" y="455"/>
      <point x="178" y="462"/>
      <point x="209" y="462" type="curve" smooth="yes"/>
      <point x="285" y="462"/>
      <point x="308" y="436"/>
      <point x="308" y="351" type="curve" smooth="yes"/>
      <point x="308" y="128" type="line"/>
      <point x="281" y="111"/>
      <point x="237" y="81"/>
      <point x="202" y="81" type="curve" smooth="yes"/>
      <point x="160" y="81"/>
      <point x="136" y="107"/>
      <point x="136" y="155" type="curve" smooth="yes"/>
      <point x="136" y="208"/>
      <point x="165" y="232"/>
      <point x="239" y="240" type="curve" smooth="yes"/>
      <point x="338" y="249" type="line"/>
      <point x="331" y="319" type="line"/>
      <point x="215" y="311" type="line" smooth="yes"/>
      <point x="87" y="302"/>
      <point x="24" y="247"/>
      <point x="24" y="145" type="curve" smooth="yes"/>
      <point x="24" y="54"/>
      <point x="78" y="-5"/>
    </contour>
  </outline>
</glyph>
<glyph name="b" format="1">
  <advance width="509"/>
  <unicode hex="0062"/>
  <outline>
    <contour>
      <point x="231" y="-10" type="curve" smooth="yes"/>
      <point x="412" y="-5"/>
      <point x="475" y="120"/>
      <point x="475" y="285" type="curve" smooth="yes"/>
      <point x="475" y="460"/>
      <point x="417" y="549"/>
      <point x="302" y="549" type="curve" smooth="yes"/>
      <point x="247" y="549"/>
      <point x="198" y="526"/>
      <point x="167" y="486" type="curve"/>
      <point x="167" y="808" type="line"/>
      <point x="55" y="808" type="line"/>
      <point x="55" y="23" type="line"/>
      <point x="118" y="2"/>
      <point x="178" y="-10"/>
    </contour>
    <contour>
      <point x="235" y="69" type="curve" smooth="yes"/>
      <point x="214" y="69"/>
      <point x="190" y="73"/>
      <point x="167" y="80" type="curve"/>
      <point x="167" y="324" type="line" smooth="yes"/>
      <point x="167" y="425"/>
      <point x="209" y="466"/>
      <point x="264" y="466" type="curve" smooth="yes"/>
      <point x="332" y="466"/>
      <point x="360" y="414"/>
      <point x="360" y="273" type="curve" smooth="yes"/>
      <point x="360" y="126"/>
      <point x="322" y="69"/>
    </contour>
  </outline>
</glyph>
<glyph name="c" format="1">
  <advance width="400"/>
  <unicode hex="0063"/>
  <outline>
    <contour>
      <point x="223" y="600" type="move" name="top"/>
    </contour>
    <contour>
      <point x="225" y="0" type="move" name="bottom"/>
    </contour>
    <contour>
      <point x="272" y="-10" type="curve" smooth="yes"/>
      <point x="304" y="-10"/>
      <point x="341" y="-4"/>
      <point x="367" y="5" type="curve"/>
      <point x="367" y="95" type="line"/>
      <point x="335" y="87"/>
      <point x="308" y="83"/>
      <point x="282" y="83" type="curve" smooth="yes"/>
      <point x="190" y="83"/>
      <point x="149" y="141"/>
      <point x="149" y="271" type="curve" smooth="yes"/>
      <point x="149" y="401"/>
      <point x="189" y="457"/>
      <point x="283" y="457" type="curve" smooth="yes"/>
      <point x="308" y="457"/>
      <point x="335" y="453"/>
      <point x="367" y="446" type="curve"/>
      <point x="367" y="536" type="line"/>
      <point x="333" y="545"/>
      <point x="302" y="550"/>
      <point x="272" y="550" type="curve" smooth="yes"/>
      <point x="114" y="550"/>
      <point x="34" y="459"/>
      <point x="34" y="270" type="curve" smooth="yes"/>
      <point x="34" y="79"/>
      <point x="113" y="-10"/>
    </contour>
  </outline>
</glyph>
<glyph name="d" format="1">
  <advance width="510"/>
  <unicode hex="0064"/>
  <outline>
    <contour>
      <point x="534" y="741" type="move" name="caronalt"/>
    </contour>
    <contour>
      <point x="254" y="0" type="move" name="bottom"/>
    </contour>
    <contour>
      <point x="208" y="-9" type="curve" smooth="yes"/>
      <point x="264" y="-9"/>
      <point x="310" y="13"/>
      <point x="341" y="54" type="curve"/>
      <point x="345" y="54" type="line"/>
      <point x="352" y="0" type="line"/>
      <point x="454" y="0" type="line"/>
      <point x="454" y="808" type="line"/>
      <point x="342" y="808" type="line"/>
      <point x="342" y="543" type="line"/>
      <point x="311" y="547"/>
      <point x="293" y="549"/>
      <point x="274" y="549" type="curve" smooth="yes"/>
      <point x="117" y="549"/>
      <point x="34" y="448"/>
      <point x="34" y="260" type="curve" smooth="yes"/>
      <point x="34" y="79"/>
      <point x="91" y="-9"/>
    </contour>
    <contour>
      <point x="244" y="74" type="curve" smooth="yes"/>
      <point x="179" y="74"/>
      <point x="149" y="132"/>
      <point x="149" y="272" type="curve" smooth="yes"/>
      <point x="149" y="414"/>
      <point x="187" y="471"/>
      <point x="271" y="471" type="curve" smooth="yes"/>
      <point x="295" y="471"/>
      <point x="315" y="467"/>
      <point x="342" y="460" type="curve"/>
      <point x="342" y="217" type="line" smooth="yes"/>
      <point x="342" y="116"/>
      <point x="300" y="74"/>
    </contour>
  </outline>
</glyph>
<glyph name="e" format="1">
  <advance width="469"/>
  <unicode hex="0065"/>
  <outline>
    <contour>
      <point x="237" y="600" type="move" name="top"/>
    </contour>
    <contour>
      <point x="418" y="22" type="move" name="ogonek"/>
    </contour>
    <contour>
      <point x="244" y="0" type="move" name="bottom"/>
    </contour>
    <contour>
      <point x="258" y="-9" type="curve" smooth="yes"/>
      <point x="311" y="-9"/>
      <point x="374" y="3"/>
      <point x="418" y="22" type="curve"/>
      <point x="413" y="108" type="line"/>
      <point x="355" y="89"/>
      <point x="304" y="79"/>
      <point x="264" y="79" type="curve" smooth="yes"/>
      <point x="180" y="79"/>
      <point x="146" y="131"/>
      <point x="146" y="266" type="curve" smooth="yes"/>
      <point x="146" y="402"/>
      <point x="181" y="463"/>
      <point x="253" y="463" type="curve" smooth="yes"/>
      <point x="313" y="463"/>
      <point x="336" y="414"/>
      <point x="336" y="290" type="curve"/>
      <point x="351" y="305" type="line"/>
      <point x="86" y="305" type="line"/>
      <point x="86" y="232" type="line"/>
      <point x="433" y="232" type="line"/>
      <point x="436" y="253"/>
      <point x="437" y="270"/>
      <point x="437" y="306" type="curve" smooth="yes"/>
      <point x="437" y="469"/>
      <point x="378" y="549"/>
      <point x="256" y="549" type="curve" smooth="yes"/>
      <point x="110" y="549"/>
      <point x="34" y="450"/>
      <point x="34" y="262" type="curve" smooth="yes"/>
      <point x="34" y="87"/>
      <point x="113" y="-9"/>
    </contour>
  </outline>
</glyph>
<glyph name="h" format="1">
  <advance width="505"/>
  <unicode hex="0068"/>
  <outline>
    <contour>
      <point x="182" y="704" type="move" name="top"/>
    </contour>
    <contour>
      <point x="256" y="0" type="move" name="bottom"/>
    </contour>
    <contour>
      <point x="56" y="0" type="line"/>
      <point x="168" y="0" type="line"/>
      <point x="168" y="408" type="line"/>
      <point x="211" y="436"/>
      <point x="251" y="451"/>
      <point x="283" y="451" type="curve" smooth="yes"/>
      <point x="323" y="451"/>
      <point x="340" y="427"/>
      <point x="340" y="372" type="curve" smooth="yes"/>
      <point x="340" y="0" type="line"/>
      <point x="452" y="0" type="line"/>
      <point x="452" y="407" type="line" smooth="yes"/>
      <point x="452" y="503"/>
      <point x="413" y="550"/>
      <point x="334" y="550" type="curve" smooth="yes"/>
      <point x="282" y="550"/>
      <point x="237" y="532"/>
      <point x="162" y="482" type="curve"/>
      <point x="168" y="478" type="line"/>
      <point x="168" y="808" type="line"/>
      <point x="56" y="808" type="line"/>
    </contour>
  </outline>
</glyph>
<glyph name="j" format="1">
  <advance width="224"/>
  <unicode hex="006A"/>
  <outline>
    <contour>
      <point x="113" y="641" type="curve" smooth="yes"/>
      <point x="158" y="641"/>
      <point x="179" y="662"/>
      <point x="179" y="706" type="curve" smooth="yes"/>
      <point x="179" y="750"/>
      <point x="158" y="770"/>
      <point x="113" y="770" type="curve" smooth="yes"/>
      <point x="67" y="770"/>
      <point x="47" y="750"/>
      <point x="47" y="706" type="curve" smooth="yes"/>
      <point x="47" y="661"/>
      <point x="68" y="641"/>
    </contour>
    <contour>
      <point x="76" y="-220" type="line"/>
      <point x="132" y="-136"/>
      <point x="169" y="-16"/>
      <point x="169" y="82" type="curve" smooth="yes"/>
      <point x="169" y="540" type="line"/>
      <point x="57" y="540" type="line"/>
      <point x="57" y="112" type="line" smooth="yes"/>
      <point x="57" y="-4"/>
      <point x="37" y="-111"/>
      <point x="-1" y="-193" type="curve"/>
    </contour>
  </outline>
</glyph>
<glyph name="k" format="1">
  <advance width="481"/>
  <unicode hex="006B"/>
  <outline>
    <contour>
      <point x="259" y="0" type="move" name="bottom"/>
    </contour>
    <contour>
      <point x="56" y="0" type="line"/>
      <point x="168" y="0" type="line"/>
      <point x="168" y="236" type="line"/>
      <point x="220" y="236" type="line"/>
      <point x="365" y="0" type="line"/>
      <point x="487" y="0" type="line"/>
      <point x="313" y="268" type="line"/>
      <point x="294" y="276" type="line"/>
      <point x="294" y="279" type="line"/>
      <point x="313" y="287" type="line"/>
      <point x="470" y="540" type="line"/>
      <point x="349" y="540" type="line"/>
      <point x="221" y="320" type="line"/>
      <point x="168" y="320" type="line"/>
      <point x="168" y="808" type="line"/>
      <point x="56" y="808" type="line"/>
    </contour>
  </outline>
</glyph>
<glyph name="l" format="1">
  <advance width="226"/>
  <unicode hex="006C"/>
  <outline>
    <contour>
      <point x="114" y="823" type="move" name="top"/>
    </contour>
    <contour>
      <point x="245" y="370" type="move" name="periodcentered"/>
    </contour>
    <contour>
      <point x="245" y="741" type="move" name="caronalt"/>
    </contour>
    <contour>
      <point x="112" y="0" type="move" name="bottom"/>
    </contour>
    <contour>
      <point x="57" y="0" type="line"/>
      <point x="169" y="0" type="line"/>
      <point x="169" y="808" type="line"/>
      <point x="57" y="808" type="line"/>
    </contour>
  </outline>
</glyph>
<glyph name="m" format="1">
  <advance width="779"/>
  <unicode hex="006D"/>
  <outline>
    <contour>
      <point x="56" y="0" type="line"/>
      <point x="165" y="0" type="line"/>
      <point x="165" y="409" type="line"/>
      <point x="206" y="437"/>
      <point x="244" y="451"/>
      <point x="277" y="451" type="curve" smooth="yes"/>
      <point x="318" y="451"/>
      <point x="336" y="427"/>
      <point x="336" y="372" type="curve" smooth="yes"/>
      <point x="336" y="0" type="line"/>
      <point x="446" y="0" type="line"/>
      <point x="446" y="409" type="line"/>
      <point x="487" y="436"/>
      <point x="525" y="451"/>
      <point x="557" y="451" type="curve" smooth="yes"/>
      <point x="598" y="451"/>
      <point x="617" y="427"/>
      <point x="617" y="372" type="curve" smooth="yes"/>
      <point x="617" y="0" type="line"/>
      <point x="726" y="0" type="line"/>
      <point x="726" y="407" type="line" smooth="yes"/>
      <point x="726" y="503"/>
      <point x="687" y="550"/>
      <point x="608" y="550" type="curve" smooth="yes"/>
      <point x="554" y="550"/>
      <point x="507" y="531"/>
      <point x="439" y="481" type="curve"/>
      <point x="434" y="481" type="line"/>
      <point x="417" y="528"/>
      <point x="382" y="550"/>
      <point x="328" y="550" type="curve" smooth="yes"/>
      <point x="275" y="550"/>
      <point x="230" y="532"/>
      <point x="158" y="482" type="curve"/>
      <point x="154" y="482" type="line"/>
      <point x="147" y="540" type="line"/>
      <point x="56" y="540" type="line"/>
    </contour>
  </outline>
</glyph>
<glyph name="o" format="1">
  <advance width="508"/>
  <unicode hex="006F"/>
  <outline>
    <contour>
      <point x="250" y="600" type="move" name="top"/>
    </contour>
    <contour>
      <point x="315" y="9" type="move" name="ogonek"/>
    </contour>
    <contour>
      <point x="254" y="0" type="move" name="bottom"/>
    </contour>
    <contour>
      <point x="254" y="-10" type="curve" smooth="yes"/>
      <point x="399" y="-10"/>
      <point x="475" y="87"/>
      <point x="475" y="270" type="curve" smooth="yes"/>
      <point x="475" y="453"/>
      <point x="399" y="550"/>
      <point x="254" y="550" type="curve" smooth="yes"/>
      <point x="110" y="550"/>
      <point x="34" y="453"/>
      <point x="34" y="270" type="curve" smooth="yes"/>
      <point x="34" y="88"/>
      <point x="110" y="-10"/>
    </contour>
    <contour>
      <point x="254" y="79" type="curve" smooth="yes"/>
      <point x="176" y="79"/>
      <point x="147" y="129"/>
      <point x="147" y="270" type="curve" smooth="yes"/>
      <point x="147" y="412"/>
      <point x="176" y="462"/>
      <point x="254" y="462" type="curve" smooth="yes"/>
      <point x="332" y="462"/>
      <point x="362" y="412"/>
      <point x="362" y="270" type="curve" smooth="yes"/>
      <point x="362" y="129"/>
      <point x="332" y="79"/>
    </contour>
  </outline>
</glyph>
<glyph name="p" format="1">
  <advance width="510"/>
  <unicode hex="0070"/>
  <outline>
    <contour>
      <point x="56" y="-220" type="line"/>
      <point x="168" y="-220" type="line"/>
      <point x="168" y="-3" type="line"/>
      <point x="193" y="-7"/>
      <point x="215" y="-10"/>
      <point x="234" y="-10" type="curve" smooth="yes"/>
      <point x="406" y="-10"/>
      <point x="476" y="114"/>
      <point x="476" y="285" type="curve" smooth="yes"/>
      <point x="476" y="460"/>
      <point x="418" y="549"/>
      <point x="303" y="549" type="curve" smooth="yes"/>
      <point x="247" y="549"/>
      <point x="199" y="526"/>
      <point x="167" y="486" type="curve"/>
      <point x="163" y="486" type="line"/>
      <point x="157" y="540" type="line"/>
      <point x="56" y="540" type="line"/>
    </contour>
    <contour>
      <point x="236" y="69" type="curve" smooth="yes"/>
      <point x="214" y="69"/>
      <point x="191" y="73"/>
      <point x="168" y="80" type="curve"/>
      <point x="168" y="324" type="line" smooth="yes"/>
      <point x="168" y="425"/>
      <point x="210" y="466"/>
      <point x="265" y="466" type="curve" smooth="yes"/>
      <point x="333" y="466"/>
      <point x="361" y="414"/>
      <point x="361" y="273" type="curve" smooth="yes"/>
      <point x="361" y="126"/>
      <point x="323" y="69"/>
    </contour>
  </outline>
</glyph>
<glyph name="r" format="1">
  <advance width="341"/>
  <unicode hex="0072"/>
  <outline>
    <contour>
      <point x="187" y="600" type="move" name="top"/>
    </contour>
    <contour>
      <point x="109" y="0" type="move" name="bottom"/>
    </contour>
    <contour>
      <point x="56" y="0" type="line"/>
      <point x="168" y="0" type="line"/>
      <point x="168" y="391" type="line"/>
      <point x="190" y="412"/>
      <point x="239" y="433"/>
      <point x="285" y="441" type="curve"/>
      <point x="330" y="441" type="line"/>
      <point x="330" y="549" type="line"/>
      <point x="308" y="549" type="line"/>
      <point x="251" y="530"/>
      <point x="182" y="490"/>
      <point x="164" y="469" type="curve"/>
      <point x="158" y="469" type="line"/>
      <point x="151" y="540" type="line"/>
      <point x="56" y="540" type="line"/>
    </contour>
  </outline>
</glyph>
<glyph name="s" format="1">
  <advance width="397"/>
  <unicode hex="0073"/>
  <outline>
    <contour>
      <point x="202" y="600" type="move" name="top"/>
    </contour>
    <contour>
      <point x="195" y="0" type="move" name="bottom"/>
    </contour>
    <contour>
      <point x="183" y="-11" type="curve" smooth="yes"/>
      <point x="298" y="-11"/>
      <point x="368" y="53"/>
      <point x="368" y="155" type="curve" smooth="yes"/>
      <point x="368" y="272"/>
      <point x="296" y="298"/>
      <point x="218" y="317" type="curve" smooth="yes"/>
      <point x="176" y="327"/>
      <point x="143" y="341"/>
      <point x="143" y="393" type="curve" smooth="yes"/>
      <point x="143" y="437"/>
      <point x="176" y="464"/>
      <point x="231" y="464" type="curve" smooth="yes"/>
      <point x="261" y="464"/>
      <point x="288" y="461"/>
      <point x="345" y="447" type="curve"/>
      <point x="345" y="533" type="line"/>
      <point x="292" y="545"/>
      <point x="249" y="551"/>
      <point x="209" y="551" type="curve" smooth="yes"/>
      <point x="102" y="551"/>
      <point x="38" y="490"/>
      <point x="38" y="388" type="curve" smooth="yes"/>
      <point x="38" y="251"/>
      <point x="124" y="238"/>
      <point x="187" y="226" type="curve" smooth="yes"/>
      <point x="239" y="214"/>
      <point x="261" y="190"/>
      <point x="261" y="148" type="curve" smooth="yes"/>
      <point x="261" y="102"/>
      <point x="232" y="75"/>
      <point x="179" y="75" type="curve" smooth="yes"/>
      <point x="133" y="75"/>
      <point x="77" y="85"/>
      <point x="35" y="100" type="curve"/>
      <point x="35" y="14" type="line"/>
      <point x="92" y="-3"/>
      <point x="138" y="-11"/>
    </contour>
  </outline>
</glyph>
<glyph name="t" format="1">
  <advance width="349"/>
  <unicode hex="0074"/>
  <outline>
    <contour>
      <point x="349" y="674" type="move" name="caronalt"/>
    </contour>
    <contour>
      <point x="206" y="0" type="move" name="bottom"/>
    </contour>
    <contour>
      <point x="254" y="-6" type="curve" smooth="yes"/>
      <point x="279" y="-6"/>
      <point x="306" y="-3"/>
      <point x="332" y="4" type="curve"/>
      <point x="332" y="88" type="line"/>
      <point x="315" y="84"/>
      <point x="295" y="81"/>
      <point x="281" y="81" type="curve" smooth="yes"/>
      <point x="236" y="81"/>
      <point x="212" y="108"/>
      <point x="212" y="168" type="curve" smooth="yes"/>
      <point x="212" y="444" type="line"/>
      <point x="334" y="444" type="line"/>
      <point x="334" y="540" type="line"/>
      <point x="211" y="540" type="line"/>
      <point x="211" y="697" type="line"/>
      <point x="121" y="684" type="line"/>
      <point x="106" y="540" type="line"/>
      <point x="11" y="540" type="line"/>
      <point x="11" y="444" type="line"/>
      <point x="100" y="444" type="line"/>
      <point x="100" y="143" type="line" smooth="yes"/>
      <point x="100" y="46"/>
      <point x="152" y="-6"/>
    </contour>
  </outline>
</glyph>
<glyph name="u" format="1">
  <advance width="504"/>
  <unicode hex="0075"/>
  <outline>
    <contour>
      <point x="251" y="600" type="move" name="top"/>
    </contour>
    <contour>
      <point x="449" y="0" type="move" name="ogonek"/>
    </contour>
    <contour>
      <point x="251" y="0" type="move" name="bottom"/>
    </contour>
    <contour>
      <point x="185" y="-10" type="curve" smooth="yes"/>
      <point x="232" y="-10"/>
      <point x="271" y="7"/>
      <point x="343" y="56" type="curve"/>
      <point x="347" y="56" type="line"/>
      <point x="354" y="0" type="line"/>
      <point x="449" y="0" type="line"/>
      <point x="449" y="540" type="line"/>
      <point x="337" y="540" type="line"/>
      <point x="337" y="130" type="line"/>
      <point x="292" y="100"/>
      <point x="260" y="87"/>
      <point x="229" y="87" type="curve" smooth="yes"/>
      <point x="186" y="87"/>
      <point x="164" y="113"/>
      <point x="164" y="166" type="curve" smooth="yes"/>
      <point x="164" y="540" type="line"/>
      <point x="52" y="540" type="line"/>
      <point x="52" y="133" type="line" smooth="yes"/>
      <point x="52" y="39"/>
      <point x="99" y="-10"/>
    </contour>
  </outline>
</glyph>
<glyph name="v" format="1">
  <advance width="489"/>
  <unicode hex="0076"/>
  <outline>
    <contour>
      <point x="177" y="0" type="line"/>
      <point x="312" y="0" type="line"/>
      <point x="482" y="534" type="line"/>
      <point x="482" y="540" type="line"/>
      <point x="367" y="540" type="line"/>
      <point x="260" y="162" type="line"/>
      <point x="248" y="99" type="line"/>
      <point x="241" y="99" type="line"/>
      <point x="230" y="162" type="line"/>
      <point x="123" y="540" type="line"/>
      <point x="8" y="540" type="line"/>
      <point x="8" y="534" type="line"/>
    </contour>
  </outline>
</glyph>
<glyph name="w" format="1">
  <advance width="701"/>
  <unicode hex="0077"/>
  <outline>
    <contour>
      <point x="349" y="600" type="move" name="top"/>
    </contour>
    <contour>
      <point x="132" y="0" type="line"/>
      <point x="258" y="0" type="line"/>
      <point x="337" y="348" type="line"/>
      <point x="346" y="403" type="line"/>
      <point x="355" y="403" type="line"/>
      <point x="364" y="348" type="line"/>
      <point x="443" y="0" type="line"/>
      <point x="569" y="0" type="line"/>
      <point x="683" y="536" type="line"/>
      <point x="683" y="540" type="line"/>
      <point x="579" y="540" type="line"/>
      <point x="514" y="192" type="line"/>
      <point x="503" y="121" type="line"/>
      <point x="493" y="121" type="line"/>
      <point x="479" y="192" type="line"/>
      <point x="402" y="540" type="line"/>
      <point x="299" y="540" type="line"/>
      <point x="222" y="192" type="line"/>
      <point x="208" y="121" type="line"/>
      <point x="198" y="121" type="line"/>
      <point x="187" y="192" type="line"/>
      <point x="122" y="540" type="line"/>
      <point x="18" y="540" type="line"/>
      <point x="18" y="536" type="line"/>
    </contour>
  </outline>
</glyph>
<glyph name="x" format="1">
  <advance width="489"/>
  <unicode hex="0078"/>
  <outline>
    <contour>
      <point x="8" y="0" type="line"/>
      <point x="126" y="0" type="line"/>
      <point x="226" y="186" type="line"/>
      <point x="240" y="220" type="line"/>
      <point x="247" y="220" type="line"/>
      <point x="261" y="186" type="line"/>
      <point x="364" y="0" type="line"/>
      <point x="481" y="0" type="line"/>
      <point x="481" y="10" type="line"/>
      <point x="323" y="271" type="line"/>
      <point x="475" y="533" type="line"/>
      <point x="475" y="540" type="line"/>
      <point x="356" y="540" type="line"/>
      <point x="264" y="373" type="line"/>
      <point x="249" y="340" type="line"/>
      <point x="243" y="340" type="line"/>
      <point x="228" y="373" type="line"/>
      <point x="134" y="540" type="line"/>
      <point x="15" y="540" type="line"/>
      <point x="15" y="533" type="line"/>
      <point x="166" y="281" type="line"/>
      <point x="8" y="10" type="line"/>
    </contour>
  </outline>
</glyph>
<glyph name="z" format="1">
  <advance width="415"/>
  <unicode hex="007A"/>
  <outline>
    <contour>
      <point x="211" y="600" type="move" name="top"/>
    </contour>
    <contour>
      <point x="208" y="0" type="move" name="bottom"/>
    </contour>
    <contour>
      <point x="29" y="0" type="line"/>
      <point x="387" y="0" type="line"/>
      <point x="387" y="88" type="line"/>
      <point x="159" y="88" type="line"/>
      <point x="159" y="94" type="line"/>
      <point x="377" y="464" type="line"/>
      <point x="377" y="540" type="line"/>
      <point x="36" y="540" type="line"/>
      <point x="36" y="452" type="line"/>
      <point x="247" y="452" type="line"/>
      <point x="247" y="446" type="line"/>
      <point x="29" y="77" type="line"/>
    </contour>
  </outline>
</glyph>
<glyph name="braceright" format="1">
  <advance width="329"/>
  <unicode hex="007D"/>
  <outline>
    <contour>
      <point x="311" y="399" type="line"/>
      <point x="262" y="399"/>
      <point x="239" y="435"/>
      <point x="239" y="499" type="curve" smooth="yes"/>
      <point x="239" y="754" type="line" smooth="yes"/>
      <point x="239" y="840"/>
      <point x="211" y="868"/>
      <point x="131" y="868" type="curve" smooth="yes"/>
      <point x="105" y="868"/>
      <point x="35" y="865"/>
      <point x="25" y="863" type="curve"/>
      <point x="25" y="791" type="line"/>
      <point x="95" y="791" type="line" smooth="yes"/>
      <point x="134" y="791"/>
      <point x="147" y="778"/>
      <point x="147" y="741" type="curve" smooth="yes"/>
      <point x="147" y="477" type="line" smooth="yes"/>
      <point x="147" y="417"/>
      <point x="175" y="370"/>
      <point x="216" y="357" type="curve"/>
      <point x="175" y="345"/>
      <point x="147" y="298"/>
      <point x="147" y="239" type="curve" smooth="yes"/>
      <point x="147" y="-27" type="line" smooth="yes"/>
      <point x="147" y="-64"/>
      <point x="134" y="-77"/>
      <point x="95" y="-77" type="curve" smooth="yes"/>
      <point x="25" y="-77" type="line"/>
      <point x="25" y="-149" type="line"/>
      <point x="35" y="-151"/>
      <point x="105" y="-154"/>
      <point x="131" y="-154" type="curve" smooth="yes"/>
      <point x="211" y="-154"/>
      <point x="239" y="-126"/>
      <point x="239" y="-40" type="curve" smooth="yes"/>
      <point x="239" y="217" type="line" smooth="yes"/>
      <point x="239" y="281"/>
      <point x="262" y="316"/>
      <point x="311" y="316" type="curve"/>
    </contour>
  </outline>
</glyph>
<glyph name="asciitilde" format="1">
  <advance width="543"/>
  <unicode hex="007E"/>
  <outline>
    <contour>
      <point x="110" y="233" type="line"/>
      <point x="143" y="284"/>
      <point x="170" y="306"/>
      <point x="199" y="306" type="curve" smooth="yes"/>
      <point x="248" y="306"/>
      <point x="287" y="231"/>
      <point x="358" y="231" type="curve" smooth="yes"/>
      <point x="422" y="231"/>
      <point x="473" y="296"/>
      <point x="502" y="349" type="curve" smooth="yes"/>
      <point x="431" y="389" type="line"/>
      <point x="411" y="345"/>
      <point x="380" y="318"/>
      <point x="349" y="318" type="curve" smooth="yes"/>
      <point x="294" y="318"/>
      <point x="257" y="392"/>
      <point x="190" y="392" type="curve" smooth="yes"/>
      <point x="141" y="392"/>
      <point x="108" y="367"/>
      <point x="42" y="277" type="curve"/>
    </contour>
  </outline>
</glyph>
<glyph name="cent" format="1">
  <advance width="413"/>
  <unicode hex="00A2"/>
  <outline>
    <contour>
      <point x="220" y="-120" type="line"/>
      <point x="295" y="-120" type="line"/>
      <point x="295" y="42" type="line"/>
      <point x="220" y="40" type="line"/>
    </contour>
    <contour>
      <point x="220" y="519" type="line"/>
      <point x="295" y="517" type="line"/>
      <point x="295" y="661" type="line"/>
      <point x="220" y="661" type="line"/>
    </contour>
    <component base="c"/>
  </outline>
</glyph>
<glyph name="yen" format="1">
  <advance width="634"/>
  <unicode hex="00A5"/>
  <outline>
    <contour>
      <point x="99" y="84" type="line"/>
      <point x="535" y="84" type="line"/>
      <point x="535" y="166" type="line"/>
      <point x="99" y="166" type="line"/>
    </contour>
    <contour>
      <point x="99" y="247" type="line"/>
      <point x="535" y="247" type="line"/>
      <point x="535" y="329" type="line"/>
      <point x="99" y="329" type="line"/>
    </contour>
    <component base="Y" xOffset="25"/>
  </outline>
</glyph>
<glyph name="brokenbar" format="1">
  <advance width="234"/>
  <unicode hex="00A6"/>
  <outline>
    <contour>
      <point x="64" y="-220" type="line"/>
      <point x="170" y="-220" type="line"/>
      <point x="170" y="204" type="line"/>
      <point x="64" y="204" type="line"/>
    </contour>
    <contour>
      <point x="64" y="384" type="line"/>
      <point x="170" y="384" type="line"/>
      <point x="170" y="808" type="line"/>
      <point x="64" y="808" type="line"/>
    </contour>
  </outline>
</glyph>
<glyph name="section" format="1">
  <advance width="421"/>
  <unicode hex="00A7"/>
  <outline>
    <contour>
      <point x="193" y="-11" type="curve" smooth="yes"/>
      <point x="308" y="-11"/>
      <point x="379" y="53"/>
      <point x="379" y="155" type="curve" smooth="yes"/>
      <point x="379" y="201"/>
      <point x="367" y="233"/>
      <point x="347" y="257" type="curve"/>
      <point x="367" y="284"/>
      <point x="379" y="318"/>
      <point x="379" y="359" type="curve" smooth="yes"/>
      <point x="379" y="476"/>
      <point x="306" y="502"/>
      <point x="229" y="521" type="curve" smooth="yes"/>
      <point x="187" y="531"/>
      <point x="153" y="545"/>
      <point x="153" y="597" type="curve" smooth="yes"/>
      <point x="153" y="641"/>
      <point x="186" y="668"/>
      <point x="242" y="668" type="curve" smooth="yes"/>
      <point x="272" y="668"/>
      <point x="298" y="665"/>
      <point x="356" y="651" type="curve"/>
      <point x="356" y="737" type="line"/>
      <point x="303" y="749"/>
      <point x="259" y="755"/>
      <point x="220" y="755" type="curve" smooth="yes"/>
      <point x="112" y="755"/>
      <point x="49" y="694"/>
      <point x="49" y="592" type="curve" smooth="yes"/>
      <point x="49" y="544"/>
      <point x="60" y="511"/>
      <point x="78" y="489" type="curve"/>
      <point x="59" y="463"/>
      <point x="49" y="429"/>
      <point x="49" y="388" type="curve" smooth="yes"/>
      <point x="49" y="251"/>
      <point x="135" y="238"/>
      <point x="198" y="226" type="curve" smooth="yes"/>
      <point x="249" y="214"/>
      <point x="272" y="190"/>
      <point x="272" y="148" type="curve" smooth="yes"/>
      <point x="272" y="102"/>
      <point x="242" y="75"/>
      <point x="189" y="75" type="curve" smooth="yes"/>
      <point x="144" y="75"/>
      <point x="88" y="85"/>
      <point x="46" y="100" type="curve"/>
      <point x="46" y="14" type="line"/>
      <point x="102" y="-3"/>
      <point x="149" y="-11"/>
    </contour>
    <contour>
      <point x="262" y="296" type="curve"/>
      <point x="246" y="302"/>
      <point x="228" y="309"/>
      <point x="211" y="315" type="curve" smooth="yes"/>
      <point x="176" y="328"/>
      <point x="148" y="341"/>
      <point x="148" y="393" type="curve" smooth="yes"/>
      <point x="148" y="413"/>
      <point x="157" y="431"/>
      <point x="173" y="446" type="curve"/>
      <point x="189" y="438"/>
      <point x="205" y="433"/>
      <point x="221" y="428" type="curve" smooth="yes"/>
      <point x="260" y="415"/>
      <point x="277" y="391"/>
      <point x="277" y="352" type="curve" smooth="yes"/>
      <point x="277" y="329"/>
      <point x="271" y="310"/>
    </contour>
  </outline>
</glyph>
<glyph name="dieresis" format="1">
  <advance width="429"/>
  <unicode hex="00A8"/>
  <outline>
    <contour>
      <point x="209" y="600" type="move" name="_top"/>
    </contour>
    <contour>
      <point x="108" y="622" type="curve" smooth="yes"/>
      <point x="147" y="622"/>
      <point x="168" y="640"/>
      <point x="168" y="681" type="curve" smooth="yes"/>
      <point x="168" y="721"/>
      <point x="147" y="739"/>
      <point x="108" y="739" type="curve" smooth="yes"/>
      <point x="67" y="739"/>
      <point x="48" y="721"/>
      <point x="48" y="681" type="curve" smooth="yes"/>
      <point x="48" y="640"/>
      <point x="67" y="622"/>
    </contour>
    <contour>
      <point x="311" y="622" type="curve" smooth="yes"/>
      <point x="349" y="622"/>
      <point x="370" y="640"/>
      <point x="370" y="681" type="curve" smooth="yes"/>
      <point x="370" y="721"/>
      <point x="349" y="739"/>
      <point x="311" y="739" type="curve" smooth="yes"/>
      <point x="270" y="739"/>
      <point x="251" y="721"/>
      <point x="251" y="681" type="curve" smooth="yes"/>
      <point x="251" y="640"/>
      <point x="270" y="622"/>
    </contour>
  </outline>
</glyph>
<glyph name="ordfeminine" format="1">
  <advance width="387"/>
  <unicode hex="00AA"/>
  <outline>
    <contour>
      <point x="135" y="348" type="curve" smooth="yes"/>
      <point x="174" y="348"/>
      <point x="214" y="366"/>
      <point x="251" y="399" type="curve"/>
      <point x="255" y="399" type="line"/>
      <point x="260" y="352" type="line"/>
      <point x="337" y="352" type="line"/>
      <point x="337" y="622" type="line" smooth="yes"/>
      <point x="337" y="708"/>
      <point x="293" y="746"/>
      <point x="189" y="746" type="curve" smooth="yes"/>
      <point x="153" y="746"/>
      <point x="111" y="742"/>
      <point x="62" y="733" type="curve"/>
      <point x="69" y="666" type="line"/>
      <point x="112" y="674"/>
      <point x="149" y="676"/>
      <point x="176" y="676" type="curve" smooth="yes"/>
      <point x="233" y="676"/>
      <point x="246" y="662"/>
      <point x="246" y="602" type="curve" smooth="yes"/>
      <point x="246" y="446" type="line"/>
      <point x="213" y="424"/>
      <point x="190" y="413"/>
      <point x="169" y="413" type="curve" smooth="yes"/>
      <point x="138" y="413"/>
      <point x="122" y="431"/>
      <point x="122" y="466" type="curve" smooth="yes"/>
      <point x="122" y="504"/>
      <point x="142" y="519"/>
      <point x="202" y="524" type="curve" smooth="yes"/>
      <point x="268" y="529" type="line"/>
      <point x="263" y="583" type="line"/>
      <point x="164" y="575" type="line" smooth="yes"/>
      <point x="77" y="569"/>
      <point x="32" y="527"/>
      <point x="32" y="458" type="curve" smooth="yes"/>
      <point x="32" y="392"/>
      <point x="73" y="348"/>
    </contour>
  </outline>
</glyph>
<glyph name="registered" format="1">
  <advance width="689"/>
  <unicode hex="00AE"/>
  <outline>
    <contour>
      <point x="234" y="290" type="line"/>
      <point x="291" y="290" type="line"/>
      <point x="291" y="407" type="line"/>
      <point x="356" y="406" type="line"/>
      <point x="423" y="290" type="line"/>
      <point x="485" y="290" type="line"/>
      <point x="408" y="419" type="line"/>
      <point x="409" y="422" type="line"/>
      <point x="452" y="435"/>
      <point x="475" y="469"/>
      <point x="475" y="517" type="curve" smooth="yes"/>
      <point x="475" y="588"/>
      <point x="428" y="622"/>
      <point x="329" y="622" type="curve" smooth="yes"/>
      <point x="301" y="622"/>
      <point x="269" y="619"/>
      <point x="234" y="615" type="curve"/>
    </contour>
    <contour>
      <point x="332" y="453" type="curve" smooth="yes"/>
      <point x="320" y="453"/>
      <point x="298" y="453"/>
      <point x="291" y="454" type="curve"/>
      <point x="291" y="574" type="line"/>
      <point x="304" y="575"/>
      <point x="326" y="576"/>
      <point x="335" y="576" type="curve" smooth="yes"/>
      <point x="394" y="576"/>
      <point x="417" y="556"/>
      <point x="417" y="516" type="curve" smooth="yes"/>
      <point x="417" y="472"/>
      <point x="391" y="453"/>
    </contour>
    <contour>
      <point x="344" y="141" type="curve" smooth="yes"/>
      <point x="525" y="141"/>
      <point x="651" y="268"/>
      <point x="651" y="447" type="curve" smooth="yes"/>
      <point x="651" y="626"/>
      <point x="525" y="753"/>
      <point x="344" y="753" type="curve" smooth="yes"/>
      <point x="163" y="753"/>
      <point x="38" y="626"/>
      <point x="38" y="447" type="curve" smooth="yes"/>
      <point x="38" y="268"/>
      <point x="163" y="141"/>
    </contour>
    <contour>
      <point x="344" y="197" type="curve" smooth="yes"/>
      <point x="195" y="197"/>
      <point x="97" y="299"/>
      <point x="97" y="447" type="curve" smooth="yes"/>
      <point x="97" y="594"/>
      <point x="195" y="697"/>
      <point x="344" y="697" type="curve" smooth="yes"/>
      <point x="493" y="697"/>
      <point x="592" y="594"/>
      <point x="592" y="447" type="curve" smooth="yes"/>
      <point x="592" y="299"/>
      <point x="493" y="197"/>
    </contour>
  </outline>
</glyph>
<glyph name="degree" format="1">
  <advance width="394"/>
  <unicode hex="00B0"/>
  <outline>
    <contour>
      <point x="197" y="371" type="curve" smooth="yes"/>
      <point x="296" y="371"/>
      <point x="362" y="450"/>
      <point x="362" y="560" type="curve" smooth="yes"/>
      <point x="362" y="670"/>
      <point x="296" y="750"/>
      <point x="197" y="750" type="curve" smooth="yes"/>
      <point x="99" y="750"/>
      <point x="32" y="670"/>
      <point x="32" y="560" type="curve" smooth="yes"/>
      <point x="32" y="450"/>
      <point x="99" y="371"/>
    </contour>
    <contour>
      <point x="197" y="437" type="curve" smooth="yes"/>
      <point x="131" y="437"/>
      <point x="97" y="486"/>
      <point x="97" y="560" type="curve" smooth="yes"/>
      <point x="97" y="634"/>
      <point x="131" y="685"/>
      <point x="197" y="685" type="curve" smooth="yes"/>
      <point x="263" y="685"/>
      <point x="297" y="634"/>
      <point x="297" y="560" type="curve" smooth="yes"/>
      <point x="297" y="486"/>
      <point x="263" y="437"/>
    </contour>
  </outline>
</glyph>
<glyph name="acute" format="1">
  <advance width="238"/>
  <unicode hex="00B4"/>
  <outline>
    <contour>
      <point x="73" y="600" type="move" name="_top"/>
    </contour>
    <contour>
      <point x="113" y="610" type="line"/>
      <point x="218" y="803" type="line"/>
      <point x="102" y="803" type="line"/>
      <point x="33" y="618" type="line"/>
    </contour>
  </outline>
</glyph>
<glyph name="periodcentered" format="1">
  <advance width="220"/>
  <unicode hex="00B7"/>
  <outline>
    <contour>
      <point x="110" y="370" type="move" name="_periodcentered"/>
    </contour>
    <contour>
      <point x="110" y="305" type="curve" smooth="yes"/>
      <point x="153" y="305"/>
      <point x="176" y="325"/>
      <point x="176" y="370" type="curve" smooth="yes"/>
      <point x="176" y="416"/>
      <point x="153" y="435"/>
      <point x="110" y="435" type="curve" smooth="yes"/>
      <point x="65" y="435"/>
      <point x="44" y="416"/>
      <point x="44" y="370" type="curve" smooth="yes"/>
      <point x="44" y="325"/>
      <point x="65" y="305"/>
    </contour>
  </outline>
</glyph>
<glyph name="AE" format="1">
  <advance width="787"/>
  <unicode hex="00C6"/>
  <outline>
    <contour>
      <point x="464" y="783" type="move" name="topUC"/>
    </contour>
    <contour>
      <point x="392" y="0" type="line"/>
      <point x="751" y="0" type="line"/>
      <point x="751" y="98" type="line"/>
      <point x="503" y="98" type="line"/>
      <point x="473" y="642" type="line"/>
      <point x="742" y="642" type="line"/>
      <point x="742" y="740" type="line"/>
      <point x="362" y="740" type="line"/>
    </contour>
    <contour>
      <point x="2" y="0" type="line"/>
      <point x="118" y="0" type="line"/>
      <point x="319" y="649" type="line"/>
      <point x="372" y="649" type="line"/>
      <point x="436" y="740" type="line"/>
      <point x="231" y="740" type="line"/>
      <point x="2" y="6" type="line"/>
    </contour>
    <contour>
      <point x="131" y="203" type="line"/>
      <point x="444" y="203" type="line"/>
      <point x="444" y="301" type="line"/>
      <point x="131" y="301" type="line"/>
    </contour>
    <contour>
      <point x="451" y="324" type="line"/>
      <point x="722" y="324" type="line"/>
      <point x="722" y="422" type="line"/>
      <point x="451" y="422" type="line"/>
    </contour>
  </outline>
</glyph>
<glyph name="Eth" format="1">
  <advance width="626"/>
  <unicode hex="00D0"/>
  <outline>
    <contour>
      <point x="-1" y="326" type="line"/>
      <point x="313" y="326" type="line"/>
      <point x="313" y="416" type="line"/>
      <point x="-1" y="416" type="line"/>
    </contour>
    <component base="D" xOffset="18"/>
  </outline>
</glyph>
<glyph name="multiply" format="1">
  <advance width="466"/>
  <unicode hex="00D7"/>
  <outline>
    <contour>
      <point x="367" y="177" type="line"/>
      <point x="427" y="237" type="line"/>
      <point x="99" y="564" type="line"/>
      <point x="40" y="505" type="line"/>
    </contour>
    <contour>
      <point x="99" y="177" type="line"/>
      <point x="427" y="505" type="line"/>
      <point x="367" y="564" type="line"/>
      <point x="40" y="237" type="line"/>
    </contour>
  </outline>
</glyph>
<glyph name="Oslash" format="1">
  <advance width="645"/>
  <unicode hex="00D8"/>
  <outline>
    <contour>
      <point x="321" y="783" type="move" name="topUC"/>
    </contour>
    <contour>
      <point x="322" y="-10" type="curve" smooth="yes"/>
      <point x="512" y="-10"/>
      <point x="604" y="114"/>
      <point x="604" y="369" type="curve" smooth="yes"/>
      <point x="604" y="626"/>
      <point x="512" y="750"/>
      <point x="322" y="750" type="curve" smooth="yes"/>
      <point x="134" y="750"/>
      <point x="42" y="625"/>
      <point x="42" y="369" type="curve" smooth="yes"/>
      <point x="42" y="115"/>
      <point x="134" y="-10"/>
    </contour>
    <contour>
      <point x="322" y="87" type="curve" smooth="yes"/>
      <point x="205" y="87"/>
      <point x="159" y="167"/>
      <point x="159" y="369" type="curve" smooth="yes"/>
      <point x="159" y="573"/>
      <point x="206" y="654"/>
      <point x="322" y="654" type="curve" smooth="yes"/>
      <point x="439" y="654"/>
      <point x="487" y="572"/>
      <point x="487" y="369" type="curve" smooth="yes"/>
      <point x="487" y="167"/>
      <point x="440" y="87"/>
    </contour>
    <contour>
      <point x="12" y="0" type="line"/>
      <point x="102" y="0" type="line"/>
      <point x="634" y="740" type="line"/>
      <point x="545" y="740" type="line"/>
    </contour>
  </outline>
</glyph>
<glyph name="ae" format="1">
  <advance width="745"/>
  <unicode hex="00E6"/>
  <outline>
    <contour>
      <point x="382" y="600" type="move" name="top"/>
    </contour>
    <contour>
      <point x="534" y="-9" type="curve" smooth="yes"/>
      <point x="587" y="-9"/>
      <point x="649" y="3"/>
      <point x="693" y="22" type="curve"/>
      <point x="688" y="108" type="line"/>
      <point x="628" y="88"/>
      <point x="578" y="79"/>
      <point x="540" y="79" type="curve" smooth="yes"/>
      <point x="461" y="79"/>
      <point x="424" y="128"/>
      <point x="421" y="232" type="curve"/>
      <point x="708" y="232" type="line"/>
      <point x="712" y="253"/>
      <point x="713" y="270"/>
      <point x="713" y="306" type="curve" smooth="yes"/>
      <point x="713" y="469"/>
      <point x="653" y="549"/>
      <point x="531" y="549" type="curve" smooth="yes"/>
      <point x="460" y="549"/>
      <point x="407" y="521"/>
      <point x="373" y="467" type="curve"/>
      <point x="366" y="467" type="line"/>
      <point x="345" y="522"/>
      <point x="301" y="548"/>
      <point x="227" y="548" type="curve" smooth="yes"/>
      <point x="183" y="548"/>
      <point x="126" y="542"/>
      <point x="65" y="531" type="curve"/>
      <point x="73" y="446" type="line"/>
      <point x="107" y="455"/>
      <point x="175" y="462"/>
      <point x="209" y="462" type="curve" smooth="yes"/>
      <point x="281" y="462"/>
      <point x="307" y="436"/>
      <point x="308" y="366" type="curve" smooth="yes"/>
      <point x="308" y="317" type="line"/>
      <point x="215" y="311" type="line" smooth="yes"/>
      <point x="88" y="302"/>
      <point x="24" y="247"/>
      <point x="24" y="145" type="curve" smooth="yes"/>
      <point x="24" y="54"/>
      <point x="78" y="-5"/>
      <point x="162" y="-5" type="curve" smooth="yes"/>
      <point x="220" y="-5"/>
      <point x="273" y="21"/>
      <point x="357" y="82" type="curve"/>
      <point x="364" y="81" type="line"/>
      <point x="399" y="22"/>
      <point x="455" y="-9"/>
    </contour>
    <contour>
      <point x="202" y="81" type="curve" smooth="yes"/>
      <point x="160" y="81"/>
      <point x="136" y="107"/>
      <point x="136" y="155" type="curve" smooth="yes"/>
      <point x="136" y="208"/>
      <point x="165" y="233"/>
      <point x="239" y="240" type="curve" smooth="yes"/>
      <point x="308" y="246" type="line"/>
      <point x="308" y="217"/>
      <point x="312" y="156"/>
      <point x="319" y="137" type="curve"/>
      <point x="268" y="103"/>
      <point x="234" y="81"/>
    </contour>
    <contour>
      <point x="421" y="305" type="line"/>
      <point x="426" y="410"/>
      <point x="462" y="463"/>
      <point x="528" y="463" type="curve" smooth="yes"/>
      <point x="585" y="463"/>
      <point x="608" y="418"/>
      <point x="611" y="305" type="curve"/>
    </contour>
  </outline>
</glyph>
<glyph name="eth" format="1">
  <advance width="513"/>
  <unicode hex="00F0"/>
  <outline>
    <contour>
      <point x="254" y="-10" type="curve" smooth="yes"/>
      <point x="399" y="-10"/>
      <point x="475" y="87"/>
      <point x="475" y="270" type="curve" smooth="yes"/>
      <point x="475" y="474"/>
      <point x="419" y="662"/>
      <point x="314" y="808" type="curve"/>
      <point x="198" y="808" type="line"/>
      <point x="261" y="725"/>
      <point x="310" y="619"/>
      <point x="341" y="513" type="curve"/>
      <point x="317" y="539"/>
      <point x="288" y="550"/>
      <point x="254" y="550" type="curve" smooth="yes"/>
      <point x="110" y="550"/>
      <point x="34" y="453"/>
      <point x="34" y="270" type="curve" smooth="yes"/>
      <point x="34" y="88"/>
      <point x="110" y="-10"/>
    </contour>
    <contour>
      <point x="254" y="79" type="curve" smooth="yes"/>
      <point x="176" y="79"/>
      <point x="147" y="128"/>
      <point x="147" y="270" type="curve" smooth="yes"/>
      <point x="147" y="412"/>
      <point x="176" y="462"/>
      <point x="254" y="462" type="curve" smooth="yes"/>
      <point x="344" y="462"/>
      <point x="362" y="383"/>
      <point x="362" y="270" type="curve" smooth="yes"/>
      <point x="362" y="130"/>
      <point x="332" y="79"/>
    </contour>
    <contour>
      <point x="186" y="615" type="line"/>
      <point x="488" y="655" type="line"/>
      <point x="488" y="729" type="line"/>
      <point x="186" y="689" type="line"/>
    </contour>
  </outline>
</glyph>
<glyph name="thorn" format="1">
  <advance width="510"/>
  <unicode hex="00FE"/>
  <outline>
    <contour>
      <point x="56" y="-220" type="line"/>
      <point x="168" y="-220" type="line"/>
      <point x="168" y="-3" type="line"/>
      <point x="193" y="-7"/>
      <point x="215" y="-10"/>
      <point x="234" y="-10" type="curve" smooth="yes"/>
      <point x="392" y="-10"/>
      <point x="476" y="93"/>
      <point x="476" y="285" type="curve" smooth="yes"/>
      <point x="476" y="460"/>
      <point x="418" y="549"/>
      <point x="303" y="549" type="curve" smooth="yes"/>
      <point x="247" y="549"/>
      <point x="192" y="525"/>
      <point x="156" y="475" type="curve"/>
      <point x="168" y="467" type="line"/>
      <point x="168" y="808" type="line"/>
      <point x="56" y="808" type="line"/>
    </contour>
    <contour>
      <point x="236" y="69" type="curve" smooth="yes"/>
      <point x="214" y="69"/>
      <point x="191" y="73"/>
      <point x="168" y="80" type="curve"/>
      <point x="168" y="324" type="line" smooth="yes"/>
      <point x="168" y="425"/>
      <point x="210" y="466"/>
      <point x="265" y="466" type="curve" smooth="yes"/>
      <point x="333" y="466"/>
      <point x="361" y="414"/>
      <point x="361" y="273" type="curve" smooth="yes"/>
      <point x="361" y="126"/>
      <point x="323" y="69"/>
    </contour>
  </outline>
</glyph>
<glyph name="gcommaaccent" format="1">
  <advance width="509"/>
  <unicode hex="0123"/>
  <outline>
    <contour>
      <point x="312" y="794" type="line"/>
      <point x="239" y="644" type="line"/>
      <point x="351" y="644" type="line"/>
      <point x="397" y="794" type="line"/>
    </contour>
    <component base="g"/>
  </outline>
</glyph>
<glyph name="Hbar" format="1">
  <advance width="676"/>
  <unicode hex="0126"/>
  <outline>
    <contour>
      <point x="-1" y="544" type="line"/>
      <point x="682" y="544" type="line"/>
      <point x="682" y="600" type="line"/>
      <point x="-1" y="600" type="line"/>
    </contour>
    <component base="H" xOffset="14"/>
  </outline>
</glyph>
<glyph name="lslash" format="1">
  <advance width="322"/>
  <unicode hex="0142"/>
  <outline>
    <contour>
      <point x="17" y="236" type="line"/>
      <point x="308" y="442" type="line"/>
      <point x="308" y="527" type="line"/>
      <point x="17" y="321" type="line"/>
    </contour>
    <component base="l" xOffset="44"/>
  </outline>
</glyph>
<glyph name="eng" format="1">
  <advance width="504"/>
  <unicode hex="014B"/>
  <outline>
    <contour>
      <point x="370" y="-217" type="line"/>
      <point x="416" y="-144"/>
      <point x="452" y="-10"/>
      <point x="452" y="85" type="curve"/>
      <point x="452" y="407" type="line" smooth="yes"/>
      <point x="452" y="503"/>
      <point x="413" y="550"/>
      <point x="334" y="550" type="curve" smooth="yes"/>
      <point x="281" y="550"/>
      <point x="236" y="532"/>
      <point x="162" y="482" type="curve"/>
      <point x="158" y="482" type="line"/>
      <point x="151" y="540" type="line"/>
      <point x="56" y="540" type="line"/>
      <point x="56" y="0" type="line"/>
      <point x="168" y="0" type="line"/>
      <point x="168" y="408" type="line"/>
      <point x="212" y="437"/>
      <point x="250" y="451"/>
      <point x="283" y="451" type="curve" smooth="yes"/>
      <point x="323" y="451"/>
      <point x="340" y="427"/>
      <point x="340" y="372" type="curve" smooth="yes"/>
      <point x="340" y="88" type="line"/>
      <point x="340" y="3"/>
      <point x="317" y="-118"/>
      <point x="285" y="-200" type="curve"/>
    </contour>
  </outline>
</glyph>
<glyph name="oe" format="1">
  <advance width="798"/>
  <unicode hex="0153"/>
  <outline>
    <contour>
      <point x="587" y="-9" type="curve" smooth="yes"/>
      <point x="640" y="-9"/>
      <point x="703" y="3"/>
      <point x="747" y="22" type="curve"/>
      <point x="742" y="108" type="line"/>
      <point x="684" y="89"/>
      <point x="633" y="79"/>
      <point x="593" y="79" type="curve" smooth="yes"/>
      <point x="516" y="79"/>
      <point x="479" y="126"/>
      <point x="476" y="232" type="curve"/>
      <point x="762" y="232" type="line"/>
      <point x="765" y="253"/>
      <point x="766" y="270"/>
      <point x="766" y="306" type="curve" smooth="yes"/>
      <point x="766" y="469"/>
      <point x="707" y="549"/>
      <point x="585" y="549" type="curve" smooth="yes"/>
      <point x="508" y="549"/>
      <point x="455" y="513"/>
      <point x="423" y="445" type="curve"/>
      <point x="416" y="445" type="line"/>
      <point x="385" y="514"/>
      <point x="332" y="550"/>
      <point x="254" y="550" type="curve" smooth="yes"/>
      <point x="110" y="550"/>
      <point x="34" y="453"/>
      <point x="34" y="270" type="curve" smooth="yes"/>
      <point x="34" y="88"/>
      <point x="110" y="-10"/>
      <point x="254" y="-10" type="curve" smooth="yes"/>
      <point x="331" y="-10"/>
      <point x="384" y="25"/>
      <point x="415" y="93" type="curve"/>
      <point x="422" y="93" type="line"/>
      <point x="454" y="27"/>
      <point x="509" y="-9"/>
    </contour>
    <contour>
      <point x="254" y="79" type="curve" smooth="yes"/>
      <point x="176" y="79"/>
      <point x="147" y="129"/>
      <point x="147" y="270" type="curve" smooth="yes"/>
      <point x="147" y="412"/>
      <point x="176" y="462"/>
      <point x="254" y="462" type="curve" smooth="yes"/>
      <point x="332" y="462"/>
      <point x="362" y="412"/>
      <point x="362" y="270" type="curve" smooth="yes"/>
      <point x="362" y="129"/>
      <point x="332" y="79"/>
    </contour>
    <contour>
      <point x="476" y="305" type="line"/>
      <point x="481" y="411"/>
      <point x="516" y="463"/>
      <point x="582" y="463" type="curve" smooth="yes"/>
      <point x="638" y="463"/>
      <point x="662" y="418"/>
      <point x="665" y="305" type="curve"/>
    </contour>
  </outline>
</glyph>
<glyph name="Tbar" format="1">
  <advance width="509"/>
  <unicode hex="0166"/>
  <outline>
    <contour>
      <point x="87" y="345" type="line"/>
      <point x="417" y="345" type="line"/>
      <point x="417" y="412" type="line"/>
      <point x="87" y="412" type="line"/>
    </contour>
    <component base="T" xOffset="4"/>
  </outline>
</glyph>
<glyph name="tbar" format="1">
  <advance width="355"/>
  <unicode hex="0167"/>
  <outline>
    <contour>
      <point x="21" y="265" type="line"/>
      <point x="316" y="265" type="line"/>
      <point x="316" y="335" type="line"/>
      <point x="21" y="335" type="line"/>
    </contour>
    <component base="t" xOffset="5"/>
  </outline>
</glyph>
<glyph name="Aringacute" format="1">
  <advance width="582"/>
  <unicode hex="01FA"/>
  <outline>
    <contour>
      <point x="3" y="0" type="line"/>
      <point x="111" y="0" type="line"/>
      <point x="168" y="203" type="line"/>
      <point x="413" y="203" type="line"/>
      <point x="471" y="0" type="line"/>
      <point x="579" y="0" type="line"/>
      <point x="579" y="7" type="line"/>
      <point x="393" y="659" type="line"/>
      <point x="411" y="679"/>
      <point x="421" y="707"/>
      <point x="421" y="739" type="curve" smooth="yes"/>
      <point x="421" y="791"/>
      <point x="396" y="833"/>
      <point x="353" y="852" type="curve"/>
      <point x="429" y="970" type="line"/>
      <point x="313" y="970" type="line"/>
      <point x="260" y="864" type="line"/>
      <point x="196" y="854"/>
      <point x="159" y="804"/>
      <point x="159" y="739" type="curve" smooth="yes"/>
      <point x="159" y="706"/>
      <point x="169" y="677"/>
      <point x="188" y="656" type="curve"/>
      <point x="3" y="7" type="line"/>
    </contour>
    <contour>
      <point x="289" y="673" type="curve" smooth="yes"/>
      <point x="251" y="673"/>
      <point x="228" y="701"/>
      <point x="228" y="739" type="curve" smooth="yes"/>
      <point x="228" y="778"/>
      <point x="250" y="805"/>
      <point x="289" y="805" type="curve" smooth="yes"/>
      <point x="328" y="805"/>
      <point x="352" y="778"/>
      <point x="352" y="739" type="curve" smooth="yes"/>
      <point x="352" y="701"/>
      <point x="328" y="673"/>
    </contour>
    <contour>
      <point x="192" y="301" type="line"/>
      <point x="260" y="538" type="line"/>
      <point x="275" y="610" type="line"/>
      <point x="307" y="610" type="line"/>
      <point x="322" y="538" type="line"/>
      <point x="389" y="301" type="line"/>
    </contour>
  </outline>
</glyph>
<glyph name="iinvertedbreve" format="1">
  <advance width="226"/>
  <unicode hex="020B"/>
  <outline>
    <contour>
      <point x="-38" y="622" type="curve"/>
      <point x="42" y="622" type="line"/>
      <point x="43" y="679"/>
      <point x="74" y="706"/>
      <point x="124" y="706" type="curve" smooth="yes"/>
      <point x="173" y="706"/>
      <point x="204" y="678"/>
      <point x="205" y="622" type="curve"/>
      <point x="285" y="622" type="line"/>
      <point x="281" y="718"/>
      <point x="224" y="771"/>
      <point x="124" y="771" type="curve" smooth="yes"/>
      <point x="23" y="771"/>
      <point x="-35" y="718"/>
    </contour>
    <component base="dotlessi" xOffset="1"/>
  </outline>
</glyph>
<glyph name="dotlessj" format="1">
  <advance width="222"/>
  <unicode hex="0237"/>
  <outline>
    <contour>
      <point x="108" y="600" type="move" name="top"/>
    </contour>
    <contour>
      <point x="77" y="-220" type="line"/>
      <point x="133" y="-124"/>
      <point x="162" y="-23"/>
      <point x="167" y="81" type="curve"/>
      <point x="167" y="540" type="line"/>
      <point x="55" y="540" type="line"/>
      <point x="57" y="433"/>
      <point x="58" y="183"/>
      <point x="58" y="150" type="curve" smooth="yes"/>
      <point x="58" y="-9"/>
      <point x="41" y="-90"/>
      <point x="-4" y="-200" type="curve"/>
    </contour>
  </outline>
</glyph>
<glyph name="circumflex" format="1">
  <advance width="366"/>
  <unicode hex="02C6"/>
  <outline>
    <contour>
      <point x="173" y="600" type="move" name="_top"/>
    </contour>
    <contour>
      <point x="32" y="624" type="line"/>
      <point x="178" y="695" type="line"/>
      <point x="324" y="624" type="line"/>
      <point x="324" y="706" type="line"/>
      <point x="178" y="778" type="line"/>
      <point x="32" y="706" type="line"/>
    </contour>
  </outline>
</glyph>
<glyph name="caron" format="1">
  <advance width="362"/>
  <unicode hex="02C7"/>
  <outline>
    <contour>
      <point x="175" y="600" type="move" name="_top"/>
    </contour>
    <contour>
      <point x="32" y="702" type="line"/>
      <point x="178" y="631" type="line"/>
      <point x="324" y="702" type="line"/>
      <point x="324" y="785" type="line"/>
      <point x="178" y="713" type="line"/>
      <point x="32" y="785" type="line"/>
    </contour>
  </outline>
</glyph>
<glyph name="dotaccent" format="1">
  <advance width="239"/>
  <unicode hex="02D9"/>
  <outline>
    <contour>
      <point x="113" y="600" type="move" name="_top"/>
    </contour>
    <contour>
      <point x="113" y="616" type="curve" smooth="yes"/>
      <point x="157" y="616"/>
      <point x="180" y="635"/>
      <point x="180" y="681" type="curve" smooth="yes"/>
      <point x="180" y="726"/>
      <point x="157" y="745"/>
      <point x="113" y="745" type="curve" smooth="yes"/>
      <point x="69" y="745"/>
      <point x="48" y="726"/>
      <point x="48" y="681" type="curve" smooth="yes"/>
      <point x="48" y="636"/>
      <point x="69" y="616"/>
    </contour>
  </outline>
</glyph>
<glyph name="ogonek" format="1">
  <advance width="266"/>
  <unicode hex="02DB"/>
  <outline>
    <contour>
      <point x="218" y="0" type="move" name="_ogonek"/>
    </contour>
    <contour>
      <point x="149" y="-220" type="curve" smooth="yes"/>
      <point x="174" y="-220"/>
      <point x="194" y="-216"/>
      <point x="218" y="-208" type="curve"/>
      <point x="218" y="-138" type="line"/>
      <point x="202" y="-145"/>
      <point x="181" y="-150"/>
      <point x="161" y="-150" type="curve" smooth="yes"/>
      <point x="134" y="-150"/>
      <point x="119" y="-139"/>
      <point x="119" y="-117" type="curve" smooth="yes"/>
      <point x="119" y="-83"/>
      <point x="149" y="-39"/>
      <point x="218" y="-12" type="curve"/>
      <point x="218" y="0" type="line"/>
      <point x="123" y="0" type="line"/>
      <point x="67" y="-40"/>
      <point x="42" y="-79"/>
      <point x="42" y="-127" type="curve" smooth="yes"/>
      <point x="42" y="-188"/>
      <point x="79" y="-220"/>
    </contour>
  </outline>
</glyph>
<glyph name="tilde" format="1">
  <advance width="412"/>
  <unicode hex="02DC"/>
  <outline>
    <contour>
      <point x="194" y="600" type="move" name="_top"/>
    </contour>
    <contour>
      <point x="55" y="627" type="line"/>
      <point x="74" y="653"/>
      <point x="96" y="667"/>
      <point x="119" y="667" type="curve" smooth="yes"/>
      <point x="166" y="667"/>
      <point x="205" y="617"/>
      <point x="256" y="617" type="curve" smooth="yes"/>
      <point x="298" y="617"/>
      <point x="343" y="646"/>
      <point x="370" y="703" type="curve"/>
      <point x="339" y="733" type="line"/>
      <point x="321" y="705"/>
      <point x="302" y="692"/>
      <point x="280" y="692" type="curve" smooth="yes"/>
      <point x="232" y="692"/>
      <point x="193" y="742"/>
      <point x="142" y="742" type="curve" smooth="yes"/>
      <point x="101" y="742"/>
      <point x="56" y="711"/>
      <point x="26" y="659" type="curve"/>
    </contour>
  </outline>
</glyph>
<glyph name="uni030F" format="1">
  <advance width="398"/>
  <unicode hex="030F"/>
  <outline>
    <contour>
      <point x="232" y="600" type="move" name="_top"/>
    </contour>
    <contour>
      <point x="188" y="620" type="line"/>
      <point x="119" y="803" type="line"/>
      <point x="21" y="803" type="line"/>
      <point x="126" y="610" type="line"/>
    </contour>
    <contour>
      <point x="358" y="620" type="line"/>
      <point x="289" y="803" type="line"/>
      <point x="190" y="803" type="line"/>
      <point x="296" y="610" type="line"/>
    </contour>
  </outline>
</glyph>
<glyph name="uni03A9" format="1">
  <advance width="717"/>
  <unicode hex="03A9"/>
  <outline>
    <contour>
      <point x="35" y="0" type="line"/>
      <point x="318" y="0" type="line"/>
      <point x="318" y="82" type="line"/>
      <point x="271" y="119"/>
      <point x="160" y="193"/>
      <point x="160" y="418" type="curve" smooth="yes"/>
      <point x="160" y="564"/>
      <point x="239" y="661"/>
      <point x="359" y="661" type="curve" smooth="yes"/>
      <point x="480" y="661"/>
      <point x="560" y="564"/>
      <point x="560" y="418" type="curve" smooth="yes"/>
      <point x="560" y="193"/>
      <point x="447" y="119"/>
      <point x="400" y="82" type="curve"/>
      <point x="400" y="0" type="line"/>
      <point x="683" y="0" type="line"/>
      <point x="683" y="98" type="line"/>
      <point x="488" y="89" type="line"/>
      <point x="569" y="138"/>
      <point x="672" y="235"/>
      <point x="672" y="418" type="curve" smooth="yes"/>
      <point x="672" y="618"/>
      <point x="548" y="750"/>
      <point x="359" y="750" type="curve" smooth="yes"/>
      <point x="170" y="750"/>
      <point x="46" y="618"/>
      <point x="46" y="418" type="curve" smooth="yes"/>
      <point x="46" y="235"/>
      <point x="147" y="139"/>
      <point x="228" y="90" type="curve"/>
      <point x="35" y="98" type="line"/>
    </contour>
  </outline>
</glyph>
<glyph name="emdash" format="1">
  <advance width="690"/>
  <unicode hex="2014"/>
  <outline>
    <contour>
      <point x="55" y="237" type="line"/>
      <point x="636" y="237" type="line"/>
      <point x="636" y="323" type="line"/>
      <point x="55" y="323" type="line"/>
    </contour>
  </outline>
</glyph>
<glyph name="quoteleft" format="1">
  <advance width="185"/>
  <unicode hex="2018"/>
  <outline>
    <contour>
      <point x="58" y="515" type="curve"/>
      <point x="144" y="525" type="line"/>
      <point x="128" y="570"/>
      <point x="120" y="612"/>
      <point x="120" y="653" type="curve" smooth="yes"/>
      <point x="120" y="701"/>
      <point x="130" y="756"/>
      <point x="149" y="803" type="curve"/>
      <point x="99" y="811" type="line"/>
      <point x="63" y="761"/>
      <point x="39" y="687"/>
      <point x="39" y="619" type="curve" smooth="yes"/>
      <point x="39" y="580"/>
      <point x="44" y="546"/>
    </contour>
  </outline>
</glyph>
<glyph name="quoteright" format="1">
  <advance width="183"/>
  <unicode hex="2019"/>
  <outline>
    <contour>
      <point x="42" y="801" type="line"/>
      <point x="59" y="757"/>
      <point x="67" y="714"/>
      <point x="67" y="674" type="curve" smooth="yes"/>
      <point x="67" y="625"/>
      <point x="56" y="571"/>
      <point x="38" y="523" type="curve"/>
      <point x="88" y="515" type="line"/>
      <point x="123" y="565"/>
      <point x="148" y="639"/>
      <point x="148" y="707" type="curve" smooth="yes"/>
      <point x="148" y="747"/>
      <point x="142" y="781"/>
      <point x="129" y="811" type="curve"/>
    </contour>
  </outline>
</glyph>
<glyph name="bullet" format="1">
  <advance width="307"/>
  <unicode hex="2022"/>
  <outline>
    <contour>
      <point x="154" y="279" type="curve" smooth="yes"/>
      <point x="206" y="279"/>
      <point x="246" y="306"/>
      <point x="246" y="370" type="curve" smooth="yes"/>
      <point x="246" y="434"/>
      <point x="206" y="461"/>
      <point x="154" y="461" type="curve" smooth="yes"/>
      <point x="101" y="461"/>
      <point x="61" y="434"/>
      <point x="61" y="370" type="curve" smooth="yes"/>
      <point x="61" y="306"/>
      <point x="101" y="279"/>
    </contour>
  </outline>
</glyph>
<glyph name="guilsinglleft" format="1">
  <advance width="270"/>
  <unicode hex="2039"/>
  <outline>
    <contour>
      <point x="125" y="30" type="line"/>
      <point x="238" y="30" type="line"/>
      <point x="144" y="268" type="line"/>
      <point x="144" y="272" type="line"/>
      <point x="238" y="510" type="line"/>
      <point x="125" y="510" type="line"/>
      <point x="31" y="272" type="line"/>
      <point x="31" y="268" type="line"/>
    </contour>
  </outline>
</glyph>
<glyph name="guilsinglright" format="1">
  <advance width="270"/>
  <unicode hex="203A"/>
  <outline>
    <contour>
      <point x="240" y="268" type="line"/>
      <point x="240" y="272" type="line"/>
      <point x="146" y="510" type="line"/>
      <point x="33" y="510" type="line"/>
      <point x="127" y="272" type="line"/>
      <point x="127" y="268" type="line"/>
      <point x="33" y="30" type="line"/>
      <point x="146" y="30" type="line"/>
    </contour>
  </outline>
</glyph>
<glyph name="zerosuperior" format="1">
  <advance width="444"/>
  <unicode hex="2070"/>
  <outline>
    <contour>
      <point x="222" y="293" type="curve"/>
      <point x="346" y="293"/>
      <point x="412" y="390"/>
      <point x="412" y="573" type="curve" smooth="yes"/>
      <point x="412" y="756"/>
      <point x="346" y="854"/>
      <point x="222" y="854" type="curve" smooth="yes"/>
      <point x="99" y="854"/>
      <point x="32" y="756"/>
      <point x="32" y="573" type="curve" smooth="yes"/>
      <point x="32" y="390"/>
      <point x="99" y="293"/>
    </contour>
    <contour>
      <point x="222" y="378" type="curve" smooth="yes"/>
      <point x="160" y="378"/>
      <point x="132" y="439"/>
      <point x="132" y="573" type="curve" smooth="yes"/>
      <point x="132" y="707"/>
      <point x="161" y="770"/>
      <point x="222" y="770" type="curve" smooth="yes"/>
      <point x="284" y="770"/>
      <point x="312" y="707"/>
      <point x="312" y="573" type="curve" smooth="yes"/>
      <point x="312" y="438"/>
      <point x="285" y="378"/>
    </contour>
  </outline>
</glyph>
<glyph name="foursuperior" format="1">
  <advance width="398"/>
  <unicode hex="2074"/>
  <outline>
    <contour>
      <point x="226" y="300" type="line"/>
      <point x="325" y="300" type="line"/>
      <point x="325" y="422" type="line"/>
      <point x="379" y="422" type="line"/>
      <point x="379" y="496" type="line"/>
      <point x="325" y="496" type="line"/>
      <point x="325" y="668" type="line"/>
      <point x="262" y="668" type="line"/>
      <point x="235" y="496" type="line"/>
      <point x="109" y="496" type="line"/>
      <point x="280" y="828" type="line"/>
      <point x="275" y="840" type="line"/>
      <point x="193" y="849" type="line"/>
      <point x="182" y="843" type="line"/>
      <point x="12" y="480" type="line"/>
      <point x="28" y="422" type="line"/>
      <point x="226" y="422" type="line"/>
    </contour>
  </outline>
</glyph>
<glyph name="fivesuperior" format="1">
  <advance width="343"/>
  <unicode hex="2075"/>
  <outline>
    <contour>
      <point x="131" y="292" type="curve" smooth="yes"/>
      <point x="250" y="292"/>
      <point x="318" y="355"/>
      <point x="318" y="465" type="curve" smooth="yes"/>
      <point x="318" y="577"/>
      <point x="263" y="625"/>
      <point x="126" y="629" type="curve"/>
      <point x="136" y="763" type="line"/>
      <point x="290" y="763" type="line"/>
      <point x="290" y="846" type="line"/>
      <point x="59" y="846" type="line"/>
      <point x="39" y="563" type="line"/>
      <point x="46" y="557" type="line"/>
      <point x="92" y="557" type="line" smooth="yes"/>
      <point x="186" y="557"/>
      <point x="218" y="532"/>
      <point x="218" y="465" type="curve" smooth="yes"/>
      <point x="218" y="406"/>
      <point x="187" y="374"/>
      <point x="125" y="374" type="curve" smooth="yes"/>
      <point x="105" y="374"/>
      <point x="84" y="377"/>
      <point x="58" y="383" type="curve"/>
      <point x="34" y="383" type="line"/>
      <point x="34" y="304" type="line"/>
      <point x="74" y="296"/>
      <point x="104" y="292"/>
    </contour>
  </outline>
</glyph>
<glyph name="sixsuperior" format="1">
  <advance width="405"/>
  <unicode hex="2076"/>
  <outline>
    <contour>
      <point x="209" y="293" type="curve" smooth="yes"/>
      <point x="314" y="293"/>
      <point x="381" y="367"/>
      <point x="381" y="481" type="curve" smooth="yes"/>
      <point x="381" y="579"/>
      <point x="321" y="640"/>
      <point x="226" y="640" type="curve" smooth="yes"/>
      <point x="191" y="640"/>
      <point x="154" y="627"/>
      <point x="125" y="604" type="curve"/>
      <point x="136" y="717"/>
      <point x="182" y="775"/>
      <point x="261" y="775" type="curve" smooth="yes"/>
      <point x="284" y="775"/>
      <point x="309" y="771"/>
      <point x="343" y="761" type="curve"/>
      <point x="353" y="840" type="line"/>
      <point x="317" y="850"/>
      <point x="286" y="855"/>
      <point x="259" y="855" type="curve" smooth="yes"/>
      <point x="111" y="855"/>
      <point x="32" y="745"/>
      <point x="32" y="545" type="curve" smooth="yes"/>
      <point x="32" y="381"/>
      <point x="94" y="293"/>
    </contour>
    <contour>
      <point x="209" y="377" type="curve" smooth="yes"/>
      <point x="151" y="377"/>
      <point x="124" y="426"/>
      <point x="122" y="532" type="curve"/>
      <point x="147" y="557"/>
      <point x="181" y="574"/>
      <point x="208" y="574" type="curve" smooth="yes"/>
      <point x="262" y="574"/>
      <point x="290" y="542"/>
      <point x="290" y="479" type="curve" smooth="yes"/>
      <point x="290" y="415"/>
      <point x="260" y="377"/>
    </contour>
  </outline>
</glyph>
<glyph name="zeroinferior" format="1">
  <advance width="444"/>
  <unicode hex="2080"/>
  <outline>
    <contour>
      <point x="222" y="-107" type="curve"/>
      <point x="346" y="-107"/>
      <point x="412" y="-10"/>
      <point x="412" y="173" type="curve" smooth="yes"/>
      <point x="412" y="356"/>
      <point x="346" y="454"/>
      <point x="222" y="454" type="curve" smooth="yes"/>
      <point x="99" y="454"/>
      <point x="32" y="356"/>
      <point x="32" y="173" type="curve" smooth="yes"/>
      <point x="32" y="-11"/>
      <point x="99" y="-107"/>
    </contour>
    <contour>
      <point x="222" y="-23" type="curve" smooth="yes"/>
      <point x="160" y="-23"/>
      <point x="132" y="39"/>
      <point x="132" y="173" type="curve" smooth="yes"/>
      <point x="132" y="307"/>
      <point x="161" y="370"/>
      <point x="222" y="370" type="curve" smooth="yes"/>
      <point x="284" y="370"/>
      <point x="312" y="307"/>
      <point x="312" y="173" type="curve" smooth="yes"/>
      <point x="312" y="38"/>
      <point x="285" y="-23"/>
    </contour>
  </outline>
</glyph>
<glyph name="threeinferior" format="1">
  <advance width="345"/>
  <unicode hex="2083"/>
  <outline>
    <contour>
      <point x="130" y="-106" type="curve" smooth="yes"/>
      <point x="246" y="-106"/>
      <point x="315" y="-50"/>
      <point x="315" y="47" type="curve" smooth="yes"/>
      <point x="315" y="117"/>
      <point x="280" y="164"/>
      <point x="214" y="184" type="curve"/>
      <point x="269" y="203"/>
      <point x="300" y="249"/>
      <point x="300" y="315" type="curve" smooth="yes"/>
      <point x="300" y="407"/>
      <point x="244" y="454"/>
      <point x="131" y="454" type="curve" smooth="yes"/>
      <point x="98" y="454"/>
      <point x="66" y="450"/>
      <point x="32" y="441" type="curve"/>
      <point x="37" y="360" type="line"/>
      <point x="47" y="360" type="line"/>
      <point x="77" y="367"/>
      <point x="102" y="370"/>
      <point x="123" y="370" type="curve" smooth="yes"/>
      <point x="176" y="370"/>
      <point x="203" y="344"/>
      <point x="203" y="296" type="curve" smooth="yes"/>
      <point x="203" y="246"/>
      <point x="170" y="218"/>
      <point x="105" y="218" type="curve" smooth="yes"/>
      <point x="81" y="218" type="line"/>
      <point x="81" y="141" type="line"/>
      <point x="105" y="141" type="line" smooth="yes"/>
      <point x="184" y="141"/>
      <point x="218" y="114"/>
      <point x="218" y="55" type="curve" smooth="yes"/>
      <point x="218" y="5"/>
      <point x="185" y="-22"/>
      <point x="118" y="-22" type="curve" smooth="yes"/>
      <point x="93" y="-22"/>
      <point x="66" y="-18"/>
      <point x="45" y="-12" type="curve"/>
      <point x="35" y="-12" type="line"/>
      <point x="35" y="-95" type="line"/>
      <point x="67" y="-103"/>
      <point x="97" y="-106"/>
    </contour>
  </outline>
</glyph>
<glyph name="seveninferior" format="1">
  <advance width="317"/>
  <unicode hex="2087"/>
  <outline>
    <contour>
      <point x="126" y="-110" type="line"/>
      <point x="57" y="-99" type="line"/>
      <point x="47" y="-76" type="line"/>
      <point x="221" y="406" type="line"/>
      <point x="254" y="360" type="line"/>
      <point x="21" y="360" type="line"/>
      <point x="21" y="432" type="line"/>
      <point x="32" y="440" type="line"/>
      <point x="283" y="440" type="line"/>
      <point x="305" y="400" type="line"/>
      <point x="305" y="372" type="line"/>
      <point x="141" y="-99" type="line"/>
    </contour>
  </outline>
</glyph>
<glyph name="nineinferior" format="1">
  <advance width="406"/>
  <unicode hex="2089"/>
  <outline>
    <contour>
      <point x="147" y="-108" type="curve" smooth="yes"/>
      <point x="294" y="-108"/>
      <point x="374" y="2"/>
      <point x="374" y="203" type="curve" smooth="yes"/>
      <point x="374" y="366"/>
      <point x="312" y="455"/>
      <point x="197" y="455" type="curve" smooth="yes"/>
      <point x="91" y="455"/>
      <point x="24" y="381"/>
      <point x="24" y="266" type="curve" smooth="yes"/>
      <point x="24" y="169"/>
      <point x="84" y="107"/>
      <point x="179" y="107" type="curve" smooth="yes"/>
      <point x="214" y="107"/>
      <point x="250" y="120"/>
      <point x="280" y="144" type="curve"/>
      <point x="269" y="31"/>
      <point x="224" y="-28"/>
      <point x="145" y="-28" type="curve" smooth="yes"/>
      <point x="122" y="-28"/>
      <point x="97" y="-24"/>
      <point x="62" y="-14" type="curve"/>
      <point x="53" y="-94" type="line"/>
      <point x="91" y="-103"/>
      <point x="121" y="-108"/>
    </contour>
    <contour>
      <point x="197" y="173" type="curve" smooth="yes"/>
      <point x="144" y="173"/>
      <point x="116" y="206"/>
      <point x="116" y="268" type="curve" smooth="yes"/>
      <point x="116" y="332"/>
      <point x="145" y="371"/>
      <point x="197" y="371" type="curve" smooth="yes"/>
      <point x="254" y="371"/>
      <point x="282" y="322"/>
      <point x="284" y="216" type="curve"/>
      <point x="258" y="190"/>
      <point x="225" y="173"/>
    </contour>
  </outline>
</glyph>
<glyph name="colonmonetary" format="1">
  <advance width="503"/>
  <unicode hex="20A1"/>
  <outline>
    <contour>
      <point x="197" y="-52" type="line"/>
      <point x="265" y="-52" type="line"/>
      <point x="425" y="809" type="line"/>
      <point x="357" y="809" type="line"/>
    </contour>
    <component base="C" xOffset="1"/>
  </outline>
</glyph>
<glyph name="lira" format="1">
  <advance width="552"/>
  <unicode hex="20A4"/>
  <outline>
    <contour>
      <point x="44" y="0" type="line"/>
      <point x="506" y="0" type="line"/>
      <point x="506" y="98" type="line"/>
      <point x="265" y="98" type="line"/>
      <point x="265" y="528" type="line" smooth="yes"/>
      <point x="265" y="618"/>
      <point x="293" y="651"/>
      <point x="369" y="651" type="curve" smooth="yes"/>
      <point x="407" y="651"/>
      <point x="465" y="642"/>
      <point x="512" y="628" type="curve"/>
      <point x="520" y="720" type="line"/>
      <point x="450" y="738"/>
      <point x="396" y="747"/>
      <point x="348" y="747" type="curve" smooth="yes"/>
      <point x="209" y="747"/>
      <point x="151" y="678"/>
      <point x="151" y="531" type="curve" smooth="yes"/>
      <point x="151" y="99" type="line"/>
      <point x="44" y="99" type="line"/>
    </contour>
    <contour>
      <point x="44" y="255" type="line"/>
      <point x="379" y="255" type="line"/>
      <point x="399" y="319" type="line"/>
      <point x="44" y="319" type="line"/>
    </contour>
    <contour>
      <point x="44" y="425" type="line"/>
      <point x="412" y="425" type="line"/>
      <point x="432" y="488" type="line"/>
      <point x="44" y="488" type="line"/>
    </contour>
  </outline>
</glyph>
<glyph name="Euro" format="1">
  <advance width="543"/>
  <unicode hex="20AC"/>
  <outline>
    <contour>
      <point x="416" y="-10" type="curve" smooth="yes"/>
      <point x="451" y="-10"/>
      <point x="480" y="-7"/>
      <point x="503" y="1" type="curve"/>
      <point x="503" y="97" type="line"/>
      <point x="479" y="92"/>
      <point x="452" y="88"/>
      <point x="428" y="88" type="curve" smooth="yes"/>
      <point x="274" y="88"/>
      <point x="219" y="164"/>
      <point x="219" y="369" type="curve" smooth="yes"/>
      <point x="219" y="580"/>
      <point x="273" y="651"/>
      <point x="430" y="651" type="curve" smooth="yes"/>
      <point x="449" y="651"/>
      <point x="465" y="649"/>
      <point x="487" y="647" type="curve"/>
      <point x="510" y="737" type="line"/>
      <point x="483" y="745"/>
      <point x="454" y="749"/>
      <point x="416" y="749" type="curve" smooth="yes"/>
      <point x="204" y="749"/>
      <point x="103" y="630"/>
      <point x="103" y="370" type="curve" smooth="yes"/>
      <point x="103" y="114"/>
      <point x="206" y="-9"/>
    </contour>
    <contour>
      <point x="33" y="251" type="line"/>
      <point x="389" y="251" type="line"/>
      <point x="409" y="320" type="line"/>
      <point x="33" y="320" type="line"/>
    </contour>
    <contour>
      <point x="33" y="419" type="line"/>
      <point x="421" y="419" type="line"/>
      <point x="441" y="488" type="line"/>
      <point x="33" y="488" type="line"/>
    </contour>
  </outline>
</glyph>
<glyph name="uni2113" format="1">
  <advance width="440"/>
  <unicode hex="2113"/>
  <outline>
    <contour>
      <point x="238" y="0" type="curve" smooth="yes"/>
      <point x="297" y="0"/>
      <point x="334" y="50"/>
      <point x="353" y="94" type="curve"/>
      <point x="320" y="107" type="line"/>
      <point x="306" y="74"/>
      <point x="282" y="41"/>
      <point x="261" y="41" type="curve" smooth="yes"/>
      <point x="232" y="41"/>
      <point x="218" y="97"/>
      <point x="218" y="182" type="curve" smooth="yes"/>
      <point x="218" y="220"/>
      <point x="220" y="252"/>
      <point x="223" y="283" type="curve"/>
      <point x="344" y="410"/>
      <point x="429" y="548"/>
      <point x="429" y="674" type="curve" smooth="yes"/>
      <point x="429" y="741"/>
      <point x="410" y="785"/>
      <point x="362" y="785" type="curve" smooth="yes"/>
      <point x="252" y="785"/>
      <point x="184" y="580"/>
      <point x="158" y="271" type="curve"/>
      <point x="113" y="228"/>
      <point x="68" y="191"/>
      <point x="27" y="160" type="curve"/>
      <point x="49" y="130" type="line"/>
      <point x="82" y="155"/>
      <point x="119" y="186"/>
      <point x="155" y="218" type="curve"/>
      <point x="154" y="203"/>
      <point x="154" y="186"/>
      <point x="154" y="166" type="curve" smooth="yes"/>
      <point x="154" y="53"/>
      <point x="180" y="0"/>
    </contour>
    <contour>
      <point x="230" y="349" type="curve"/>
      <point x="250" y="560"/>
      <point x="290" y="693"/>
      <point x="344" y="738" type="curve"/>
      <point x="358" y="730"/>
      <point x="365" y="691"/>
      <point x="365" y="644" type="curve" smooth="yes"/>
      <point x="365" y="556"/>
      <point x="314" y="449"/>
    </contour>
  </outline>
</glyph>
<glyph name="servicemark" format="1">
  <advance width="814"/>
  <unicode hex="2120"/>
  <outline>
    <contour>
      <point x="168" y="313" type="curve" smooth="yes"/>
      <point x="249" y="313"/>
      <point x="299" y="361"/>
      <point x="299" y="438" type="curve" smooth="yes"/>
      <point x="299" y="499"/>
      <point x="272" y="534"/>
      <point x="204" y="561" type="curve" smooth="yes"/>
      <point x="152" y="582"/>
      <point x="130" y="596"/>
      <point x="130" y="626" type="curve" smooth="yes"/>
      <point x="130" y="660"/>
      <point x="153" y="681"/>
      <point x="191" y="681" type="curve" smooth="yes"/>
      <point x="210" y="681"/>
      <point x="244" y="675"/>
      <point x="281" y="666" type="curve"/>
      <point x="285" y="732" type="line"/>
      <point x="248" y="741"/>
      <point x="217" y="746"/>
      <point x="186" y="746" type="curve" smooth="yes"/>
      <point x="104" y="746"/>
      <point x="53" y="700"/>
      <point x="53" y="626" type="curve" smooth="yes"/>
      <point x="53" y="561"/>
      <point x="82" y="524"/>
      <point x="151" y="501" type="curve" smooth="yes"/>
      <point x="204" y="482"/>
      <point x="222" y="464"/>
      <point x="222" y="436" type="curve" smooth="yes"/>
      <point x="222" y="400"/>
      <point x="199" y="380"/>
      <point x="157" y="380" type="curve" smooth="yes"/>
      <point x="128" y="380"/>
      <point x="80" y="391"/>
      <point x="52" y="404" type="curve"/>
      <point x="48" y="336" type="line"/>
      <point x="87" y="321"/>
      <point x="132" y="313"/>
    </contour>
    <contour>
      <point x="360" y="320" type="line"/>
      <point x="433" y="320" type="line"/>
      <point x="433" y="613" type="line"/>
      <point x="526" y="340" type="line"/>
      <point x="592" y="340" type="line"/>
      <point x="685" y="613" type="line"/>
      <point x="685" y="320" type="line"/>
      <point x="758" y="320" type="line"/>
      <point x="758" y="740" type="line"/>
      <point x="657" y="740" type="line"/>
      <point x="559" y="457" type="line"/>
      <point x="461" y="740" type="line"/>
      <point x="360" y="740" type="line"/>
    </contour>
  </outline>
</glyph>
<glyph name="trademark" format="1">
  <advance width="821"/>
  <unicode hex="2122"/>
  <outline>
    <contour>
      <point x="365" y="320" type="line"/>
      <point x="438" y="320" type="line"/>
      <point x="438" y="613" type="line"/>
      <point x="530" y="340" type="line"/>
      <point x="597" y="340" type="line"/>
      <point x="689" y="613" type="line"/>
      <point x="689" y="320" type="line"/>
      <point x="762" y="320" type="line"/>
      <point x="762" y="740" type="line"/>
      <point x="662" y="740" type="line"/>
      <point x="563" y="457" type="line"/>
      <point x="465" y="740" type="line"/>
      <point x="365" y="740" type="line"/>
    </contour>
    <contour>
      <point x="134" y="320" type="line"/>
      <point x="211" y="320" type="line"/>
      <point x="211" y="672" type="line"/>
      <point x="319" y="672" type="line"/>
      <point x="319" y="740" type="line"/>
      <point x="26" y="740" type="line"/>
      <point x="26" y="672" type="line"/>
      <point x="134" y="672" type="line"/>
    </contour>
  </outline>
</glyph>
<glyph name="estimated" format="1">
  <advance width="647"/>
  <unicode hex="212E"/>
  <outline>
    <contour>
      <point x="329" y="1" type="curve" smooth="yes"/>
      <point x="433" y="1"/>
      <point x="512" y="48"/>
      <point x="587" y="154" type="curve"/>
      <point x="547" y="178" type="line"/>
      <point x="495" y="87"/>
      <point x="423" y="42"/>
      <point x="329" y="42" type="curve" smooth="yes"/>
      <point x="265" y="42"/>
      <point x="213" y="64"/>
      <point x="170" y="108" type="curve"/>
      <point x="170" y="313" type="line"/>
      <point x="617" y="313" type="line"/>
      <point x="608" y="504"/>
      <point x="496" y="626"/>
      <point x="329" y="626" type="curve" smooth="yes"/>
      <point x="160" y="626"/>
      <point x="42" y="497"/>
      <point x="42" y="313" type="curve" smooth="yes"/>
      <point x="42" y="135"/>
      <point x="165" y="1"/>
    </contour>
    <contour>
      <point x="170" y="354" type="line"/>
      <point x="170" y="518" type="line"/>
      <point x="213" y="563"/>
      <point x="265" y="586"/>
      <point x="328" y="586" type="curve" smooth="yes"/>
      <point x="389" y="586"/>
      <point x="442" y="563"/>
      <point x="489" y="518" type="curve"/>
      <point x="489" y="354" type="line"/>
    </contour>
  </outline>
</glyph>
<glyph name="arrowright" format="1">
  <advance width="585"/>
  <unicode hex="2192"/>
  <outline>
    <contour>
      <point x="271" y="98" type="line"/>
      <point x="562" y="389" type="line"/>
      <point x="562" y="423" type="line"/>
      <point x="271" y="715" type="line"/>
      <point x="203" y="647" type="line"/>
      <point x="411" y="454" type="line"/>
      <point x="37" y="457" type="line"/>
      <point x="37" y="356" type="line"/>
      <point x="411" y="359" type="line"/>
      <point x="203" y="166" type="line"/>
    </contour>
  </outline>
</glyph>
<glyph name="arrowdown" format="1">
  <advance width="665"/>
  <unicode hex="2193"/>
  <outline>
    <contour>
      <point x="315" y="141" type="line"/>
      <point x="349" y="141" type="line"/>
      <point x="641" y="431" type="line"/>
      <point x="573" y="500" type="line"/>
      <point x="380" y="290" type="line"/>
      <point x="383" y="665" type="line"/>
      <point x="282" y="665" type="line"/>
      <point x="285" y="290" type="line"/>
      <point x="92" y="500" type="line"/>
      <point x="24" y="431" type="line"/>
    </contour>
  </outline>
</glyph>
<glyph name="partialdiff" format="1">
  <advance width="504"/>
  <unicode hex="2202"/>
  <outline>
    <contour>
      <point x="249" y="-4" type="curve" smooth="yes"/>
      <point x="378" y="-4"/>
      <point x="460" y="118"/>
      <point x="460" y="332" type="curve" smooth="yes"/>
      <point x="460" y="601"/>
      <point x="376" y="749"/>
      <point x="227" y="749" type="curve" smooth="yes"/>
      <point x="174" y="749"/>
      <point x="109" y="719"/>
      <point x="71" y="676" type="curve"/>
      <point x="104" y="607" type="line"/>
      <point x="135" y="636"/>
      <point x="185" y="659"/>
      <point x="219" y="659" type="curve" smooth="yes"/>
      <point x="289" y="659"/>
      <point x="331" y="588"/>
      <point x="344" y="446" type="curve"/>
      <point x="308" y="480"/>
      <point x="270" y="501"/>
      <point x="226" y="501" type="curve" smooth="yes"/>
      <point x="110" y="501"/>
      <point x="34" y="400"/>
      <point x="34" y="262" type="curve" smooth="yes"/>
      <point x="34" y="112"/>
      <point x="109" y="-4"/>
    </contour>
    <contour>
      <point x="247" y="81" type="curve" smooth="yes"/>
      <point x="183" y="81"/>
      <point x="146" y="156"/>
      <point x="146" y="262" type="curve" smooth="yes"/>
      <point x="146" y="354"/>
      <point x="193" y="414"/>
      <point x="253" y="414" type="curve" smooth="yes"/>
      <point x="290" y="414"/>
      <point x="320" y="394"/>
      <point x="348" y="363" type="curve"/>
      <point x="348" y="356"/>
      <point x="348" y="327"/>
      <point x="348" y="320" type="curve" smooth="yes"/>
      <point x="348" y="149"/>
      <point x="312" y="81"/>
    </contour>
  </outline>
</glyph>
<glyph name="product" format="1">
  <advance width="671"/>
  <unicode hex="220F"/>
  <outline>
    <contour>
      <point x="73" y="-112" type="line"/>
      <point x="185" y="-112" type="line"/>
      <point x="185" y="642" type="line"/>
      <point x="486" y="642" type="line"/>
      <point x="486" y="-112" type="line"/>
      <point x="598" y="-112" type="line"/>
      <point x="598" y="740" type="line"/>
      <point x="73" y="740" type="line"/>
    </contour>
  </outline>
</glyph>
<glyph name="minus" format="1">
  <advance width="525"/>
  <unicode hex="2212"/>
  <outline>
    <contour>
      <point x="53" y="328" type="line"/>
      <point x="472" y="328" type="line"/>
      <point x="472" y="412" type="line"/>
      <point x="53" y="412" type="line"/>
    </contour>
  </outline>
</glyph>
<glyph name="notequal" format="1">
  <advance width="490"/>
  <unicode hex="2260"/>
  <outline>
    <contour>
      <point x="266" y="603" type="line"/>
      <point x="135" y="113" type="line"/>
      <point x="216" y="92" type="line"/>
      <point x="347" y="582" type="line"/>
    </contour>
    <contour>
      <point x="43" y="202" type="line"/>
      <point x="447" y="202" type="line"/>
      <point x="447" y="288" type="line"/>
      <point x="43" y="288" type="line"/>
    </contour>
    <contour>
      <point x="43" y="419" type="line"/>
      <point x="447" y="419" type="line"/>
      <point x="447" y="505" type="line"/>
      <point x="43" y="505" type="line"/>
    </contour>
  </outline>
</glyph>
<glyph name="greaterequal" format="1">
  <advance width="531"/>
  <unicode hex="2265"/>
  <outline>
    <contour>
      <point x="60" y="202" type="line"/>
      <point x="483" y="363" type="line"/>
      <point x="483" y="427" type="line"/>
      <point x="396" y="412" type="line"/>
      <point x="60" y="295" type="line"/>
    </contour>
    <contour>
      <point x="58" y="512" type="line"/>
      <point x="396" y="394" type="line"/>
      <point x="483" y="379" type="line"/>
      <point x="483" y="444" type="line"/>
      <point x="58" y="604" type="line"/>
    </contour>
    <contour>
      <point x="52" y="71" type="line"/>
      <point x="476" y="71" type="line"/>
      <point x="476" y="155" type="line"/>
      <point x="52" y="155" type="line"/>
    </contour>
  </outline>
</glyph>
<glyph name="A.sc" format="1">
  <advance width="532"/>
  <outline>
    <contour>
      <point x="520" y="0" type="move" name="ogonek"/>
    </contour>
    <contour>
      <point x="270" y="760" type="move" name="topUC"/>
    </contour>
    <contour>
      <point x="7" y="0" type="line"/>
      <point x="109" y="0" type="line"/>
      <point x="158" y="147" type="line"/>
      <point x="374" y="147" type="line"/>
      <point x="423" y="0" type="line"/>
      <point x="526" y="0" type="line"/>
      <point x="526" y="6" type="line"/>
      <point x="347" y="577" type="line"/>
      <point x="186" y="577" type="line"/>
      <point x="7" y="6" type="line"/>
    </contour>
    <contour>
      <point x="176" y="224" type="line"/>
      <point x="238" y="412" type="line"/>
      <point x="261" y="494" type="line"/>
      <point x="271" y="494" type="line"/>
      <point x="294" y="412" type="line"/>
      <point x="355" y="224" type="line"/>
    </contour>
  </outline>
</glyph>
<glyph name="Abreve.sc" format="1">
  <advance width="532"/>
  <outline>
    <contour>
      <point x="267" y="624" type="curve" smooth="yes"/>
      <point x="362" y="624"/>
      <point x="414" y="674"/>
      <point x="414" y="755" type="curve"/>
      <point x="338" y="755" type="line"/>
      <point x="338" y="700"/>
      <point x="317" y="677"/>
      <point x="267" y="677" type="curve" smooth="yes"/>
      <point x="217" y="677"/>
      <point x="196" y="700"/>
      <point x="196" y="755" type="curve"/>
      <point x="120" y="755" type="line"/>
      <point x="120" y="674"/>
      <point x="172" y="624"/>
    </contour>
    <contour>
      <point x="7" y="0" type="line"/>
      <point x="109" y="0" type="line"/>
      <point x="158" y="147" type="line"/>
      <point x="374" y="147" type="line"/>
      <point x="423" y="0" type="line"/>
      <point x="526" y="0" type="line"/>
      <point x="526" y="6" type="line"/>
      <point x="347" y="577" type="line"/>
      <point x="186" y="577" type="line"/>
      <point x="7" y="6" type="line"/>
    </contour>
    <contour>
      <point x="176" y="224" type="line"/>
      <point x="238" y="412" type="line"/>
      <point x="261" y="494" type="line"/>
      <point x="271" y="494" type="line"/>
      <point x="294" y="412" type="line"/>
      <point x="355" y="224" type="line"/>
    </contour>
  </outline>
</glyph>
<glyph name="Adieresis.sc" format="1">
  <advance width="532"/>
  <outline>
    <contour>
      <point x="169" y="627" type="curve" smooth="yes"/>
      <point x="210" y="627"/>
      <point x="231" y="645"/>
      <point x="231" y="686" type="curve" smooth="yes"/>
      <point x="231" y="727"/>
      <point x="210" y="745"/>
      <point x="169" y="745" type="curve" smooth="yes"/>
      <point x="127" y="745"/>
      <point x="108" y="728"/>
      <point x="108" y="686" type="curve" smooth="yes"/>
      <point x="108" y="645"/>
      <point x="127" y="627"/>
    </contour>
    <contour>
      <point x="365" y="627" type="curve" smooth="yes"/>
      <point x="406" y="627"/>
      <point x="427" y="645"/>
      <point x="427" y="686" type="curve" smooth="yes"/>
      <point x="427" y="727"/>
      <point x="406" y="745"/>
      <point x="365" y="745" type="curve" smooth="yes"/>
      <point x="324" y="745"/>
      <point x="304" y="728"/>
      <point x="304" y="686" type="curve" smooth="yes"/>
      <point x="304" y="645"/>
      <point x="324" y="627"/>
    </contour>
    <contour>
      <point x="7" y="0" type="line"/>
      <point x="109" y="0" type="line"/>
      <point x="158" y="147" type="line"/>
      <point x="374" y="147" type="line"/>
      <point x="423" y="0" type="line"/>
      <point x="526" y="0" type="line"/>
      <point x="526" y="6" type="line"/>
      <point x="347" y="577" type="line"/>
      <point x="186" y="577" type="line"/>
      <point x="7" y="6" type="line"/>
    </contour>
    <contour>
      <point x="176" y="224" type="line"/>
      <point x="238" y="412" type="line"/>
      <point x="261" y="494" type="line"/>
      <point x="271" y="494" type="line"/>
      <point x="294" y="412" type="line"/>
      <point x="355" y="224" type="line"/>
    </contour>
  </outline>
</glyph>
<glyph name="Agrave.sc" format="1">
  <advance width="532"/>
  <outline>
    <contour>
      <point x="7" y="0" type="line"/>
      <point x="109" y="0" type="line"/>
      <point x="158" y="147" type="line"/>
      <point x="374" y="147" type="line"/>
      <point x="423" y="0" type="line"/>
      <point x="526" y="0" type="line"/>
      <point x="526" y="6" type="line"/>
      <point x="347" y="577" type="line"/>
      <point x="186" y="577" type="line"/>
      <point x="7" y="6" type="line"/>
    </contour>
    <contour>
      <point x="176" y="224" type="line"/>
      <point x="238" y="412" type="line"/>
      <point x="261" y="494" type="line"/>
      <point x="271" y="494" type="line"/>
      <point x="294" y="412" type="line"/>
      <point x="355" y="224" type="line"/>
    </contour>
    <contour>
      <point x="303" y="624" type="line"/>
      <point x="241" y="750" type="line"/>
      <point x="132" y="750" type="line"/>
      <point x="224" y="616" type="line"/>
    </contour>
  </outline>
</glyph>
<glyph name="Amacron.sc" format="1">
  <advance width="532"/>
  <outline>
    <contour>
      <point x="7" y="0" type="line"/>
      <point x="109" y="0" type="line"/>
      <point x="158" y="147" type="line"/>
      <point x="374" y="147" type="line"/>
      <point x="423" y="0" type="line"/>
      <point x="526" y="0" type="line"/>
      <point x="526" y="6" type="line"/>
      <point x="347" y="577" type="line"/>
      <point x="186" y="577" type="line"/>
      <point x="7" y="6" type="line"/>
    </contour>
    <contour>
      <point x="176" y="224" type="line"/>
      <point x="238" y="412" type="line"/>
      <point x="261" y="494" type="line"/>
      <point x="271" y="494" type="line"/>
      <point x="294" y="412" type="line"/>
      <point x="355" y="224" type="line"/>
    </contour>
    <contour>
      <point x="137" y="654" type="line"/>
      <point x="390" y="654" type="line"/>
      <point x="390" y="727" type="line"/>
      <point x="137" y="727" type="line"/>
    </contour>
  </outline>
</glyph>
<glyph name="Aogonek.sc" format="1">
  <advance width="532"/>
  <outline>
    <contour>
      <point x="462" y="-168" type="curve" smooth="yes"/>
      <point x="484" y="-168"/>
      <point x="503" y="-165"/>
      <point x="525" y="-159" type="curve"/>
      <point x="525" y="-95" type="line"/>
      <point x="511" y="-101"/>
      <point x="490" y="-105"/>
      <point x="472" y="-105" type="curve" smooth="yes"/>
      <point x="450" y="-105"/>
      <point x="437" y="-98"/>
      <point x="437" y="-82" type="curve" smooth="yes"/>
      <point x="437" y="-60"/>
      <point x="461" y="-29"/>
      <point x="525" y="-7" type="curve"/>
      <point x="525" y="6" type="line"/>
      <point x="347" y="577" type="line"/>
      <point x="185" y="577" type="line"/>
      <point x="6" y="6" type="line"/>
      <point x="6" y="0" type="line"/>
      <point x="109" y="0" type="line"/>
      <point x="158" y="147" type="line"/>
      <point x="373" y="147" type="line"/>
      <point x="422" y="0" type="line"/>
      <point x="430" y="0" type="line"/>
      <point x="385" y="-30"/>
      <point x="365" y="-58"/>
      <point x="365" y="-94" type="curve" smooth="yes"/>
      <point x="365" y="-143"/>
      <point x="398" y="-168"/>
    </contour>
    <contour>
      <point x="175" y="224" type="line"/>
      <point x="238" y="416" type="line"/>
      <point x="261" y="494" type="line"/>
      <point x="270" y="494" type="line"/>
      <point x="294" y="416" type="line"/>
      <point x="354" y="224" type="line"/>
    </contour>
  </outline>
</glyph>
<glyph name="Aring.sc" format="1">
  <advance width="532"/>
  <outline>
    <contour>
      <point x="7" y="0" type="line"/>
      <point x="109" y="0" type="line"/>
      <point x="158" y="147" type="line"/>
      <point x="374" y="147" type="line"/>
      <point x="423" y="0" type="line"/>
      <point x="526" y="0" type="line"/>
      <point x="526" y="6" type="line"/>
      <point x="347" y="577" type="line"/>
      <point x="186" y="577" type="line"/>
      <point x="7" y="6" type="line"/>
    </contour>
    <contour>
      <point x="176" y="224" type="line"/>
      <point x="238" y="412" type="line"/>
      <point x="261" y="494" type="line"/>
      <point x="271" y="494" type="line"/>
      <point x="294" y="412" type="line"/>
      <point x="355" y="224" type="line"/>
    </contour>
    <contour>
      <point x="265" y="611" type="curve" smooth="yes"/>
      <point x="323" y="611"/>
      <point x="360" y="649"/>
      <point x="360" y="697" type="curve" smooth="yes"/>
      <point x="360" y="746"/>
      <point x="323" y="783"/>
      <point x="265" y="783" type="curve" smooth="yes"/>
      <point x="207" y="783"/>
      <point x="169" y="746"/>
      <point x="169" y="697" type="curve" smooth="yes"/>
      <point x="169" y="649"/>
      <point x="208" y="611"/>
    </contour>
    <contour>
      <point x="265" y="652" type="curve" smooth="yes"/>
      <point x="230" y="652"/>
      <point x="216" y="667"/>
      <point x="216" y="697" type="curve" smooth="yes"/>
      <point x="216" y="727"/>
      <point x="230" y="743"/>
      <point x="265" y="743" type="curve" smooth="yes"/>
      <point x="299" y="743"/>
      <point x="314" y="727"/>
      <point x="314" y="697" type="curve" smooth="yes"/>
      <point x="314" y="667"/>
      <point x="299" y="652"/>
    </contour>
  </outline>
</glyph>
<glyph name="Aringacute.sc" format="1">
  <advance width="531"/>
  <outline>
    <contour>
      <point x="6" y="0" type="line"/>
      <point x="109" y="0" type="line"/>
      <point x="158" y="147" type="line"/>
      <point x="373" y="147" type="line"/>
      <point x="422" y="0" type="line"/>
      <point x="525" y="0" type="line"/>
      <point x="525" y="6" type="line"/>
      <point x="361" y="519" type="line"/>
      <point x="377" y="536"/>
      <point x="385" y="557"/>
      <point x="385" y="582" type="curve" smooth="yes"/>
      <point x="385" y="624"/>
      <point x="363" y="658"/>
      <point x="324" y="674" type="curve"/>
      <point x="392" y="772" type="line"/>
      <point x="282" y="772" type="line"/>
      <point x="236" y="685" type="line"/>
      <point x="178" y="676"/>
      <point x="145" y="636"/>
      <point x="145" y="582" type="curve" smooth="yes"/>
      <point x="145" y="556"/>
      <point x="153" y="534"/>
      <point x="170" y="517" type="curve"/>
      <point x="6" y="6" type="line"/>
    </contour>
    <contour>
      <point x="264" y="531" type="curve" smooth="yes"/>
      <point x="230" y="531"/>
      <point x="209" y="552"/>
      <point x="209" y="582" type="curve" smooth="yes"/>
      <point x="209" y="613"/>
      <point x="229" y="633"/>
      <point x="264" y="633" type="curve" smooth="yes"/>
      <point x="299" y="633"/>
      <point x="321" y="613"/>
      <point x="321" y="582" type="curve" smooth="yes"/>
      <point x="321" y="552"/>
      <point x="299" y="531"/>
    </contour>
    <contour>
      <point x="176" y="224" type="line"/>
      <point x="238" y="412" type="line"/>
      <point x="252" y="473" type="line"/>
      <point x="279" y="473" type="line"/>
      <point x="294" y="412" type="line"/>
      <point x="355" y="224" type="line"/>
    </contour>
  </outline>
</glyph>
<glyph name="Ccircumflex.sc" format="1">
  <advance width="452"/>
  <outline>
    <contour>
      <point x="307" y="-8" type="curve" smooth="yes"/>
      <point x="352" y="-8"/>
      <point x="394" y="-1"/>
      <point x="420" y="8" type="curve"/>
      <point x="420" y="93" type="line"/>
      <point x="388" y="87"/>
      <point x="348" y="83"/>
      <point x="319" y="83" type="curve" smooth="yes"/>
      <point x="197" y="83"/>
      <point x="149" y="130"/>
      <point x="149" y="288" type="curve" smooth="yes"/>
      <point x="149" y="449"/>
      <point x="195" y="494"/>
      <point x="321" y="494" type="curve" smooth="yes"/>
      <point x="352" y="494"/>
      <point x="388" y="491"/>
      <point x="420" y="486" type="curve"/>
      <point x="420" y="573" type="line"/>
      <point x="378" y="580"/>
      <point x="340" y="585"/>
      <point x="305" y="585" type="curve" smooth="yes"/>
      <point x="123" y="585"/>
      <point x="37" y="494"/>
      <point x="37" y="289" type="curve" smooth="yes"/>
      <point x="37" y="85"/>
      <point x="124" y="-7"/>
    </contour>
    <contour>
      <point x="130" y="623" type="line"/>
      <point x="263" y="679" type="line"/>
      <point x="396" y="623" type="line"/>
      <point x="396" y="697" type="line"/>
      <point x="264" y="753" type="line"/>
      <point x="130" y="697" type="line"/>
    </contour>
  </outline>
</glyph>
<glyph name="D.sc" format="1">
  <advance width="556"/>
  <outline>
    <contour>
      <point x="259" y="760" type="move" name="topUC"/>
    </contour>
    <contour>
      <point x="264" y="0" type="move" name="bottom"/>
    </contour>
    <contour>
      <point x="200" y="-11" type="curve" smooth="yes"/>
      <point x="427" y="-11"/>
      <point x="519" y="74"/>
      <point x="519" y="288" type="curve" smooth="yes"/>
      <point x="519" y="499"/>
      <point x="432" y="585"/>
      <point x="218" y="585" type="curve" smooth="yes"/>
      <point x="177" y="585"/>
      <point x="130" y="581"/>
      <point x="62" y="576" type="curve"/>
      <point x="62" y="-3" type="line"/>
      <point x="117" y="-9"/>
      <point x="160" y="-11"/>
    </contour>
    <contour>
      <point x="235" y="79" type="curve" smooth="yes"/>
      <point x="216" y="79"/>
      <point x="198" y="79"/>
      <point x="169" y="83" type="curve"/>
      <point x="169" y="492" type="line"/>
      <point x="189" y="495"/>
      <point x="210" y="497"/>
      <point x="234" y="497" type="curve" smooth="yes"/>
      <point x="362" y="497"/>
      <point x="407" y="446"/>
      <point x="407" y="289" type="curve" smooth="yes"/>
      <point x="407" y="131"/>
      <point x="358" y="79"/>
    </contour>
  </outline>
</glyph>
<glyph name="E.sc" format="1">
  <advance width="478"/>
  <outline>
    <contour>
      <point x="459" y="0" type="move" name="ogonek"/>
    </contour>
    <contour>
      <point x="268" y="760" type="move" name="topUC"/>
    </contour>
    <contour>
      <point x="288" y="0" type="move" name="bottom"/>
    </contour>
    <contour>
      <point x="63" y="0" type="line"/>
      <point x="444" y="0" type="line"/>
      <point x="444" y="89" type="line"/>
      <point x="171" y="89" type="line"/>
      <point x="171" y="248" type="line"/>
      <point x="409" y="248" type="line"/>
      <point x="409" y="334" type="line"/>
      <point x="171" y="334" type="line"/>
      <point x="171" y="489" type="line"/>
      <point x="437" y="489" type="line"/>
      <point x="437" y="577" type="line"/>
      <point x="63" y="577" type="line"/>
    </contour>
  </outline>
</glyph>
<glyph name="Ecircumflex.sc" format="1">
  <advance width="478"/>
  <outline>
    <contour>
      <point x="63" y="0" type="line"/>
      <point x="444" y="0" type="line"/>
      <point x="444" y="89" type="line"/>
      <point x="171" y="89" type="line"/>
      <point x="171" y="248" type="line"/>
      <point x="409" y="248" type="line"/>
      <point x="409" y="334" type="line"/>
      <point x="171" y="334" type="line"/>
      <point x="171" y="489" type="line"/>
      <point x="437" y="489" type="line"/>
      <point x="437" y="577" type="line"/>
      <point x="63" y="577" type="line"/>
    </contour>
    <contour>
      <point x="120" y="623" type="line"/>
      <point x="252" y="679" type="line"/>
      <point x="385" y="623" type="line"/>
      <point x="385" y="697" type="line"/>
      <point x="253" y="753" type="line"/>
      <point x="120" y="697" type="line"/>
    </contour>
  </outline>
</glyph>
<glyph name="Edieresis.sc" format="1">
  <advance width="478"/>
  <outline>
    <contour>
      <point x="154" y="627" type="curve" smooth="yes"/>
      <point x="194" y="627"/>
      <point x="216" y="645"/>
      <point x="216" y="686" type="curve" smooth="yes"/>
      <point x="216" y="727"/>
      <point x="194" y="745"/>
      <point x="154" y="745" type="curve" smooth="yes"/>
      <point x="111" y="745"/>
      <point x="92" y="728"/>
      <point x="92" y="686" type="curve" smooth="yes"/>
      <point x="92" y="645"/>
      <point x="111" y="627"/>
    </contour>
    <contour>
      <point x="350" y="627" type="curve" smooth="yes"/>
      <point x="391" y="627"/>
      <point x="412" y="645"/>
      <point x="412" y="686" type="curve" smooth="yes"/>
      <point x="412" y="727"/>
      <point x="391" y="745"/>
      <point x="350" y="745" type="curve" smooth="yes"/>
      <point x="308" y="745"/>
      <point x="289" y="728"/>
      <point x="289" y="686" type="curve" smooth="yes"/>
      <point x="289" y="645"/>
      <point x="308" y="627"/>
    </contour>
    <contour>
      <point x="63" y="0" type="line"/>
      <point x="444" y="0" type="line"/>
      <point x="444" y="89" type="line"/>
      <point x="171" y="89" type="line"/>
      <point x="171" y="248" type="line"/>
      <point x="409" y="248" type="line"/>
      <point x="409" y="334" type="line"/>
      <point x="171" y="334" type="line"/>
      <point x="171" y="489" type="line"/>
      <point x="437" y="489" type="line"/>
      <point x="437" y="577" type="line"/>
      <point x="63" y="577" type="line"/>
    </contour>
  </outline>
</glyph>
<glyph name="Edotbelow.sc" format="1">
  <advance width="478"/>
  <outline>
    <contour>
      <point x="261" y="-155" type="curve" smooth="yes"/>
      <point x="296" y="-155"/>
      <point x="314" y="-141"/>
      <point x="314" y="-107" type="curve" smooth="yes"/>
      <point x="314" y="-72"/>
      <point x="296" y="-58"/>
      <point x="261" y="-58" type="curve" smooth="yes"/>
      <point x="225" y="-58"/>
      <point x="209" y="-72"/>
      <point x="209" y="-107" type="curve" smooth="yes"/>
      <point x="209" y="-142"/>
      <point x="225" y="-155"/>
    </contour>
    <contour>
      <point x="63" y="0" type="line"/>
      <point x="444" y="0" type="line"/>
      <point x="444" y="89" type="line"/>
      <point x="171" y="89" type="line"/>
      <point x="171" y="248" type="line"/>
      <point x="409" y="248" type="line"/>
      <point x="409" y="334" type="line"/>
      <point x="171" y="334" type="line"/>
      <point x="171" y="489" type="line"/>
      <point x="437" y="489" type="line"/>
      <point x="437" y="577" type="line"/>
      <point x="63" y="577" type="line"/>
    </contour>
  </outline>
</glyph>
<glyph name="Einvertedbreve.sc" format="1">
  <advance width="478"/>
  <outline>
    <contour>
      <point x="105" y="632" type="curve"/>
      <point x="180" y="632" type="line"/>
      <point x="180" y="686"/>
      <point x="202" y="709"/>
      <point x="252" y="709" type="curve" smooth="yes"/>
      <point x="302" y="709"/>
      <point x="323" y="686"/>
      <point x="323" y="632" type="curve"/>
      <point x="399" y="632" type="line"/>
      <point x="399" y="713"/>
      <point x="346" y="762"/>
      <point x="252" y="762" type="curve" smooth="yes"/>
      <point x="156" y="762"/>
      <point x="105" y="713"/>
    </contour>
    <contour>
      <point x="63" y="0" type="line"/>
      <point x="444" y="0" type="line"/>
      <point x="444" y="89" type="line"/>
      <point x="171" y="89" type="line"/>
      <point x="171" y="248" type="line"/>
      <point x="409" y="248" type="line"/>
      <point x="409" y="334" type="line"/>
      <point x="171" y="334" type="line"/>
      <point x="171" y="489" type="line"/>
      <point x="437" y="489" type="line"/>
      <point x="437" y="577" type="line"/>
      <point x="63" y="577" type="line"/>
    </contour>
  </outline>
</glyph>
<glyph name="Eogonek.sc" format="1">
  <advance width="478"/>
  <outline>
    <contour>
      <point x="382" y="-172" type="curve" smooth="yes"/>
      <point x="404" y="-172"/>
      <point x="423" y="-168"/>
      <point x="445" y="-162" type="curve"/>
      <point x="445" y="-99" type="line"/>
      <point x="431" y="-104"/>
      <point x="410" y="-108"/>
      <point x="392" y="-108" type="curve" smooth="yes"/>
      <point x="369" y="-108"/>
      <point x="357" y="-102"/>
      <point x="357" y="-86" type="curve" smooth="yes"/>
      <point x="357" y="-64"/>
      <point x="382" y="-31"/>
      <point x="445" y="-8" type="curve"/>
      <point x="445" y="89" type="line"/>
      <point x="172" y="89" type="line"/>
      <point x="172" y="248" type="line"/>
      <point x="409" y="248" type="line"/>
      <point x="409" y="334" type="line"/>
      <point x="172" y="334" type="line"/>
      <point x="172" y="489" type="line"/>
      <point x="437" y="489" type="line"/>
      <point x="437" y="577" type="line"/>
      <point x="63" y="577" type="line"/>
      <point x="63" y="0" type="line"/>
      <point x="355" y="0" type="line"/>
      <point x="306" y="-32"/>
      <point x="284" y="-60"/>
      <point x="284" y="-97" type="curve" smooth="yes"/>
      <point x="284" y="-146"/>
      <point x="318" y="-172"/>
    </contour>
  </outline>
</glyph>
<glyph name="Eth.sc" format="1">
  <advance width="572"/>
  <outline>
    <contour>
      <point x="4" y="248" type="line"/>
      <point x="78" y="248" type="line"/>
      <point x="78" y="-3" type="line"/>
      <point x="133" y="-9"/>
      <point x="176" y="-11"/>
      <point x="215" y="-11" type="curve" smooth="yes"/>
      <point x="443" y="-11"/>
      <point x="535" y="74"/>
      <point x="535" y="288" type="curve" smooth="yes"/>
      <point x="535" y="499"/>
      <point x="448" y="585"/>
      <point x="234" y="585" type="curve" smooth="yes"/>
      <point x="193" y="585"/>
      <point x="146" y="581"/>
      <point x="78" y="576" type="curve"/>
      <point x="78" y="332" type="line"/>
      <point x="4" y="332" type="line"/>
    </contour>
    <contour>
      <point x="251" y="79" type="curve" smooth="yes"/>
      <point x="232" y="79"/>
      <point x="213" y="79"/>
      <point x="185" y="83" type="curve"/>
      <point x="185" y="248" type="line"/>
      <point x="285" y="248" type="line"/>
      <point x="285" y="332" type="line"/>
      <point x="185" y="332" type="line"/>
      <point x="185" y="492" type="line"/>
      <point x="206" y="495"/>
      <point x="226" y="497"/>
      <point x="250" y="497" type="curve" smooth="yes"/>
      <point x="377" y="497"/>
      <point x="423" y="446"/>
      <point x="423" y="289" type="curve" smooth="yes"/>
      <point x="423" y="131"/>
      <point x="374" y="79"/>
    </contour>
  </outline>
</glyph>
<glyph name="Euro.tab" format="1">
  <advance width="540"/>
  <outline>
    <contour>
      <point x="30" y="419" type="line"/>
      <point x="102" y="419" type="line"/>
      <point x="101" y="403"/>
      <point x="101" y="387"/>
      <point x="101" y="370" type="curve" smooth="yes"/>
      <point x="101" y="352"/>
      <point x="101" y="336"/>
      <point x="102" y="320" type="curve"/>
      <point x="30" y="320" type="line"/>
      <point x="30" y="251" type="line"/>
      <point x="111" y="251" type="line"/>
      <point x="140" y="75"/>
      <point x="240" y="-9"/>
      <point x="416" y="-10" type="curve" smooth="yes"/>
      <point x="451" y="-10"/>
      <point x="480" y="-7"/>
      <point x="503" y="1" type="curve"/>
      <point x="503" y="97" type="line"/>
      <point x="479" y="92"/>
      <point x="452" y="88"/>
      <point x="428" y="88" type="curve" smooth="yes"/>
      <point x="310" y="88"/>
      <point x="248" y="136"/>
      <point x="227" y="251" type="curve"/>
      <point x="388" y="251" type="line"/>
      <point x="408" y="320" type="line"/>
      <point x="218" y="320" type="line"/>
      <point x="217" y="331"/>
      <point x="217" y="357"/>
      <point x="217" y="369" type="curve"/>
      <point x="217" y="381"/>
      <point x="217" y="409"/>
      <point x="218" y="419" type="curve"/>
      <point x="421" y="419" type="line"/>
      <point x="441" y="488" type="line"/>
      <point x="228" y="488" type="line"/>
      <point x="248" y="606"/>
      <point x="309" y="651"/>
      <point x="430" y="651" type="curve" smooth="yes"/>
      <point x="450" y="651"/>
      <point x="466" y="649"/>
      <point x="488" y="647" type="curve"/>
      <point x="511" y="737" type="line"/>
      <point x="484" y="745"/>
      <point x="455" y="749"/>
      <point x="416" y="749" type="curve" smooth="yes"/>
      <point x="238" y="749"/>
      <point x="139" y="667"/>
      <point x="110" y="488" type="curve"/>
      <point x="30" y="488" type="line"/>
    </contour>
  </outline>
</glyph>
<glyph name="F.sc" format="1">
  <advance width="453"/>
  <outline>
    <contour>
      <point x="63" y="0" type="line"/>
      <point x="171" y="0" type="line"/>
      <point x="171" y="235" type="line"/>
      <point x="403" y="235" type="line"/>
      <point x="403" y="326" type="line"/>
      <point x="171" y="326" type="line"/>
      <point x="171" y="486" type="line"/>
      <point x="425" y="486" type="line"/>
      <point x="425" y="577" type="line"/>
      <point x="63" y="577" type="line"/>
    </contour>
  </outline>
</glyph>
<glyph name="Gbreve.sc" format="1">
  <advance width="517"/>
  <outline>
    <contour>
      <point x="307" y="-8" type="curve" smooth="yes"/>
      <point x="354" y="-8"/>
      <point x="401" y="-4"/>
      <point x="471" y="7" type="curve"/>
      <point x="471" y="293" type="line"/>
      <point x="373" y="293" type="line"/>
      <point x="373" y="86" type="line"/>
      <point x="356" y="84"/>
      <point x="328" y="83"/>
      <point x="319" y="83" type="curve" smooth="yes"/>
      <point x="194" y="83"/>
      <point x="149" y="135"/>
      <point x="149" y="288" type="curve" smooth="yes"/>
      <point x="149" y="442"/>
      <point x="198" y="495"/>
      <point x="340" y="495" type="curve" smooth="yes"/>
      <point x="374" y="495"/>
      <point x="415" y="490"/>
      <point x="466" y="481" type="curve"/>
      <point x="466" y="569" type="line"/>
      <point x="419" y="579"/>
      <point x="367" y="585"/>
      <point x="329" y="585" type="curve" smooth="yes"/>
      <point x="129" y="585"/>
      <point x="37" y="490"/>
      <point x="37" y="289" type="curve" smooth="yes"/>
      <point x="37" y="88"/>
      <point x="122" y="-7"/>
    </contour>
    <contour>
      <point x="298" y="624" type="curve" smooth="yes"/>
      <point x="392" y="624"/>
      <point x="445" y="674"/>
      <point x="445" y="755" type="curve"/>
      <point x="369" y="755" type="line"/>
      <point x="369" y="700"/>
      <point x="347" y="677"/>
      <point x="298" y="677" type="curve" smooth="yes"/>
      <point x="247" y="677"/>
      <point x="226" y="700"/>
      <point x="226" y="755" type="curve"/>
      <point x="151" y="755" type="line"/>
      <point x="151" y="674"/>
      <point x="203" y="624"/>
    </contour>
  </outline>
</glyph>
<glyph name="Gcommaaccent.sc" format="1">
  <advance width="517"/>
  <outline>
    <contour>
      <point x="307" y="-8" type="curve" smooth="yes"/>
      <point x="354" y="-8"/>
      <point x="401" y="-4"/>
      <point x="471" y="7" type="curve"/>
      <point x="471" y="293" type="line"/>
      <point x="373" y="293" type="line"/>
      <point x="373" y="86" type="line"/>
      <point x="356" y="84"/>
      <point x="328" y="83"/>
      <point x="319" y="83" type="curve" smooth="yes"/>
      <point x="194" y="83"/>
      <point x="149" y="135"/>
      <point x="149" y="288" type="curve" smooth="yes"/>
      <point x="149" y="442"/>
      <point x="198" y="495"/>
      <point x="340" y="495" type="curve" smooth="yes"/>
      <point x="374" y="495"/>
      <point x="415" y="490"/>
      <point x="466" y="481" type="curve"/>
      <point x="466" y="569" type="line"/>
      <point x="419" y="579"/>
      <point x="367" y="585"/>
      <point x="329" y="585" type="curve" smooth="yes"/>
      <point x="129" y="585"/>
      <point x="37" y="490"/>
      <point x="37" y="289" type="curve" smooth="yes"/>
      <point x="37" y="88"/>
      <point x="122" y="-7"/>
    </contour>
    <contour>
      <point x="213" y="-172" type="line"/>
      <point x="295" y="-172" type="line"/>
      <point x="361" y="-54" type="line"/>
      <point x="252" y="-54" type="line"/>
    </contour>
  </outline>
</glyph>
<glyph name="Hbar.sc" format="1">
  <advance width="614"/>
  <outline>
    <contour>
      <point x="5" y="422" type="line"/>
      <point x="74" y="422" type="line"/>
      <point x="74" y="0" type="line"/>
      <point x="183" y="0" type="line"/>
      <point x="183" y="249" type="line"/>
      <point x="430" y="249" type="line"/>
      <point x="430" y="0" type="line"/>
      <point x="539" y="0" type="line"/>
      <point x="539" y="422" type="line"/>
      <point x="614" y="422" type="line"/>
      <point x="614" y="474" type="line"/>
      <point x="539" y="474" type="line"/>
      <point x="539" y="577" type="line"/>
      <point x="430" y="577" type="line"/>
      <point x="430" y="474" type="line"/>
      <point x="183" y="474" type="line"/>
      <point x="183" y="577" type="line"/>
      <point x="74" y="577" type="line"/>
      <point x="74" y="474" type="line"/>
      <point x="5" y="474" type="line"/>
    </contour>
    <contour>
      <point x="183" y="341" type="line"/>
      <point x="183" y="422" type="line"/>
      <point x="430" y="422" type="line"/>
      <point x="430" y="341" type="line"/>
    </contour>
  </outline>
</glyph>
<glyph name="Hcircumflex.sc" format="1">
  <advance width="590"/>
  <outline>
    <contour>
      <point x="63" y="0" type="line"/>
      <point x="171" y="0" type="line"/>
      <point x="171" y="249" type="line"/>
      <point x="419" y="249" type="line"/>
      <point x="419" y="0" type="line"/>
      <point x="528" y="0" type="line"/>
      <point x="528" y="577" type="line"/>
      <point x="419" y="577" type="line"/>
      <point x="419" y="341" type="line"/>
      <point x="171" y="341" type="line"/>
      <point x="171" y="577" type="line"/>
      <point x="63" y="577" type="line"/>
    </contour>
    <contour>
      <point x="158" y="623" type="line"/>
      <point x="291" y="679" type="line"/>
      <point x="423" y="623" type="line"/>
      <point x="423" y="697" type="line"/>
      <point x="291" y="753" type="line"/>
      <point x="158" y="697" type="line"/>
    </contour>
  </outline>
</glyph>
<glyph name="Hdotbelow.sc" format="1">
  <advance width="590"/>
  <outline>
    <contour>
      <point x="63" y="0" type="line"/>
      <point x="171" y="0" type="line"/>
      <point x="171" y="249" type="line"/>
      <point x="419" y="249" type="line"/>
      <point x="419" y="0" type="line"/>
      <point x="528" y="0" type="line"/>
      <point x="528" y="577" type="line"/>
      <point x="419" y="577" type="line"/>
      <point x="419" y="341" type="line"/>
      <point x="171" y="341" type="line"/>
      <point x="171" y="577" type="line"/>
      <point x="63" y="577" type="line"/>
    </contour>
    <contour>
      <point x="298" y="-155" type="curve" smooth="yes"/>
      <point x="333" y="-155"/>
      <point x="351" y="-142"/>
      <point x="351" y="-107" type="curve" smooth="yes"/>
      <point x="351" y="-72"/>
      <point x="333" y="-58"/>
      <point x="298" y="-58" type="curve" smooth="yes"/>
      <point x="262" y="-58"/>
      <point x="246" y="-72"/>
      <point x="246" y="-107" type="curve" smooth="yes"/>
      <point x="246" y="-141"/>
      <point x="262" y="-155"/>
    </contour>
  </outline>
</glyph>
<glyph name="Icircumflex.sc" format="1">
  <advance width="234"/>
  <outline>
    <contour>
      <point x="63" y="0" type="line"/>
      <point x="171" y="0" type="line"/>
      <point x="171" y="577" type="line"/>
      <point x="63" y="577" type="line"/>
    </contour>
    <contour>
      <point x="-14" y="623" type="line"/>
      <point x="119" y="679" type="line"/>
      <point x="251" y="623" type="line"/>
      <point x="251" y="697" type="line"/>
      <point x="119" y="753" type="line"/>
      <point x="-14" y="697" type="line"/>
    </contour>
  </outline>
</glyph>
<glyph name="Idblgrave.sc" format="1">
  <advance width="234"/>
  <outline>
    <contour>
      <point x="63" y="0" type="line"/>
      <point x="171" y="0" type="line"/>
      <point x="171" y="577" type="line"/>
      <point x="63" y="577" type="line"/>
    </contour>
    <contour>
      <point x="82" y="624" type="line"/>
      <point x="20" y="750" type="line"/>
      <point x="-73" y="750" type="line"/>
      <point x="21" y="615" type="line"/>
    </contour>
    <contour>
      <point x="229" y="624" type="line"/>
      <point x="167" y="750" type="line"/>
      <point x="74" y="750" type="line"/>
      <point x="168" y="615" type="line"/>
    </contour>
  </outline>
</glyph>
<glyph name="Idieresis.sc" format="1">
  <advance width="234"/>
  <outline>
    <contour>
      <point x="63" y="0" type="line"/>
      <point x="171" y="0" type="line"/>
      <point x="171" y="577" type="line"/>
      <point x="63" y="577" type="line"/>
    </contour>
    <contour>
      <point x="20" y="627" type="curve" smooth="yes"/>
      <point x="61" y="627"/>
      <point x="82" y="645"/>
      <point x="82" y="686" type="curve" smooth="yes"/>
      <point x="82" y="727"/>
      <point x="61" y="745"/>
      <point x="20" y="745" type="curve" smooth="yes"/>
      <point x="-22" y="745"/>
      <point x="-42" y="728"/>
      <point x="-42" y="686" type="curve" smooth="yes"/>
      <point x="-42" y="645"/>
      <point x="-22" y="627"/>
    </contour>
    <contour>
      <point x="216" y="627" type="curve" smooth="yes"/>
      <point x="257" y="627"/>
      <point x="279" y="645"/>
      <point x="279" y="686" type="curve" smooth="yes"/>
      <point x="279" y="727"/>
      <point x="257" y="745"/>
      <point x="216" y="745" type="curve" smooth="yes"/>
      <point x="175" y="745"/>
      <point x="155" y="728"/>
      <point x="155" y="686" type="curve" smooth="yes"/>
      <point x="155" y="645"/>
      <point x="175" y="627"/>
    </contour>
  </outline>
</glyph>
<glyph name="Idotbelow.sc" format="1">
  <advance width="234"/>
  <outline>
    <contour>
      <point x="63" y="0" type="line"/>
      <point x="171" y="0" type="line"/>
      <point x="171" y="577" type="line"/>
      <point x="63" y="577" type="line"/>
    </contour>
    <contour>
      <point x="118" y="-155" type="curve" smooth="yes"/>
      <point x="153" y="-155"/>
      <point x="171" y="-142"/>
      <point x="171" y="-107" type="curve" smooth="yes"/>
      <point x="171" y="-72"/>
      <point x="153" y="-58"/>
      <point x="118" y="-58" type="curve" smooth="yes"/>
      <point x="82" y="-58"/>
      <point x="66" y="-72"/>
      <point x="66" y="-107" type="curve" smooth="yes"/>
      <point x="66" y="-141"/>
      <point x="82" y="-155"/>
    </contour>
  </outline>
</glyph>
<glyph name="Iinvertedbreve.sc" format="1">
  <advance width="234"/>
  <outline>
    <contour>
      <point x="63" y="0" type="line"/>
      <point x="171" y="0" type="line"/>
      <point x="171" y="577" type="line"/>
      <point x="63" y="577" type="line"/>
    </contour>
    <contour>
      <point x="266" y="632" type="line"/>
      <point x="266" y="713"/>
      <point x="213" y="762"/>
      <point x="119" y="762" type="curve" smooth="yes"/>
      <point x="23" y="762"/>
      <point x="-28" y="713"/>
      <point x="-28" y="632" type="curve"/>
      <point x="48" y="632" type="line"/>
      <point x="48" y="686"/>
      <point x="69" y="709"/>
      <point x="119" y="709" type="curve" smooth="yes"/>
      <point x="168" y="709"/>
      <point x="190" y="686"/>
      <point x="190" y="632" type="curve"/>
    </contour>
  </outline>
</glyph>
<glyph name="Itilde.sc" format="1">
  <advance width="234"/>
  <outline>
    <contour>
      <point x="63" y="0" type="line"/>
      <point x="171" y="0" type="line"/>
      <point x="171" y="577" type="line"/>
      <point x="63" y="577" type="line"/>
    </contour>
    <contour>
      <point x="-12" y="638" type="line"/>
      <point x="9" y="659"/>
      <point x="30" y="668"/>
      <point x="52" y="668" type="curve" smooth="yes"/>
      <point x="95" y="668"/>
      <point x="131" y="637"/>
      <point x="177" y="637" type="curve" smooth="yes"/>
      <point x="215" y="637"/>
      <point x="255" y="665"/>
      <point x="282" y="719" type="curve"/>
      <point x="260" y="736" type="line"/>
      <point x="240" y="714"/>
      <point x="221" y="706"/>
      <point x="200" y="706" type="curve" smooth="yes"/>
      <point x="156" y="706"/>
      <point x="121" y="736"/>
      <point x="75" y="736" type="curve" smooth="yes"/>
      <point x="37" y="736"/>
      <point x="-4" y="707"/>
      <point x="-32" y="656" type="curve"/>
    </contour>
  </outline>
</glyph>
<glyph name="Jcircumflex.sc" format="1">
  <advance width="235"/>
  <outline>
    <contour>
      <point x="65" y="-156" type="line"/>
      <point x="144" y="-46"/>
      <point x="174" y="36"/>
      <point x="174" y="141" type="curve" smooth="yes"/>
      <point x="174" y="577" type="line"/>
      <point x="65" y="577" type="line"/>
      <point x="65" y="150" type="line" smooth="yes"/>
      <point x="65" y="42"/>
      <point x="50" y="-18"/>
      <point x="-4" y="-125" type="curve"/>
    </contour>
    <contour>
      <point x="-13" y="623" type="line"/>
      <point x="120" y="679" type="line"/>
      <point x="252" y="623" type="line"/>
      <point x="252" y="697" type="line"/>
      <point x="120" y="753" type="line"/>
      <point x="-13" y="697" type="line"/>
    </contour>
  </outline>
</glyph>
<glyph name="Kcommaaccent.sc" format="1">
  <advance width="537"/>
  <outline>
    <contour>
      <point x="63" y="0" type="line"/>
      <point x="171" y="0" type="line"/>
      <point x="171" y="249" type="line"/>
      <point x="242" y="249" type="line"/>
      <point x="414" y="0" type="line"/>
      <point x="535" y="0" type="line"/>
      <point x="352" y="272" type="line"/>
      <point x="306" y="292" type="line"/>
      <point x="306" y="297" type="line"/>
      <point x="351" y="318" type="line"/>
      <point x="518" y="577" type="line"/>
      <point x="396" y="577" type="line"/>
      <point x="242" y="340" type="line"/>
      <point x="171" y="340" type="line"/>
      <point x="171" y="577" type="line"/>
      <point x="63" y="577" type="line"/>
    </contour>
    <contour>
      <point x="185" y="-172" type="line"/>
      <point x="268" y="-172" type="line"/>
      <point x="334" y="-54" type="line"/>
      <point x="225" y="-54" type="line"/>
    </contour>
  </outline>
</glyph>
<glyph name="L.sc" format="1">
  <advance width="400"/>
  <outline>
    <contour>
      <point x="125" y="760" type="move" name="topUC"/>
    </contour>
    <contour>
      <point x="295" y="370" type="move" name="periodcentered"/>
    </contour>
    <contour>
      <point x="343" y="740" type="move" name="caronalt"/>
    </contour>
    <contour>
      <point x="239" y="0" type="move" name="bottom"/>
    </contour>
    <contour>
      <point x="63" y="0" type="line"/>
      <point x="386" y="0" type="line"/>
      <point x="386" y="92" type="line"/>
      <point x="171" y="92" type="line"/>
      <point x="171" y="577" type="line"/>
      <point x="63" y="577" type="line"/>
    </contour>
  </outline>
</glyph>
<glyph name="Lacute.sc" format="1">
  <advance width="400"/>
  <outline>
    <contour>
      <point x="63" y="0" type="line"/>
      <point x="386" y="0" type="line"/>
      <point x="386" y="92" type="line"/>
      <point x="171" y="92" type="line"/>
      <point x="171" y="577" type="line"/>
      <point x="63" y="577" type="line"/>
    </contour>
    <contour>
      <point x="160" y="616" type="line"/>
      <point x="253" y="750" type="line"/>
      <point x="143" y="750" type="line"/>
      <point x="81" y="621" type="line"/>
    </contour>
  </outline>
</glyph>
<glyph name="Lcaron.sc" format="1">
  <advance width="420"/>
  <outline>
    <contour>
      <point x="63" y="0" type="line"/>
      <point x="387" y="0" type="line"/>
      <point x="387" y="92" type="line"/>
      <point x="172" y="92" type="line"/>
      <point x="172" y="577" type="line"/>
      <point x="63" y="577" type="line"/>
    </contour>
    <contour>
      <point x="319" y="434" type="line"/>
      <point x="374" y="434" type="line"/>
      <point x="405" y="611" type="line"/>
      <point x="319" y="611" type="line"/>
    </contour>
  </outline>
</glyph>
<glyph name="Ldot.sc" format="1">
  <advance width="411"/>
  <outline>
    <contour>
      <point x="63" y="0" type="line"/>
      <point x="386" y="0" type="line"/>
      <point x="386" y="92" type="line"/>
      <point x="171" y="92" type="line"/>
      <point x="171" y="577" type="line"/>
      <point x="63" y="577" type="line"/>
    </contour>
    <contour>
      <point x="317" y="231" type="curve" smooth="yes"/>
      <point x="358" y="231"/>
      <point x="379" y="248"/>
      <point x="379" y="290" type="curve" smooth="yes"/>
      <point x="379" y="332"/>
      <point x="358" y="349"/>
      <point x="317" y="349" type="curve" smooth="yes"/>
      <point x="275" y="349"/>
      <point x="256" y="331"/>
      <point x="256" y="290" type="curve" smooth="yes"/>
      <point x="256" y="249"/>
      <point x="275" y="231"/>
    </contour>
  </outline>
</glyph>
<glyph name="Lslash.sc" format="1">
  <advance width="418"/>
  <outline>
    <contour>
      <point x="15" y="175" type="line"/>
      <point x="81" y="220" type="line"/>
      <point x="81" y="0" type="line"/>
      <point x="404" y="0" type="line"/>
      <point x="404" y="92" type="line"/>
      <point x="189" y="92" type="line"/>
      <point x="189" y="275" type="line"/>
      <point x="279" y="333" type="line"/>
      <point x="279" y="415" type="line"/>
      <point x="189" y="358" type="line"/>
      <point x="189" y="577" type="line"/>
      <point x="81" y="577" type="line"/>
      <point x="81" y="303" type="line"/>
      <point x="15" y="258" type="line"/>
    </contour>
  </outline>
</glyph>
<glyph name="M.sc" format="1">
  <advance width="753"/>
  <outline>
    <contour>
      <point x="63" y="0" type="line"/>
      <point x="164" y="0" type="line"/>
      <point x="164" y="441" type="line"/>
      <point x="170" y="441" type="line"/>
      <point x="206" y="340" type="line"/>
      <point x="328" y="29" type="line"/>
      <point x="424" y="29" type="line"/>
      <point x="547" y="340" type="line"/>
      <point x="583" y="441" type="line"/>
      <point x="589" y="441" type="line"/>
      <point x="589" y="0" type="line"/>
      <point x="690" y="0" type="line"/>
      <point x="690" y="577" type="line"/>
      <point x="538" y="577" type="line"/>
      <point x="403" y="237" type="line"/>
      <point x="379" y="160" type="line"/>
      <point x="373" y="160" type="line"/>
      <point x="350" y="237" type="line"/>
      <point x="215" y="577" type="line"/>
      <point x="63" y="577" type="line"/>
    </contour>
  </outline>
</glyph>
<glyph name="N.sc" format="1">
  <advance width="604"/>
  <outline>
    <contour>
      <point x="338" y="760" type="move" name="topUC"/>
    </contour>
    <contour>
      <point x="353" y="0" type="move" name="bottom"/>
    </contour>
    <contour>
      <point x="63" y="0" type="line"/>
      <point x="160" y="0" type="line"/>
      <point x="160" y="403" type="line"/>
      <point x="167" y="402" type="line"/>
      <point x="209" y="338" type="line"/>
      <point x="449" y="0" type="line"/>
      <point x="541" y="0" type="line"/>
      <point x="541" y="577" type="line"/>
      <point x="444" y="577" type="line"/>
      <point x="444" y="177" type="line"/>
      <point x="437" y="176" type="line"/>
      <point x="395" y="241" type="line"/>
      <point x="155" y="577" type="line"/>
      <point x="63" y="577" type="line"/>
    </contour>
  </outline>
</glyph>
<glyph name="Nacute.sc" format="1">
  <advance width="604"/>
  <outline>
    <contour>
      <point x="63" y="0" type="line"/>
      <point x="160" y="0" type="line"/>
      <point x="160" y="403" type="line"/>
      <point x="167" y="402" type="line"/>
      <point x="209" y="338" type="line"/>
      <point x="449" y="0" type="line"/>
      <point x="541" y="0" type="line"/>
      <point x="541" y="577" type="line"/>
      <point x="444" y="577" type="line"/>
      <point x="444" y="177" type="line"/>
      <point x="437" y="176" type="line"/>
      <point x="395" y="241" type="line"/>
      <point x="155" y="577" type="line"/>
      <point x="63" y="577" type="line"/>
    </contour>
    <contour>
      <point x="333" y="616" type="line"/>
      <point x="426" y="750" type="line"/>
      <point x="316" y="750" type="line"/>
      <point x="254" y="621" type="line"/>
    </contour>
  </outline>
</glyph>
<glyph name="Ncaron.sc" format="1">
  <advance width="604"/>
  <outline>
    <contour>
      <point x="63" y="0" type="line"/>
      <point x="160" y="0" type="line"/>
      <point x="160" y="403" type="line"/>
      <point x="167" y="402" type="line"/>
      <point x="209" y="338" type="line"/>
      <point x="449" y="0" type="line"/>
      <point x="541" y="0" type="line"/>
      <point x="541" y="577" type="line"/>
      <point x="444" y="577" type="line"/>
      <point x="444" y="177" type="line"/>
      <point x="437" y="176" type="line"/>
      <point x="395" y="241" type="line"/>
      <point x="155" y="577" type="line"/>
      <point x="63" y="577" type="line"/>
    </contour>
    <contour>
      <point x="306" y="617" type="line"/>
      <point x="438" y="674" type="line"/>
      <point x="438" y="748" type="line"/>
      <point x="305" y="692" type="line"/>
      <point x="173" y="748" type="line"/>
      <point x="173" y="674" type="line"/>
    </contour>
  </outline>
</glyph>
<glyph name="Ntilde.sc" format="1">
  <advance width="604"/>
  <outline>
    <contour>
      <point x="169" y="638" type="line"/>
      <point x="190" y="659"/>
      <point x="211" y="668"/>
      <point x="233" y="668" type="curve" smooth="yes"/>
      <point x="276" y="668"/>
      <point x="312" y="637"/>
      <point x="358" y="637" type="curve" smooth="yes"/>
      <point x="396" y="637"/>
      <point x="436" y="665"/>
      <point x="463" y="719" type="curve"/>
      <point x="441" y="736" type="line"/>
      <point x="421" y="714"/>
      <point x="402" y="706"/>
      <point x="381" y="706" type="curve" smooth="yes"/>
      <point x="337" y="706"/>
      <point x="302" y="736"/>
      <point x="256" y="736" type="curve" smooth="yes"/>
      <point x="218" y="736"/>
      <point x="177" y="707"/>
      <point x="149" y="656" type="curve"/>
    </contour>
    <contour>
      <point x="63" y="0" type="line"/>
      <point x="160" y="0" type="line"/>
      <point x="160" y="403" type="line"/>
      <point x="167" y="402" type="line"/>
      <point x="209" y="338" type="line"/>
      <point x="449" y="0" type="line"/>
      <point x="541" y="0" type="line"/>
      <point x="541" y="577" type="line"/>
      <point x="444" y="577" type="line"/>
      <point x="444" y="177" type="line"/>
      <point x="437" y="176" type="line"/>
      <point x="395" y="241" type="line"/>
      <point x="155" y="577" type="line"/>
      <point x="63" y="577" type="line"/>
    </contour>
  </outline>
</glyph>
<glyph name="Oacute.sc" format="1">
  <advance width="579"/>
  <outline>
    <contour>
      <point x="290" y="-8" type="curve" smooth="yes"/>
      <point x="460" y="-8"/>
      <point x="543" y="89"/>
      <point x="543" y="288" type="curve" smooth="yes"/>
      <point x="543" y="489"/>
      <point x="460" y="585"/>
      <point x="290" y="585" type="curve" smooth="yes"/>
      <point x="120" y="585"/>
      <point x="37" y="487"/>
      <point x="37" y="288" type="curve" smooth="yes"/>
      <point x="37" y="90"/>
      <point x="120" y="-8"/>
    </contour>
    <contour>
      <point x="290" y="83" type="curve" smooth="yes"/>
      <point x="188" y="83"/>
      <point x="148" y="139"/>
      <point x="148" y="288" type="curve" smooth="yes"/>
      <point x="148" y="439"/>
      <point x="188" y="495"/>
      <point x="290" y="495" type="curve" smooth="yes"/>
      <point x="391" y="495"/>
      <point x="432" y="438"/>
      <point x="432" y="288" type="curve" smooth="yes"/>
      <point x="432" y="139"/>
      <point x="391" y="83"/>
    </contour>
    <contour>
      <point x="324" y="616" type="line"/>
      <point x="418" y="750" type="line"/>
      <point x="308" y="750" type="line"/>
      <point x="246" y="621" type="line"/>
    </contour>
  </outline>
</glyph>
<glyph name="Obreve.sc" format="1">
  <advance width="579"/>
  <outline>
    <contour>
      <point x="290" y="-8" type="curve" smooth="yes"/>
      <point x="460" y="-8"/>
      <point x="543" y="89"/>
      <point x="543" y="288" type="curve" smooth="yes"/>
      <point x="543" y="489"/>
      <point x="460" y="585"/>
      <point x="290" y="585" type="curve" smooth="yes"/>
      <point x="120" y="585"/>
      <point x="37" y="487"/>
      <point x="37" y="288" type="curve" smooth="yes"/>
      <point x="37" y="90"/>
      <point x="120" y="-8"/>
    </contour>
    <contour>
      <point x="290" y="83" type="curve" smooth="yes"/>
      <point x="188" y="83"/>
      <point x="148" y="139"/>
      <point x="148" y="288" type="curve" smooth="yes"/>
      <point x="148" y="439"/>
      <point x="188" y="495"/>
      <point x="290" y="495" type="curve" smooth="yes"/>
      <point x="391" y="495"/>
      <point x="432" y="438"/>
      <point x="432" y="288" type="curve" smooth="yes"/>
      <point x="432" y="139"/>
      <point x="391" y="83"/>
    </contour>
    <contour>
      <point x="290" y="624" type="curve" smooth="yes"/>
      <point x="385" y="624"/>
      <point x="437" y="674"/>
      <point x="437" y="755" type="curve"/>
      <point x="362" y="755" type="line"/>
      <point x="362" y="700"/>
      <point x="340" y="677"/>
      <point x="290" y="677" type="curve" smooth="yes"/>
      <point x="240" y="677"/>
      <point x="219" y="700"/>
      <point x="219" y="755" type="curve"/>
      <point x="144" y="755" type="line"/>
      <point x="144" y="674"/>
      <point x="195" y="624"/>
    </contour>
  </outline>
</glyph>
<glyph name="Odieresis.sc" format="1">
  <advance width="579"/>
  <outline>
    <contour>
      <point x="290" y="-8" type="curve" smooth="yes"/>
      <point x="460" y="-8"/>
      <point x="543" y="89"/>
      <point x="543" y="288" type="curve" smooth="yes"/>
      <point x="543" y="489"/>
      <point x="460" y="585"/>
      <point x="290" y="585" type="curve" smooth="yes"/>
      <point x="120" y="585"/>
      <point x="37" y="487"/>
      <point x="37" y="288" type="curve" smooth="yes"/>
      <point x="37" y="90"/>
      <point x="120" y="-8"/>
    </contour>
    <contour>
      <point x="290" y="83" type="curve" smooth="yes"/>
      <point x="188" y="83"/>
      <point x="148" y="139"/>
      <point x="148" y="288" type="curve" smooth="yes"/>
      <point x="148" y="439"/>
      <point x="188" y="495"/>
      <point x="290" y="495" type="curve" smooth="yes"/>
      <point x="391" y="495"/>
      <point x="432" y="438"/>
      <point x="432" y="288" type="curve" smooth="yes"/>
      <point x="432" y="139"/>
      <point x="391" y="83"/>
    </contour>
    <contour>
      <point x="191" y="627" type="curve" smooth="yes"/>
      <point x="232" y="627"/>
      <point x="253" y="645"/>
      <point x="253" y="686" type="curve" smooth="yes"/>
      <point x="253" y="727"/>
      <point x="232" y="745"/>
      <point x="191" y="745" type="curve" smooth="yes"/>
      <point x="149" y="745"/>
      <point x="130" y="728"/>
      <point x="130" y="686" type="curve" smooth="yes"/>
      <point x="130" y="645"/>
      <point x="149" y="627"/>
    </contour>
    <contour>
      <point x="388" y="627" type="curve" smooth="yes"/>
      <point x="428" y="627"/>
      <point x="450" y="645"/>
      <point x="450" y="686" type="curve" smooth="yes"/>
      <point x="450" y="727"/>
      <point x="428" y="745"/>
      <point x="388" y="745" type="curve" smooth="yes"/>
      <point x="346" y="745"/>
      <point x="326" y="728"/>
      <point x="326" y="686" type="curve" smooth="yes"/>
      <point x="326" y="645"/>
      <point x="346" y="627"/>
    </contour>
  </outline>
</glyph>
<glyph name="Oogonek.sc" format="1">
  <advance width="579"/>
  <outline>
    <contour>
      <point x="285" y="-167" type="curve" smooth="yes"/>
      <point x="307" y="-167"/>
      <point x="326" y="-164"/>
      <point x="348" y="-158" type="curve"/>
      <point x="348" y="-95" type="line"/>
      <point x="333" y="-100"/>
      <point x="313" y="-104"/>
      <point x="295" y="-104" type="curve" smooth="yes"/>
      <point x="272" y="-104"/>
      <point x="259" y="-97"/>
      <point x="259" y="-82" type="curve" smooth="yes"/>
      <point x="259" y="-60"/>
      <point x="282" y="-30"/>
      <point x="335" y="-6" type="curve"/>
      <point x="474" y="10"/>
      <point x="543" y="106"/>
      <point x="543" y="288" type="curve" smooth="yes"/>
      <point x="543" y="489"/>
      <point x="460" y="585"/>
      <point x="290" y="585" type="curve" smooth="yes"/>
      <point x="120" y="585"/>
      <point x="37" y="487"/>
      <point x="37" y="288" type="curve" smooth="yes"/>
      <point x="37" y="107"/>
      <point x="105" y="10"/>
      <point x="244" y="-5" type="curve"/>
      <point x="205" y="-33"/>
      <point x="188" y="-60"/>
      <point x="188" y="-93" type="curve" smooth="yes"/>
      <point x="188" y="-142"/>
      <point x="221" y="-167"/>
    </contour>
    <contour>
      <point x="290" y="83" type="curve" smooth="yes"/>
      <point x="188" y="83"/>
      <point x="148" y="139"/>
      <point x="148" y="288" type="curve" smooth="yes"/>
      <point x="148" y="439"/>
      <point x="188" y="495"/>
      <point x="290" y="495" type="curve" smooth="yes"/>
      <point x="391" y="495"/>
      <point x="432" y="438"/>
      <point x="432" y="288" type="curve" smooth="yes"/>
      <point x="432" y="139"/>
      <point x="391" y="83"/>
    </contour>
  </outline>
</glyph>
<glyph name="Oslash.sc" format="1">
  <advance width="587"/>
  <outline>
    <contour>
      <point x="310" y="760" type="move" name="topUC"/>
    </contour>
    <contour>
      <point x="16" y="0" type="line"/>
      <point x="99" y="0" type="line"/>
      <point x="133" y="43" type="line"/>
      <point x="173" y="9"/>
      <point x="226" y="-8"/>
      <point x="294" y="-8" type="curve" smooth="yes"/>
      <point x="464" y="-8"/>
      <point x="547" y="89"/>
      <point x="547" y="288" type="curve" smooth="yes"/>
      <point x="547" y="374"/>
      <point x="532" y="441"/>
      <point x="501" y="490" type="curve"/>
      <point x="573" y="577" type="line"/>
      <point x="490" y="577" type="line"/>
      <point x="455" y="534" type="line"/>
      <point x="416" y="568"/>
      <point x="362" y="585"/>
      <point x="294" y="585" type="curve" smooth="yes"/>
      <point x="124" y="585"/>
      <point x="41" y="487"/>
      <point x="41" y="288" type="curve" smooth="yes"/>
      <point x="41" y="202"/>
      <point x="56" y="135"/>
      <point x="87" y="87" type="curve"/>
    </contour>
    <contour>
      <point x="294" y="83" type="curve" smooth="yes"/>
      <point x="251" y="83"/>
      <point x="220" y="94"/>
      <point x="198" y="118" type="curve"/>
      <point x="421" y="396" type="line"/>
      <point x="431" y="369"/>
      <point x="436" y="333"/>
      <point x="436" y="288" type="curve" smooth="yes"/>
      <point x="436" y="139"/>
      <point x="396" y="83"/>
    </contour>
    <contour>
      <point x="152" y="288" type="curve" smooth="yes"/>
      <point x="152" y="439"/>
      <point x="192" y="495"/>
      <point x="294" y="495" type="curve" smooth="yes"/>
      <point x="336" y="495"/>
      <point x="368" y="483"/>
      <point x="390" y="458" type="curve"/>
      <point x="166" y="179" type="line"/>
      <point x="156" y="207"/>
      <point x="152" y="243"/>
    </contour>
  </outline>
</glyph>
<glyph name="Oslashacute.sc" format="1">
  <advance width="587"/>
  <outline>
    <contour>
      <point x="15" y="0" type="line"/>
      <point x="99" y="0" type="line"/>
      <point x="132" y="43" type="line"/>
      <point x="172" y="9"/>
      <point x="225" y="-8"/>
      <point x="293" y="-8" type="curve" smooth="yes"/>
      <point x="463" y="-8"/>
      <point x="547" y="89"/>
      <point x="547" y="288" type="curve" smooth="yes"/>
      <point x="547" y="374"/>
      <point x="531" y="441"/>
      <point x="500" y="490" type="curve"/>
      <point x="573" y="577" type="line"/>
      <point x="489" y="577" type="line"/>
      <point x="455" y="534" type="line"/>
      <point x="415" y="568"/>
      <point x="361" y="585"/>
      <point x="293" y="585" type="curve" smooth="yes"/>
      <point x="124" y="585"/>
      <point x="40" y="487"/>
      <point x="40" y="288" type="curve" smooth="yes"/>
      <point x="40" y="202"/>
      <point x="55" y="135"/>
      <point x="87" y="87" type="curve"/>
    </contour>
    <contour>
      <point x="293" y="83" type="curve" smooth="yes"/>
      <point x="250" y="83"/>
      <point x="219" y="94"/>
      <point x="197" y="118" type="curve"/>
      <point x="420" y="396" type="line"/>
      <point x="430" y="369"/>
      <point x="435" y="333"/>
      <point x="435" y="288" type="curve" smooth="yes"/>
      <point x="435" y="139"/>
      <point x="395" y="83"/>
    </contour>
    <contour>
      <point x="327" y="616" type="line"/>
      <point x="419" y="750" type="line"/>
      <point x="310" y="750" type="line"/>
      <point x="248" y="621" type="line"/>
    </contour>
    <contour>
      <point x="151" y="288" type="curve" smooth="yes"/>
      <point x="151" y="439"/>
      <point x="192" y="495"/>
      <point x="293" y="495" type="curve" smooth="yes"/>
      <point x="335" y="495"/>
      <point x="367" y="483"/>
      <point x="389" y="458" type="curve"/>
      <point x="166" y="179" type="line"/>
      <point x="156" y="207"/>
      <point x="151" y="243"/>
    </contour>
  </outline>
</glyph>
<glyph name="R.sc" format="1">
  <advance width="519"/>
  <outline>
    <contour>
      <point x="273" y="760" type="move" name="topUC"/>
    </contour>
    <contour>
      <point x="278" y="0" type="move" name="bottom"/>
    </contour>
    <contour>
      <point x="384" y="0" type="line"/>
      <point x="498" y="0" type="line"/>
      <point x="373" y="223" type="line"/>
      <point x="448" y="250"/>
      <point x="483" y="304"/>
      <point x="483" y="391" type="curve" smooth="yes"/>
      <point x="483" y="527"/>
      <point x="403" y="586"/>
      <point x="217" y="586" type="curve" smooth="yes"/>
      <point x="164" y="586"/>
      <point x="112" y="582"/>
      <point x="63" y="573" type="curve"/>
      <point x="63" y="0" type="line"/>
      <point x="171" y="0" type="line"/>
      <point x="171" y="202" type="line"/>
      <point x="190" y="202"/>
      <point x="209" y="201"/>
      <point x="227" y="201" type="curve" smooth="yes"/>
      <point x="240" y="201"/>
      <point x="265" y="202"/>
      <point x="276" y="204" type="curve"/>
    </contour>
    <contour>
      <point x="233" y="285" type="curve"/>
      <point x="220" y="285"/>
      <point x="187" y="285"/>
      <point x="171" y="287" type="curve"/>
      <point x="171" y="494" type="line"/>
      <point x="193" y="496"/>
      <point x="218" y="498"/>
      <point x="234" y="498" type="curve" smooth="yes"/>
      <point x="338" y="498"/>
      <point x="376" y="470"/>
      <point x="376" y="391" type="curve" smooth="yes"/>
      <point x="376" y="312"/>
      <point x="338" y="285"/>
    </contour>
  </outline>
</glyph>
<glyph name="Racute.sc" format="1">
  <advance width="519"/>
  <outline>
    <contour>
      <point x="63" y="0" type="line"/>
      <point x="171" y="0" type="line"/>
      <point x="171" y="202" type="line"/>
      <point x="190" y="202"/>
      <point x="209" y="201"/>
      <point x="227" y="201" type="curve" smooth="yes"/>
      <point x="240" y="201"/>
      <point x="265" y="202"/>
      <point x="276" y="204" type="curve"/>
      <point x="384" y="0" type="line"/>
      <point x="498" y="0" type="line"/>
      <point x="373" y="223" type="line"/>
      <point x="448" y="250"/>
      <point x="483" y="304"/>
      <point x="483" y="391" type="curve" smooth="yes"/>
      <point x="483" y="527"/>
      <point x="403" y="586"/>
      <point x="217" y="586" type="curve" smooth="yes"/>
      <point x="164" y="586"/>
      <point x="112" y="582"/>
      <point x="63" y="573" type="curve"/>
    </contour>
    <contour>
      <point x="233" y="285" type="curve"/>
      <point x="214" y="285"/>
      <point x="193" y="285"/>
      <point x="171" y="287" type="curve"/>
      <point x="171" y="494" type="line"/>
      <point x="193" y="496"/>
      <point x="218" y="498"/>
      <point x="234" y="498" type="curve" smooth="yes"/>
      <point x="338" y="498"/>
      <point x="376" y="470"/>
      <point x="376" y="391" type="curve" smooth="yes"/>
      <point x="376" y="312"/>
      <point x="338" y="285"/>
    </contour>
    <contour>
      <point x="299" y="616" type="line"/>
      <point x="393" y="750" type="line"/>
      <point x="283" y="750" type="line"/>
      <point x="221" y="621" type="line"/>
    </contour>
  </outline>
</glyph>
<glyph name="Scaron.sc" format="1">
  <advance width="450"/>
  <outline>
    <contour>
      <point x="218" y="-10" type="curve" smooth="yes"/>
      <point x="345" y="-10"/>
      <point x="423" y="56"/>
      <point x="423" y="162" type="curve" smooth="yes"/>
      <point x="423" y="248"/>
      <point x="379" y="294"/>
      <point x="272" y="328" type="curve" smooth="yes"/>
      <point x="194" y="354"/>
      <point x="150" y="373"/>
      <point x="150" y="420" type="curve" smooth="yes"/>
      <point x="150" y="468"/>
      <point x="189" y="497"/>
      <point x="256" y="497" type="curve" smooth="yes"/>
      <point x="288" y="497"/>
      <point x="343" y="489"/>
      <point x="394" y="477" type="curve"/>
      <point x="397" y="565" type="line"/>
      <point x="342" y="579"/>
      <point x="294" y="585"/>
      <point x="247" y="585" type="curve" smooth="yes"/>
      <point x="118" y="585"/>
      <point x="41" y="521"/>
      <point x="41" y="413" type="curve" smooth="yes"/>
      <point x="41" y="327"/>
      <point x="85" y="281"/>
      <point x="193" y="250" type="curve" smooth="yes"/>
      <point x="269" y="226"/>
      <point x="314" y="208"/>
      <point x="314" y="159" type="curve" smooth="yes"/>
      <point x="314" y="108"/>
      <point x="275" y="81"/>
      <point x="200" y="81" type="curve" smooth="yes"/>
      <point x="150" y="81"/>
      <point x="78" y="95"/>
      <point x="37" y="111" type="curve"/>
      <point x="34" y="19" type="line"/>
      <point x="90" y="1"/>
      <point x="160" y="-10"/>
    </contour>
    <contour>
      <point x="104" y="674" type="line"/>
      <point x="237" y="617" type="line"/>
      <point x="369" y="674" type="line"/>
      <point x="369" y="748" type="line"/>
      <point x="237" y="692" type="line"/>
      <point x="104" y="748" type="line"/>
    </contour>
  </outline>
</glyph>
<glyph name="Schwa.sc" format="1">
  <advance width="543"/>
  <outline>
    <contour>
      <point x="33" y="249" type="curve" smooth="yes"/>
      <point x="33" y="74"/>
      <point x="107" y="-8"/>
      <point x="248" y="-8" type="curve" smooth="yes"/>
      <point x="419" y="-8"/>
      <point x="507" y="104"/>
      <point x="507" y="296" type="curve" smooth="yes"/>
      <point x="507" y="486"/>
      <point x="412" y="588"/>
      <point x="234" y="588" type="curve" smooth="yes"/>
      <point x="172" y="588"/>
      <point x="109" y="575"/>
      <point x="57" y="557" type="curve"/>
      <point x="59" y="533"/>
      <point x="62" y="492"/>
      <point x="63" y="469" type="curve"/>
      <point x="119" y="487"/>
      <point x="174" y="495"/>
      <point x="224" y="495" type="curve" smooth="yes"/>
      <point x="335" y="495"/>
      <point x="388" y="448"/>
      <point x="396" y="327" type="curve"/>
      <point x="38" y="327" type="line"/>
      <point x="35" y="302"/>
      <point x="33" y="278"/>
    </contour>
    <contour>
      <point x="254" y="79" type="curve" smooth="yes"/>
      <point x="170" y="79"/>
      <point x="141" y="123"/>
      <point x="139" y="251" type="curve"/>
      <point x="397" y="251" type="line"/>
      <point x="391" y="133"/>
      <point x="343" y="79"/>
    </contour>
  </outline>
</glyph>
<glyph name="Sdotbelow.sc" format="1">
  <advance width="450"/>
  <outline>
    <contour>
      <point x="218" y="-10" type="curve" smooth="yes"/>
      <point x="345" y="-10"/>
      <point x="423" y="56"/>
      <point x="423" y="162" type="curve" smooth="yes"/>
      <point x="423" y="248"/>
      <point x="379" y="294"/>
      <point x="272" y="328" type="curve" smooth="yes"/>
      <point x="194" y="354"/>
      <point x="150" y="373"/>
      <point x="150" y="420" type="curve" smooth="yes"/>
      <point x="150" y="468"/>
      <point x="189" y="497"/>
      <point x="256" y="497" type="curve" smooth="yes"/>
      <point x="288" y="497"/>
      <point x="343" y="489"/>
      <point x="394" y="477" type="curve"/>
      <point x="397" y="565" type="line"/>
      <point x="342" y="579"/>
      <point x="294" y="585"/>
      <point x="247" y="585" type="curve" smooth="yes"/>
      <point x="118" y="585"/>
      <point x="41" y="521"/>
      <point x="41" y="413" type="curve" smooth="yes"/>
      <point x="41" y="327"/>
      <point x="85" y="281"/>
      <point x="193" y="250" type="curve" smooth="yes"/>
      <point x="269" y="226"/>
      <point x="314" y="208"/>
      <point x="314" y="159" type="curve" smooth="yes"/>
      <point x="314" y="108"/>
      <point x="275" y="81"/>
      <point x="200" y="81" type="curve" smooth="yes"/>
      <point x="150" y="81"/>
      <point x="78" y="95"/>
      <point x="37" y="111" type="curve"/>
      <point x="34" y="19" type="line"/>
      <point x="90" y="1"/>
      <point x="160" y="-10"/>
    </contour>
    <contour>
      <point x="228" y="-155" type="curve" smooth="yes"/>
      <point x="263" y="-155"/>
      <point x="280" y="-142"/>
      <point x="280" y="-107" type="curve" smooth="yes"/>
      <point x="280" y="-72"/>
      <point x="263" y="-58"/>
      <point x="228" y="-58" type="curve" smooth="yes"/>
      <point x="192" y="-58"/>
      <point x="176" y="-72"/>
      <point x="176" y="-107" type="curve" smooth="yes"/>
      <point x="176" y="-141"/>
      <point x="192" y="-155"/>
    </contour>
  </outline>
</glyph>
<glyph name="Tbar.sc" format="1">
  <advance width="467"/>
  <outline>
    <contour>
      <point x="81" y="262" type="line"/>
      <point x="179" y="262" type="line"/>
      <point x="179" y="0" type="line"/>
      <point x="288" y="0" type="line"/>
      <point x="288" y="262" type="line"/>
      <point x="391" y="262" type="line"/>
      <point x="391" y="324" type="line"/>
      <point x="288" y="324" type="line"/>
      <point x="288" y="484" type="line"/>
      <point x="446" y="484" type="line"/>
      <point x="446" y="577" type="line"/>
      <point x="21" y="577" type="line"/>
      <point x="21" y="484" type="line"/>
      <point x="179" y="484" type="line"/>
      <point x="179" y="324" type="line"/>
      <point x="81" y="324" type="line"/>
    </contour>
  </outline>
</glyph>
<glyph name="Tcaron.sc" format="1">
  <advance width="460"/>
  <outline>
    <contour>
      <point x="176" y="0" type="line"/>
      <point x="284" y="0" type="line"/>
      <point x="284" y="484" type="line"/>
      <point x="442" y="484" type="line"/>
      <point x="442" y="577" type="line"/>
      <point x="18" y="577" type="line"/>
      <point x="18" y="484" type="line"/>
      <point x="176" y="484" type="line"/>
    </contour>
    <contour>
      <point x="102" y="674" type="line"/>
      <point x="235" y="617" type="line"/>
      <point x="367" y="674" type="line"/>
      <point x="367" y="748" type="line"/>
      <point x="234" y="692" type="line"/>
      <point x="102" y="748" type="line"/>
    </contour>
  </outline>
</glyph>
<glyph name="Tdotbelow.sc" format="1">
  <advance width="460"/>
  <outline>
    <contour>
      <point x="176" y="0" type="line"/>
      <point x="284" y="0" type="line"/>
      <point x="284" y="484" type="line"/>
      <point x="442" y="484" type="line"/>
      <point x="442" y="577" type="line"/>
      <point x="18" y="577" type="line"/>
      <point x="18" y="484" type="line"/>
      <point x="176" y="484" type="line"/>
    </contour>
    <contour>
      <point x="232" y="-155" type="curve" smooth="yes"/>
      <point x="267" y="-155"/>
      <point x="284" y="-142"/>
      <point x="284" y="-107" type="curve" smooth="yes"/>
      <point x="284" y="-72"/>
      <point x="267" y="-58"/>
      <point x="232" y="-58" type="curve" smooth="yes"/>
      <point x="195" y="-58"/>
      <point x="179" y="-72"/>
      <point x="179" y="-107" type="curve" smooth="yes"/>
      <point x="179" y="-141"/>
      <point x="195" y="-155"/>
    </contour>
  </outline>
</glyph>
<glyph name="Thorn.sc" format="1">
  <advance width="510"/>
  <outline>
    <contour>
      <point x="63" y="0" type="line"/>
      <point x="171" y="0" type="line"/>
      <point x="171" y="87" type="line"/>
      <point x="185" y="86"/>
      <point x="206" y="85"/>
      <point x="218" y="85" type="curve" smooth="yes"/>
      <point x="403" y="85"/>
      <point x="483" y="146"/>
      <point x="483" y="287" type="curve" smooth="yes"/>
      <point x="483" y="429"/>
      <point x="403" y="490"/>
      <point x="217" y="490" type="curve" smooth="yes"/>
      <point x="203" y="490"/>
      <point x="187" y="489"/>
      <point x="171" y="486" type="curve"/>
      <point x="171" y="577" type="line"/>
      <point x="63" y="577" type="line"/>
    </contour>
    <contour>
      <point x="232" y="174" type="curve" smooth="yes"/>
      <point x="212" y="174"/>
      <point x="192" y="175"/>
      <point x="171" y="176" type="curve"/>
      <point x="171" y="397" type="line"/>
      <point x="194" y="399"/>
      <point x="215" y="400"/>
      <point x="233" y="400" type="curve" smooth="yes"/>
      <point x="335" y="400"/>
      <point x="372" y="369"/>
      <point x="372" y="287" type="curve" smooth="yes"/>
      <point x="372" y="204"/>
      <point x="334" y="174"/>
    </contour>
  </outline>
</glyph>
<glyph name="Uacute.sc" format="1">
  <advance width="587"/>
  <outline>
    <contour>
      <point x="294" y="-8" type="curve" smooth="yes"/>
      <point x="466" y="-8"/>
      <point x="530" y="66"/>
      <point x="530" y="224" type="curve" smooth="yes"/>
      <point x="530" y="577" type="line"/>
      <point x="421" y="577" type="line"/>
      <point x="421" y="229" type="line" smooth="yes"/>
      <point x="421" y="125"/>
      <point x="386" y="85"/>
      <point x="294" y="85" type="curve" smooth="yes"/>
      <point x="204" y="85"/>
      <point x="166" y="126"/>
      <point x="166" y="229" type="curve" smooth="yes"/>
      <point x="166" y="577" type="line"/>
      <point x="58" y="577" type="line"/>
      <point x="58" y="224" type="line" smooth="yes"/>
      <point x="58" y="67"/>
      <point x="122" y="-8"/>
    </contour>
    <contour>
      <point x="324" y="616" type="line"/>
      <point x="417" y="750" type="line"/>
      <point x="308" y="750" type="line"/>
      <point x="246" y="621" type="line"/>
    </contour>
  </outline>
</glyph>
<glyph name="Ubreve.sc" format="1">
  <advance width="587"/>
  <outline>
    <contour>
      <point x="294" y="-8" type="curve" smooth="yes"/>
      <point x="466" y="-8"/>
      <point x="530" y="66"/>
      <point x="530" y="224" type="curve" smooth="yes"/>
      <point x="530" y="577" type="line"/>
      <point x="421" y="577" type="line"/>
      <point x="421" y="229" type="line" smooth="yes"/>
      <point x="421" y="125"/>
      <point x="386" y="85"/>
      <point x="294" y="85" type="curve" smooth="yes"/>
      <point x="204" y="85"/>
      <point x="166" y="126"/>
      <point x="166" y="229" type="curve" smooth="yes"/>
      <point x="166" y="577" type="line"/>
      <point x="58" y="577" type="line"/>
      <point x="58" y="224" type="line" smooth="yes"/>
      <point x="58" y="67"/>
      <point x="122" y="-8"/>
    </contour>
    <contour>
      <point x="291" y="624" type="curve" smooth="yes"/>
      <point x="386" y="624"/>
      <point x="438" y="674"/>
      <point x="438" y="755" type="curve"/>
      <point x="362" y="755" type="line"/>
      <point x="362" y="700"/>
      <point x="341" y="677"/>
      <point x="291" y="677" type="curve" smooth="yes"/>
      <point x="241" y="677"/>
      <point x="220" y="700"/>
      <point x="220" y="755" type="curve"/>
      <point x="144" y="755" type="line"/>
      <point x="144" y="674"/>
      <point x="196" y="624"/>
    </contour>
  </outline>
</glyph>
<glyph name="Udieresis.sc" format="1">
  <advance width="587"/>
  <outline>
    <contour>
      <point x="294" y="-8" type="curve" smooth="yes"/>
      <point x="466" y="-8"/>
      <point x="530" y="66"/>
      <point x="530" y="224" type="curve" smooth="yes"/>
      <point x="530" y="577" type="line"/>
      <point x="421" y="577" type="line"/>
      <point x="421" y="229" type="line" smooth="yes"/>
      <point x="421" y="125"/>
      <point x="386" y="85"/>
      <point x="294" y="85" type="curve" smooth="yes"/>
      <point x="204" y="85"/>
      <point x="166" y="126"/>
      <point x="166" y="229" type="curve" smooth="yes"/>
      <point x="166" y="577" type="line"/>
      <point x="58" y="577" type="line"/>
      <point x="58" y="224" type="line" smooth="yes"/>
      <point x="58" y="67"/>
      <point x="122" y="-8"/>
    </contour>
    <contour>
      <point x="192" y="627" type="curve" smooth="yes"/>
      <point x="233" y="627"/>
      <point x="254" y="645"/>
      <point x="254" y="686" type="curve" smooth="yes"/>
      <point x="254" y="727"/>
      <point x="233" y="745"/>
      <point x="192" y="745" type="curve" smooth="yes"/>
      <point x="150" y="745"/>
      <point x="131" y="728"/>
      <point x="131" y="686" type="curve" smooth="yes"/>
      <point x="131" y="645"/>
      <point x="150" y="627"/>
    </contour>
    <contour>
      <point x="388" y="627" type="curve" smooth="yes"/>
      <point x="429" y="627"/>
      <point x="450" y="645"/>
      <point x="450" y="686" type="curve" smooth="yes"/>
      <point x="450" y="727"/>
      <point x="429" y="745"/>
      <point x="388" y="745" type="curve" smooth="yes"/>
      <point x="347" y="745"/>
      <point x="327" y="728"/>
      <point x="327" y="686" type="curve" smooth="yes"/>
      <point x="327" y="645"/>
      <point x="347" y="627"/>
    </contour>
  </outline>
</glyph>
<glyph name="Uhungarumlaut.sc" format="1">
  <advance width="587"/>
  <outline>
    <contour>
      <point x="294" y="-8" type="curve" smooth="yes"/>
      <point x="466" y="-8"/>
      <point x="530" y="66"/>
      <point x="530" y="224" type="curve" smooth="yes"/>
      <point x="530" y="577" type="line"/>
      <point x="421" y="577" type="line"/>
      <point x="421" y="229" type="line" smooth="yes"/>
      <point x="421" y="125"/>
      <point x="386" y="85"/>
      <point x="294" y="85" type="curve" smooth="yes"/>
      <point x="204" y="85"/>
      <point x="166" y="126"/>
      <point x="166" y="229" type="curve" smooth="yes"/>
      <point x="166" y="577" type="line"/>
      <point x="58" y="577" type="line"/>
      <point x="58" y="224" type="line" smooth="yes"/>
      <point x="58" y="67"/>
      <point x="122" y="-8"/>
    </contour>
    <contour>
      <point x="236" y="615" type="line"/>
      <point x="328" y="750" type="line"/>
      <point x="236" y="750" type="line"/>
      <point x="174" y="624" type="line"/>
    </contour>
    <contour>
      <point x="382" y="615" type="line"/>
      <point x="476" y="750" type="line"/>
      <point x="383" y="750" type="line"/>
      <point x="321" y="624" type="line"/>
    </contour>
  </outline>
</glyph>
